<?xml version="1.0" encoding="utf-8"?>
<!-- Generator: Adobe Illustrator 19.0.1, SVG Export Plug-In . SVG Version: 6.00 Build 0)  -->
<svg version="1.1" id="圖層_1" xmlns="http://www.w3.org/2000/svg" xmlns:xlink="http://www.w3.org/1999/xlink" x="0px" y="0px"
	 viewBox="-463.5 306.6 127.1 73.1" style="enable-background:new -463.5 306.6 127.1 73.1;" xml:space="preserve">
<style type="text/css">
	.st0{enable-background:new    ;}
	.st1{fill:#A0A0A0;}
</style>
<g class="st0">
	<path d="M-453.7,348v-9.6l-4,9.6h-0.2l-4.4-9.6v9.6h-0.9v-11.7h2.7l3.5,7.6l3.2-7.6h2.7V348H-453.7z"/>
	<path d="M-447.9,348c-0.3,0-0.5-0.1-0.8-0.2c-0.3-0.1-0.4-0.3-0.6-0.5c-0.3-0.4-0.4-0.8-0.4-1.3v-9.8h2.6v0.7
		c0.1-0.2,0.3-0.4,0.6-0.5c0.2-0.1,0.5-0.2,0.7-0.2h5.2v0.9h-6.5v4.1h6v0.9h-6v3.8c0,0.3,0.1,0.5,0.3,0.7c0.2,0.2,0.4,0.3,0.7,0.3
		h5.6v0.9h-7.4V348z"/>
	<path d="M-438.6,348v-11.7h2.4V348H-438.6z"/>
	<path d="M-433.3,348v-11.7h2.4V348H-433.3z"/>
	<path d="M-420.3,347.4c-0.2,0.3-0.4,0.5-0.6,0.6s-0.5,0.2-0.8,0.2c-0.3,0-0.6,0-0.8-0.1c-0.2-0.1-0.4-0.2-0.6-0.3
		c-0.2-0.2-0.3-0.4-0.4-0.6c-0.3,0.2-0.5,0.4-0.8,0.6c-0.3,0.2-0.6,0.3-0.9,0.3c-0.4,0.1-0.7,0.1-1.1,0c-0.4-0.1-0.7-0.1-1-0.3
		c-0.3-0.1-0.6-0.3-0.8-0.5s-0.4-0.5-0.5-0.7c-0.3-0.6-0.3-1.3-0.1-2c0.1-0.3,0.2-0.6,0.4-0.8s0.4-0.4,0.6-0.5
		c0.4-0.3,0.9-0.4,1.5-0.4c0.4,0,0.9-0.1,1.4-0.1s0.8-0.1,1.1-0.2V342c0-0.2,0-0.4,0-0.6c0-0.2-0.1-0.4-0.2-0.5
		c-0.1-0.3-0.3-0.5-0.6-0.6c-0.1-0.1-0.3-0.1-0.4-0.1c-0.1,0-0.3,0-0.4,0c-0.2,0.1-0.3,0.1-0.5,0.3c-0.1,0.1-0.3,0.3-0.3,0.5
		c-0.1,0.2-0.1,0.3-0.1,0.5s-0.1,0.4-0.1,0.5h-2.4c0.1-0.3,0.2-0.7,0.4-1s0.4-0.6,0.6-0.9c0.3-0.2,0.5-0.4,0.8-0.5
		c0.3-0.1,0.6-0.2,1-0.3c0.4-0.1,0.8-0.1,1.2-0.1s0.8,0.1,1.2,0.2c0.3,0.1,0.6,0.2,0.8,0.3c0.3,0.1,0.5,0.3,0.7,0.5
		c0.3,0.3,0.5,0.6,0.6,1c0.2,0.4,0.2,0.8,0.2,1.1v4c0,0.2,0,0.4,0.1,0.5c0.1,0.1,0.3,0.2,0.5,0.1c0.1-0.1,0.3-0.1,0.4-0.2
		s0.2-0.2,0.3-0.4h0.1C-420,346.9-420.1,347.1-420.3,347.4z M-423.8,343.5c-0.2,0.1-0.4,0.1-0.7,0.2c-0.3,0.1-0.5,0.1-0.7,0.1
		c-0.3,0-0.5,0.1-0.7,0.3c-0.2,0.2-0.3,0.4-0.4,0.6c0,0.1-0.1,0.2-0.1,0.4s0,0.3,0,0.4s0,0.3,0,0.4s0.1,0.2,0.1,0.3
		c0.1,0.2,0.3,0.3,0.5,0.4c0.2,0.1,0.5,0.1,0.8,0.1c0.2,0,0.4-0.1,0.6-0.1c0.2-0.1,0.4-0.1,0.6-0.3L-423.8,343.5L-423.8,343.5z"/>
	<path d="M-414.1,348v-5.9c0-0.2,0-0.4-0.1-0.6c-0.1-0.2-0.2-0.3-0.3-0.4s-0.3-0.2-0.5-0.2s-0.4,0-0.6,0.1c-0.2,0.1-0.4,0.2-0.6,0.4
		c-0.2,0.2-0.3,0.4-0.5,0.6v6h-2.4v-8.3h2.4v1.1c0.2-0.3,0.4-0.5,0.7-0.7c0.3-0.2,0.6-0.3,0.9-0.4c0.2-0.1,0.5-0.1,0.7-0.1
		s0.5,0,0.7,0.1c0.6,0.1,1.1,0.4,1.4,0.9c0.3,0.4,0.5,1,0.5,1.6v6h-2.3V348z"/>
	<path d="M-398.8,348v-5.7h-4.7v5.7h-2.6v-11.7h2.6v5.1h4.7v-5.1h2.6V348H-398.8z"/>
	<path d="M-387.8,348l-3-5.1l-1.4,1.4v3.7h-2.5v-11.7h2.5v6.7l6-6.7h1.3l-4.2,4.7l4.3,7H-387.8L-387.8,348z"/>
	<path d="M-372,348l-2.9-4.5l-3.8,4.5h-1.2l4.4-5.4l-4.1-6.3h3.1l2.7,4.2l3.4-4.2h1.2l-4.1,5.1l4.3,6.6H-372L-372,348z"/>
	<path d="M-360,342.8c0,0.2,0,0.4,0,0.7c0,0.2,0,0.5,0,0.8c0,0.3,0,0.5-0.1,0.8c-0.1,0.3-0.1,0.5-0.1,0.7c-0.1,0.5-0.4,0.9-0.6,1.3
		c-0.3,0.4-0.7,0.7-1.1,0.9c-0.1,0.1-0.3,0.1-0.5,0.2c-0.2,0-0.4,0.1-0.6,0.1s-0.4,0-0.6,0s-0.4,0-0.5-0.1c-0.3-0.1-0.6-0.2-0.8-0.4
		c-0.2-0.2-0.4-0.4-0.6-0.6v0.9h-2.4v-11.7h2.4v4.3c0.2-0.3,0.5-0.6,0.9-0.8s0.8-0.3,1.2-0.3c0.5,0,0.9,0,1.3,0.2s0.8,0.4,1.1,0.8
		c0.3,0.3,0.5,0.7,0.6,1.1C-360.3,342.1-360,342.4-360,342.8z M-362.4,344.5c0-0.2,0-0.5,0-0.9s0-0.7-0.1-1
		c-0.1-0.3-0.1-0.5-0.2-0.8c-0.1-0.2-0.2-0.4-0.4-0.5c-0.2-0.1-0.4-0.2-0.6-0.3c-0.2,0-0.5,0-0.8,0.1c-0.2,0.1-0.4,0.2-0.6,0.3
		c-0.2,0.1-0.3,0.3-0.4,0.5v3.8c0.2,0.3,0.3,0.5,0.6,0.7c0.3,0.2,0.5,0.3,0.8,0.3c0.2,0,0.4,0,0.7-0.1c0.2-0.1,0.4-0.2,0.5-0.4
		c0.1-0.2,0.3-0.4,0.3-0.8C-362.6,345-362.4,344.9-362.4,344.5z"/>
	<path d="M-350.8,343.9c0,0.3,0,0.7-0.1,1c-0.1,0.3-0.1,0.7-0.2,1c-0.1,0.4-0.3,0.7-0.5,1c-0.2,0.3-0.5,0.5-0.8,0.7
		c-0.3,0.2-0.7,0.4-1.1,0.5c-0.4,0.1-0.8,0.2-1.2,0.2s-0.9,0-1.3-0.1c-0.4-0.1-0.8-0.3-1.2-0.5c-0.3-0.2-0.6-0.5-0.8-0.8
		c-0.2-0.3-0.4-0.6-0.6-1c-0.2-0.6-0.3-1.2-0.3-1.9c0-0.7,0.1-1.3,0.3-1.8c0.1-0.5,0.3-0.9,0.6-1.2c0.2-0.3,0.5-0.6,0.8-0.8
		s0.7-0.4,1.1-0.5s0.8-0.2,1.2-0.2c0.5,0,1,0.1,1.5,0.2s0.9,0.4,1.2,0.7c0.5,0.5,0.9,1.1,1.1,1.9c0.1,0.2,0.1,0.5,0.1,0.8
		C-350.8,343.4-350.8,343.7-350.8,343.9z M-353.3,342c0-0.3-0.1-0.5-0.2-0.7c-0.1-0.2-0.2-0.4-0.3-0.5c-0.1-0.1-0.3-0.3-0.5-0.3
		c-0.2-0.1-0.3-0.1-0.5-0.1s-0.4,0.1-0.5,0.1c-0.2,0.1-0.3,0.2-0.5,0.3c-0.1,0.1-0.2,0.3-0.3,0.5c-0.1,0.2-0.2,0.4-0.2,0.7
		c0,0.2-0.1,0.5-0.1,0.8c0,0.3,0,0.7,0,1c0,0.3,0,0.7,0,1c0,0.3,0,0.6,0,0.9c0,0.2,0.1,0.5,0.2,0.7c0.1,0.2,0.2,0.4,0.3,0.5
		c0.1,0.2,0.3,0.3,0.5,0.4c0.2,0.1,0.4,0.1,0.6,0.1s0.4-0.1,0.6-0.2c0.2-0.1,0.3-0.3,0.5-0.5c0.2-0.3,0.3-0.6,0.4-1.1
		c0-0.3,0.1-0.5,0.1-0.9c0-0.3,0-0.6,0-1c0-0.3,0-0.7,0-1C-353.2,342.5-353.3,342.3-353.3,342z"/>
	<path d="M-348.7,348v-11.7h2.4V348H-348.7z"/>
	<path d="M-338.7,348v-0.8c-0.4,0.4-0.7,0.7-1.1,0.8c-0.2,0.1-0.5,0.1-0.8,0.2c-0.3,0.1-0.5,0-0.8,0c-0.5-0.1-0.9-0.2-1.3-0.5
		c-0.4-0.2-0.7-0.6-1-1c-0.2-0.4-0.4-0.8-0.5-1.3c-0.1-0.5-0.2-0.9-0.2-1.4c0-0.4,0-0.9,0.1-1.3c0.1-0.4,0.2-0.8,0.3-1.2
		c0.2-0.4,0.4-0.8,0.8-1.1s0.7-0.6,1.1-0.7c0.3-0.1,0.6-0.2,0.9-0.2s0.6,0,0.9,0.1c0.3,0.1,0.6,0.2,0.9,0.4c0.3,0.2,0.5,0.4,0.7,0.7
		v-4.3h2.3V348H-338.7z M-338.7,342.1c0-0.2-0.1-0.3-0.2-0.4c-0.1-0.1-0.2-0.2-0.4-0.3c-0.1-0.1-0.3-0.2-0.5-0.2
		c-0.2,0-0.3-0.1-0.5-0.1c-0.3,0-0.6,0.1-0.8,0.3c-0.3,0.2-0.4,0.4-0.5,0.7s-0.2,0.7-0.2,1c-0.1,0.4-0.1,0.7,0,1.1
		c0,0.3,0,0.7,0.1,1s0.2,0.6,0.3,0.8c0.3,0.5,0.7,0.8,1.3,0.8c0.3,0,0.6-0.1,0.8-0.2c0.3-0.2,0.5-0.4,0.6-0.8
		C-338.7,345.8-338.7,342.1-338.7,342.1z"/>
</g>
<g class="st0">
	<path d="M-453.4,371.7c-0.1,0.1-0.2,0.2-0.3,0.3s-0.2,0.2-0.3,0.2c0.2,0.2,0.4,0.3,0.6,0.5c0.2,0.2,0.4,0.4,0.5,0.6
		c0.1,0.2,0.2,0.4,0.3,0.6c0.1,0.2,0.1,0.5,0.1,0.7v2.7c0,0.4-0.1,0.7-0.2,1c-0.1,0.3-0.3,0.5-0.6,0.7c-0.6,0.4-1.3,0.5-2.3,0.3
		c-0.4-0.1-0.8-0.3-1.1-0.5c-0.3-0.2-0.6-0.5-0.8-0.9c-0.8,0.5-1.7,0.9-2.7,1c-0.9,0.2-1.9,0.3-2.9,0.2V379c0.7-0.3,1.4-0.6,2.1-1.1
		s1.2-1,1.7-1.7c-0.6,0.1-1.2,0.2-1.8,0.3s-1.3,0.1-1.9,0.1v-0.1c0.7-0.2,1.3-0.6,1.9-0.9c0.6-0.4,1.2-0.9,1.7-1.4h3.7
		c-0.2,0.2-0.4,0.4-0.6,0.7c-0.3,0.2-0.6,0.4-0.9,0.6s-0.6,0.4-0.9,0.5c-0.3,0.1-0.6,0.2-0.8,0.3h3.4c-0.2,0.3-0.4,0.6-0.7,0.9
		s-0.6,0.6-0.9,0.7c0.1,0.1,0.3,0.2,0.4,0.3c0.2,0.1,0.3,0.1,0.5,0.2c0.3,0,0.5,0,0.8-0.2c0.2-0.1,0.3-0.3,0.3-0.6v-2.4
		c0-0.3-0.1-0.7-0.3-1c-0.2-0.3-0.5-0.6-0.9-0.8c-1,0.3-2.1,0.5-3.3,0.7c-1.1,0.1-2.3,0.2-3.4,0.2v-0.1c0.9-0.3,1.7-0.6,2.6-1
		c0.9-0.4,1.7-0.9,2.3-1.4h-4.6v-1h15.6v1L-453.4,371.7L-453.4,371.7z M-450.4,365.8v1h1.2c0.7,0,1.2,0.2,1.6,0.5
		c0.4,0.3,0.6,0.8,0.6,1.4v1.3h-2.9v-1.4c0-0.2-0.1-0.3-0.2-0.5c-0.1-0.2-0.3-0.3-0.5-0.3h-9.3v2.2h-2.8v-3.2h2.8v0.8
		c0-0.1,0.1-0.3,0.2-0.4c0.1-0.1,0.2-0.2,0.3-0.2v-1.3h-3.4v-1h3.4v-1.3h2.9v1.3h3.4v-1.3h2.9v1.3h3.3v1L-450.4,365.8L-450.4,365.8z
		 M-459.5,369.8v-1h9v1H-459.5z M-453.3,365.8h-3.4v1h3.4V365.8z M-447.5,372.9c-0.1,0.2-0.2,0.4-0.3,0.6c-0.3,0.5-0.6,0.9-1,1.1
		c-0.5,0.3-1.1,0.4-1.7,0.4c-0.3,0-0.6,0-0.9-0.1c-0.3,0-0.6-0.1-0.8-0.2v-0.2c0.3,0,0.6-0.1,0.9-0.2c0.2-0.1,0.4-0.3,0.5-0.6
		c0.1-0.2,0.2-0.5,0.3-0.7c0.1-0.3,0.1-0.6,0.2-0.8h3C-447.4,372.5-447.5,372.7-447.5,372.9z M-447.3,379c-0.2,0.1-0.5,0.1-0.8,0.2
		c-0.7,0.1-1.2,0-1.7-0.2c-0.3-0.2-0.5-0.4-0.8-0.7c-0.2-0.3-0.5-0.6-0.7-1.1c0-0.1-0.1-0.2-0.2-0.4c-0.1-0.1-0.1-0.3-0.2-0.4
		c-0.1-0.1-0.1-0.3-0.2-0.4c-0.1-0.1-0.1-0.2-0.1-0.3h2.9c0.1,0.4,0.3,0.7,0.5,1.1c0.2,0.4,0.4,0.8,0.6,1.1c0.3,0.5,0.8,0.7,1.4,0.7
		l0.1,0.1C-446.8,378.8-447,378.9-447.3,379z"/>
	<path d="M-443.5,378.6c-0.2,0.2-0.5,0.4-0.8,0.6c-0.3,0.1-0.7,0.2-1.1,0.3l-0.1-0.1c0.1-0.1,0.3-0.3,0.4-0.4
		c0.1-0.2,0.2-0.4,0.2-0.5c0.1-0.2,0.1-0.4,0.1-0.5c0-0.2,0-0.3,0-0.5v-3.1h1.7v2.6C-442.9,377.6-443.1,378.2-443.5,378.6z
		 M-440.6,370.3h1.7c0,0.3,0,0.6,0,0.9s0,0.6,0,1c0,0.3,0,0.6,0.1,0.8s0.2,0.5,0.5,0.7v0.1c-0.7,0-1.3-0.2-1.8-0.5
		c-0.2,0.1-0.5,0.2-0.8,0.3s-0.5,0.1-0.8,0.1c-0.4,0-0.7,0-1.2,0s-0.8,0-1.1,0s-0.6-0.2-0.8-0.4c-0.1-0.1-0.1-0.3-0.1-0.4
		c0-0.2,0.1-0.3,0.2-0.5l2.1-3.2h-1.2c-0.3,0-0.5,0-0.7-0.1c-0.2-0.1-0.3-0.2-0.4-0.4c-0.1-0.2-0.2-0.4-0.2-0.6s0.1-0.5,0.2-0.7
		l2.4-3.8h2.8l-2.9,4.6h0.5l1-1.5h2.8L-440.6,370.3z M-440.3,379.6c-0.8-0.1-1.3-0.4-1.6-0.8c-0.3-0.3-0.4-0.8-0.4-1.4v-3.2h1.6v4
		c0,0.2,0.1,0.5,0.2,0.7c0.1,0.2,0.2,0.4,0.4,0.5L-440.3,379.6z M-440.7,372.4c0-0.3-0.1-0.6-0.1-0.9s0-0.6,0-0.9l-1.3,2
		c0.2,0,0.5,0,0.7,0S-440.9,372.5-440.7,372.4z M-438.3,379.5c-0.3,0-0.7-0.1-0.9-0.2c-0.3-0.1-0.5-0.3-0.7-0.5
		c-0.3-0.4-0.5-0.9-0.5-1.5v-3.1h1.6v4c0,0.5,0.2,0.8,0.5,1.2L-438.3,379.5z M-429.3,378.3c-0.1,0.2-0.3,0.4-0.4,0.6
		c-0.4,0.4-0.9,0.7-1.5,0.7c-0.5,0-1-0.1-1.5-0.3c-0.5-0.2-1-0.6-1.3-1l0.1-0.2c0.2,0.1,0.4,0.2,0.6,0.3c0.2,0.1,0.4,0.1,0.6,0.2
		c0.2,0,0.3,0,0.5-0.1c0.1-0.1,0.2-0.1,0.3-0.2c0.2-0.2,0.3-0.5,0.3-0.8V376c-0.5-0.4-0.9-0.8-1.3-1.3c-0.3-0.5-0.6-1-0.9-1.5
		c-0.2,0.5-0.5,1-0.8,1.5c-0.3,0.5-0.7,0.9-1.2,1.3v3.3h-2.5v-12.5h2.5v0.8c0.1-0.2,0.2-0.3,0.4-0.5c0.2-0.1,0.3-0.3,0.5-0.3v-1.5
		c0-0.2-0.1-0.4-0.2-0.5c-0.2-0.1-0.3-0.2-0.5-0.2h-1.4v-1h3.1c0.2,0,0.4,0,0.6,0.1s0.3,0.2,0.5,0.4c0.2,0.3,0.4,0.6,0.4,0.9v1.8
		h1.4c0.3,0,0.6,0.1,0.9,0.2c0.3,0.1,0.5,0.3,0.6,0.5c0.3,0.4,0.5,0.8,0.5,1.3v8.6C-429.1,377.8-429.2,378.1-429.3,378.3z
		 M-434.8,367.9h-0.9v7.2c0.2-0.6,0.4-1.2,0.6-1.8c0.2-0.6,0.3-1.2,0.3-1.9L-434.8,367.9L-434.8,367.9z M-431.6,368.8
		c0-0.1,0-0.2-0.1-0.3c0-0.1-0.1-0.2-0.2-0.3c-0.2-0.2-0.4-0.3-0.6-0.3v2c0,0.9,0.1,1.8,0.2,2.6c0.1,0.8,0.4,1.7,0.7,2.5V368.8
		L-431.6,368.8z"/>
	<path d="M-420.2,379.4v-0.9c-0.3-0.2-0.5-0.5-0.7-0.8c-0.1-0.2-0.2-0.5-0.3-0.8c0-0.3-0.1-0.5-0.1-0.8c0-0.5,0-1-0.1-1.5
		c0-0.5,0-1,0-1.5c0-0.2-0.1-0.4-0.2-0.5c-0.1-0.1-0.3-0.2-0.4-0.3v7h-2.7v-6.6c-0.2,0.1-0.4,0.2-0.6,0.4c0,0.6,0,1.1,0,1.6
		c-0.1,0.5-0.2,1.1-0.3,1.6c-0.1,0.5-0.3,1-0.6,1.4c-0.3,0.5-0.6,0.8-1,1.2l-0.1-0.1c0.2-0.4,0.3-0.9,0.4-1.5
		c0.1-0.5,0.1-1.1,0.1-1.5v-4.4h1.6v0.7c0.2-0.1,0.4-0.2,0.6-0.3v-1.6h-2.3v-1h2.3v-0.6c-0.2-0.1-0.5-0.2-0.7-0.3s-0.4-0.3-0.6-0.4
		c-0.2-0.2-0.3-0.3-0.4-0.5s-0.2-0.4-0.2-0.6c-0.1-0.4-0.1-0.8-0.1-1.2c0-0.4,0-0.9,0-1.3h1.7c0,0.5,0,1.1,0,1.6s0,1,0.1,1.5
		c0,0.4,0.2,0.7,0.4,1v-4.9h2.7v4.9c0.1-0.2,0.2-0.4,0.3-0.7c0.1-0.3,0.1-0.5,0.1-0.8c0-0.5,0-0.9,0-1.4c0-0.4,0-0.9,0-1.3h1.7
		c0,0.4,0,0.8,0,1.2s0,0.8-0.1,1.2c-0.1,0.3-0.2,0.5-0.3,0.7s-0.3,0.4-0.4,0.5c-0.2,0.2-0.4,0.3-0.6,0.4c-0.2,0.1-0.5,0.2-0.7,0.3
		v0.7h2.1v1h-2.1v1.2c0.3,0,0.6,0.1,0.9,0.2c0.3,0.1,0.5,0.3,0.7,0.5c0.4,0.3,0.5,0.8,0.5,1.3s0,1.1,0,1.6c0,0.6,0,1.1,0,1.6
		c0,0.3,0,0.6,0.1,0.9c0,0.3,0.1,0.6,0.2,0.7h0.3v-14.7h2.8v0.8c0.1-0.2,0.2-0.4,0.5-0.6c0.2-0.2,0.4-0.3,0.7-0.3h2.1
		c0.5,0,0.9,0.1,1.2,0.4c0.3,0.3,0.5,0.7,0.5,1.2v13.1h0.6v1h-9.6V379.4z M-414.2,365.4c0-0.2-0.1-0.3-0.2-0.5
		c-0.1-0.2-0.3-0.2-0.5-0.2h-1.6v3.9h2.3V365.4z M-414.2,369.5h-2.3v3.8h2.3V369.5z M-414.2,374.3h-2.3v4h2.3V374.3z"/>
	<path d="M-405.7,373.5c0,0.6-0.1,1.2-0.2,1.8c0,0.4-0.2,0.8-0.3,1.2c-0.2,0.4-0.4,0.7-0.7,1c-0.3,0.4-0.7,0.7-1.1,1
		c-0.4,0.3-0.9,0.4-1.4,0.5l-0.1-0.1c0.4-0.5,0.7-1.1,0.9-1.6c0.2-0.6,0.3-1.2,0.3-1.8c0-0.6,0-1.2,0-1.9c0-0.7,0-1.4,0-2h2.5
		C-405.6,372.3-405.6,372.9-405.7,373.5z M-402.4,370.6v7.1c0,0.4-0.1,0.7-0.3,1s-0.4,0.5-0.7,0.6c-0.3,0.2-0.6,0.2-0.9,0.3
		c-0.3,0-0.7,0-1-0.2c-0.3-0.1-0.6-0.3-0.8-0.6s-0.4-0.5-0.6-0.9l0.1-0.1c0.1,0.1,0.3,0.2,0.4,0.3c0.1,0.1,0.3,0.1,0.4,0.2
		c0.2,0,0.3,0,0.5-0.1s0.2-0.2,0.2-0.4v-7.2h-2.3c-0.4,0-0.8-0.1-1-0.4c-0.3-0.3-0.4-0.7-0.3-1.2l0.4-3.6h2.5l-0.5,3.9
		c0,0.1,0,0.1,0.1,0.2c0.1,0.1,0.1,0.1,0.2,0.1h0.9v-5h-3.9v-1h7.3v1h-0.8v5h0.8v1L-402.4,370.6L-402.4,370.6z M-397.5,379.4
		c-0.2,0-0.4-0.1-0.6-0.2c-0.2-0.2-0.4-0.3-0.5-0.6v0.8h-2.6v-10.5c-0.3,0.2-0.5,0.3-0.8,0.5l-0.1-0.1c0.2-0.4,0.4-0.8,0.6-1.3
		c0.2-0.5,0.3-1,0.4-1.5c0.1-0.5,0.2-1,0.2-1.6c0-0.5,0.1-1,0.1-1.5h2.8c-0.1,0.5-0.2,1-0.4,1.4c-0.1,0.5-0.3,0.9-0.6,1.3h2.3
		c-0.6-0.8-1-1.8-1.1-2.8h2.7c0,0.5,0.1,1,0.2,1.4c0.1,0.4,0.3,0.9,0.4,1.3h1.5v1h-2v2.9h1.6v1h-1.6v3h1.6v1h-1.6v3.3h2.1v1h-4.6
		V379.4z M-397.5,367.3h-1.1v2.9h1.1V367.3z M-397.5,371.2h-1.1v3h1.1V371.2z M-397.5,375.1h-1.1v3.3h1.1V375.1z"/>
	<path d="M-378.4,365.4v0.8h1c0.6,0,1.1,0.2,1.5,0.5c0.4,0.3,0.5,0.8,0.5,1.4v10c0,0.5-0.1,0.8-0.4,1.1c-0.3,0.3-0.6,0.4-1.1,0.4
		c-0.3,0-0.6-0.1-0.9-0.2c-0.3-0.1-0.5-0.3-0.7-0.6c-0.3,0-0.5,0-0.8,0c-0.2,0-0.3-0.1-0.5-0.1c-0.1,0-0.3-0.1-0.4-0.2
		c-0.1-0.1-0.3-0.3-0.4-0.5c-0.1-0.2-0.2-0.4-0.3-0.6c-0.1-0.1-0.2-0.2-0.3-0.3c-0.1-0.1-0.3-0.1-0.5-0.1v2.3h-2.6v-2.1
		c-0.1,0-0.3,0-0.4,0.1c-0.1,0.1-0.3,0.1-0.4,0.2c-0.2,0.6-0.6,1-1,1.2c-0.5,0.3-1.1,0.4-1.8,0.4v0.3h-2.6v-13.2h2.6v0.7
		c0.1-0.2,0.2-0.4,0.3-0.5v-1h-3.4v-1h3.4v-0.9h2.9v0.9h3.3v-0.9h2.9v0.9h3.5v1L-378.4,365.4L-378.4,365.4z M-386,367.3
		c-0.1-0.1-0.2-0.2-0.4-0.2h-1.5v0.5h2C-385.8,367.6-385.9,367.4-386,367.3z M-385.8,368.6h-2v0.7h1.4c0.1,0,0.3,0,0.4-0.1
		c0.1-0.1,0.2-0.2,0.2-0.3L-385.8,368.6L-385.8,368.6z M-384.2,376h-0.2c-0.2,0-0.4-0.1-0.6-0.2c-0.2-0.2-0.3-0.3-0.3-0.6v0.8h-1.9
		v-3.6h1.9v0.8c0.1-0.2,0.2-0.4,0.4-0.6c0.2-0.1,0.4-0.2,0.7-0.2v-0.6h-3.2v-1h3.2v-0.5h-2.6c-0.2,0-0.5-0.1-0.6-0.2
		c-0.1-0.1-0.3-0.3-0.4-0.6v9.3c0.2-0.1,0.4-0.2,0.5-0.4c0.1-0.2,0.2-0.4,0.3-0.6c0.1-0.4,0.1-0.9,0.1-1.4h2.1c0,0.1,0,0.1,0,0.2
		c0,0.1,0,0.2,0,0.2c0.1,0,0.2-0.1,0.3-0.1c0.1,0,0.2-0.1,0.4-0.1L-384.2,376L-384.2,376z M-383.9,375c-0.2,0-0.4,0-0.5-0.1
		c-0.2,0-0.3-0.1-0.4-0.2c-0.2-0.2-0.3-0.5-0.4-1h1c0,0.2,0,0.3,0.1,0.5c0.1,0.2,0.1,0.3,0.3,0.4v-1.3h-1.5v1.7H-383.9L-383.9,375z
		 M-381.3,365.4h-3.3v0.8c0.2,0,0.4,0,0.5,0.1c0.1,0.1,0.3,0.2,0.4,0.3c0.1,0.1,0.2,0.2,0.3,0.4s0.1,0.3,0.1,0.5v1.5
		c0,0.4-0.2,0.7-0.5,1h1.3v-3.8h1.2V365.4z M-380.4,373.8c0-0.1-0.1-0.2-0.2-0.3s-0.2-0.2-0.4-0.2h-1v1.1c0.1-0.1,0.2-0.2,0.2-0.3
		s0.1-0.3,0.1-0.5h1.1c0,0.3-0.2,0.6-0.5,0.9c-0.3,0.2-0.6,0.4-1,0.4v0.1h1c0.2,0,0.3,0,0.4-0.1c0.1-0.1,0.1-0.2,0.1-0.4v-0.7
		H-380.4z M-378,370.3h-1c-0.3,0-0.5-0.1-0.6-0.2c-0.2-0.1-0.3-0.3-0.4-0.6v0.8h-1.7v0.5h3.3v1h-3.3v0.6h1.6c0.2,0,0.4,0,0.6,0.1
		c0.2,0.1,0.3,0.1,0.5,0.2c0.3,0.2,0.4,0.6,0.4,1v1.1c0,0.3-0.1,0.6-0.3,0.8c-0.2,0.2-0.5,0.4-0.9,0.4h-1.9v0.4c0.2,0,0.4,0,0.7,0
		c0.2,0,0.5,0,0.7,0c0.2,0,0.3,0.1,0.5,0.1c0.2,0,0.3,0.1,0.5,0.2c0.1,0.1,0.2,0.2,0.4,0.3c0.1,0.1,0.2,0.3,0.2,0.4
		c0,0.1,0.1,0.3,0.1,0.5c0,0.2,0.1,0.3,0.2,0.4c0.1,0.1,0.2,0.1,0.3,0.1s0.2-0.1,0.2-0.2L-378,370.3L-378,370.3z M-378.2,367.3
		c-0.1-0.1-0.2-0.2-0.4-0.2h-1.4v0.5h2C-378,367.6-378.1,367.4-378.2,367.3z M-378,368.6h-2v0.7h2V368.6z"/>
	<path d="M-364.9,368.9l-0.1,0.9c0,0.4-0.2,0.7-0.4,0.9c-0.2,0.2-0.6,0.3-1,0.3h-4.5c-0.2,0-0.4,0-0.6-0.1c-0.2-0.1-0.3-0.2-0.5-0.4
		c-0.2-0.3-0.3-0.6-0.3-1l0.1-0.6h-0.8v-1h0.9l0.2-1.7c-0.2,0.1-0.5,0.1-0.7,0.2c-0.2,0.1-0.5,0.1-0.8,0.1l-0.1-0.1
		c0.5-0.4,0.8-0.8,1.2-1.3c0.3-0.5,0.6-1,0.8-1.5h2.8c-0.1,0.1-0.1,0.2-0.2,0.4c-0.1,0.2-0.2,0.3-0.2,0.4h4.8v1h-5.8
		c-0.1,0.1-0.3,0.3-0.5,0.4c-0.2,0.1-0.3,0.2-0.5,0.3h1.5l-0.1,0.7c0.1-0.3,0.3-0.4,0.5-0.5c0.2-0.1,0.5-0.2,0.7-0.2h2.1
		c0.4,0,0.8,0.1,1.1,0.4c0.1,0.1,0.2,0.3,0.3,0.4c0.1,0.1,0.1,0.4,0.1,0.6v0.6h0.6v1h-0.6V368.9z M-357.2,379.3
		c-0.3,0.1-0.6,0.1-0.8,0.2c-0.4,0-0.9,0-1.3-0.2c-0.2-0.1-0.3-0.1-0.5-0.2c-0.1-0.1-0.3-0.2-0.4-0.3c-0.1-0.2-0.3-0.3-0.4-0.5
		c-0.1-0.2-0.3-0.3-0.4-0.5c-0.1-0.2-0.3-0.3-0.5-0.4c-0.2-0.1-0.4-0.2-0.6-0.3c-0.1,0-0.2,0-0.3-0.1c-0.1,0-0.3,0-0.4,0
		c-0.1,0-0.3,0-0.4,0c-0.1,0-0.2,0-0.3,0v0.8c0,0.7-0.2,1.2-0.6,1.5c-0.2,0.2-0.5,0.3-0.7,0.3c-0.3,0.1-0.6,0.1-1,0
		c-0.5,0-0.9-0.2-1.3-0.5s-0.7-0.6-0.9-1.1l0.1-0.1c0.1,0.1,0.3,0.2,0.4,0.3c0.2,0.1,0.3,0.1,0.5,0.2c0.2,0,0.4,0,0.5-0.1
		c0.2-0.1,0.3-0.3,0.3-0.5V377c-0.4,0-0.8,0.1-1.3,0.2c-0.4,0.1-0.8,0.2-1.2,0.3c-0.2,0.3-0.4,0.6-0.7,0.8c-0.3,0.2-0.5,0.4-0.8,0.5
		c-0.4,0.2-0.9,0.3-1.4,0.4c-0.5,0.1-1,0.1-1.5,0.1l-0.1-0.1c0.4-0.2,0.7-0.5,0.9-0.7c0.2-0.2,0.5-0.5,0.6-0.7
		c0.1-0.2,0.3-0.5,0.4-0.8c0.1-0.3,0.2-0.6,0.3-1h2.7c0,0.1,0,0.2-0.1,0.3c0,0.1,0,0.2-0.1,0.3c0.3-0.1,0.7-0.1,1.1-0.2
		c0.4-0.1,0.7-0.1,1.1-0.2v-0.7h-5.3c-0.2,0-0.3-0.1-0.4-0.2c-0.1-0.1-0.1-0.2-0.1-0.4c0-0.1,0-0.3,0.1-0.4s0.1-0.2,0.3-0.3l3.1-1.1
		h-2.4c-0.2,0-0.3-0.1-0.4-0.2c-0.1-0.1-0.1-0.2-0.2-0.4c0-0.1,0-0.3,0.1-0.4s0.1-0.2,0.3-0.3l2.1-0.9h4.5l-2.6,1.1c0,0,0,0,0,0.1
		c0,0.1,0,0.1,0,0.1h0.9l2.6-0.9h5.1l-7.8,2.9v0.1c0,0,0,0.1,0.1,0.1h1.9c0.6,0,1.1,0,1.7-0.1c0.6,0,1.1-0.1,1.6-0.2
		c0-0.1-0.1-0.2-0.2-0.3c-0.1-0.1-0.1-0.2-0.2-0.4c-0.1-0.2-0.1-0.2-0.2-0.4c-0.1-0.1-0.1-0.2-0.1-0.3h2.9c0.1,0.4,0.3,0.7,0.5,1.1
		c0.2,0.4,0.4,0.7,0.6,0.9c0.1,0.1,0.3,0.2,0.5,0.3c0.2,0.1,0.4,0.1,0.5,0l0.1,0.1c-0.2,0.1-0.4,0.2-0.7,0.4
		c-0.2,0.1-0.5,0.2-0.8,0.2c-0.4,0.1-0.9,0-1.2-0.1s-0.5-0.2-0.6-0.3c-0.2-0.1-0.3-0.2-0.5-0.4c-0.5,0.1-0.9,0.2-1.4,0.3
		s-1,0.1-1.4,0.1v0.5c0.6,0,1.2,0,1.8,0s1.2,0.1,1.7,0.2c0.2,0,0.4,0.1,0.6,0.1c0.2,0.1,0.3,0.1,0.5,0.2c0.3,0.2,0.6,0.4,0.7,0.7
		c0.1,0.2,0.2,0.3,0.3,0.5c0.1,0.2,0.2,0.3,0.3,0.4c0.1,0.1,0.3,0.3,0.5,0.3c0.2,0.1,0.4,0.1,0.6,0.1l0.1,0.1
		C-356.6,379.1-356.9,379.2-357.2,379.3z M-370,368.9l-0.1,0.7c0,0.1,0,0.2,0.1,0.3c0.1,0.1,0.2,0.2,0.3,0.2h0.4
		c-0.1-0.1-0.2-0.2-0.2-0.4c-0.1-0.1-0.1-0.3-0.1-0.4h1.8c0,0.1,0,0.3,0,0.4c0.1,0.2,0.1,0.3,0.2,0.4c0.1,0,0.2-0.1,0.3-0.1
		c0.1-0.1,0.1-0.2,0.1-0.3l0.1-0.7h-2.9V368.9z M-367.1,367c-0.1-0.1-0.2-0.2-0.4-0.2h-2.2l-0.1,1h0.7c-0.1-0.1-0.1-0.2-0.1-0.4
		c0-0.1,0-0.2,0-0.4h1.6c0,0.1,0,0.3,0,0.4c0,0.1,0.1,0.2,0.1,0.3h0.6v-0.5C-367,367.2-367,367.1-367.1,367z M-356.4,371.2
		c-1.6-0.1-3.1-0.5-4.4-1.2c-0.7,0.4-1.4,0.6-2.1,0.8c-0.7,0.2-1.5,0.3-2.3,0.3v-0.2c0.5-0.3,1-0.5,1.5-0.8s1-0.7,1.4-1.1
		c-0.3-0.3-0.5-0.6-0.8-0.8c-0.2-0.3-0.5-0.6-0.7-0.9c-0.1,0-0.2,0.1-0.3,0.1s-0.2,0.1-0.3,0.1l-0.1-0.1c0.4-0.6,0.7-1.2,0.8-1.9
		c0.2-0.7,0.3-1.4,0.4-2.1h2.6c-0.1,0.2-0.1,0.4-0.2,0.6c-0.1,0.2-0.1,0.4-0.2,0.5h3.9v1h-0.8c-0.2,0.6-0.4,1.2-0.6,1.7
		s-0.6,1.1-1,1.6c0.4,0.4,0.9,0.8,1.5,1.2c0.5,0.4,1.1,0.7,1.6,0.9L-356.4,371.2z M-361.6,365.6c-0.2,0.2-0.3,0.3-0.5,0.5
		c-0.2,0.2-0.3,0.3-0.4,0.4h1.1c0.1,0.3,0.3,0.5,0.5,0.7c0.1-0.3,0.2-0.5,0.4-0.8c0.1-0.3,0.2-0.6,0.3-0.8L-361.6,365.6
		L-361.6,365.6z"/>
	<path d="M-348.9,371.2c0.2,0.2,0.3,0.3,0.4,0.6c0.1,0.3,0.1,0.5,0.1,0.8v5.4c0,0.2,0,0.4-0.1,0.6c-0.1,0.2-0.2,0.4-0.4,0.5
		c-0.3,0.3-0.7,0.5-1.1,0.5c-0.4,0-0.7-0.1-1.1-0.3c-0.3-0.2-0.6-0.5-0.8-0.9l0.1-0.1c0.2,0.2,0.4,0.3,0.5,0.3s0.2,0,0.3-0.1
		c0.1-0.1,0.2-0.2,0.2-0.3v-1.5h-1.3v2.6h-2.4v-8.1h-0.5v-2.8h0.5v-4.8h1.9v0.8c0.1-0.2,0.2-0.4,0.4-0.6c0.2-0.1,0.4-0.2,0.6-0.2
		h1.6c0.2,0,0.4,0,0.6,0.1c0.2,0.1,0.4,0.2,0.5,0.4c0.3,0.3,0.4,0.7,0.4,1.1v3.6c0.1,0.1,0.2,0.3,0.3,0.5c0.1,0.2,0.1,0.5,0.1,0.6
		v1.2h-0.8V371.2z M-350.3,365.2c0-0.2-0.1-0.3-0.2-0.4c-0.1-0.1-0.2-0.2-0.4-0.2h-1.6v3.8h0.4v-2.6h1.2v0.6
		c0.1-0.2,0.1-0.3,0.3-0.4c0.1-0.1,0.2-0.2,0.3-0.2C-350.3,365.8-350.3,365.2-350.3,365.2z M-350.3,370c0-0.1,0-0.3-0.1-0.4
		c-0.1-0.1-0.2-0.2-0.3-0.2h-1.6v1.3h0.4v0.8c0.1-0.3,0.2-0.5,0.4-0.6c0.2-0.1,0.4-0.2,0.6-0.2h0.7V370H-350.3z M-350.7,372.3
		c0-0.1,0-0.3-0.1-0.4c-0.1-0.1-0.2-0.2-0.4-0.2h-0.8v1.5h1.3V372.3z M-350.7,374.3h-1.3v1.4h1.3V374.3z M-350.3,366.9h-0.6v1.6h0.6
		V366.9z M-348.2,379.4v-1h2.2c-0.3-0.2-0.5-0.4-0.7-0.6c-0.2-0.3-0.3-0.6-0.4-0.9h2.4c0.1,0.3,0.2,0.5,0.3,0.8
		c0.1,0.3,0.3,0.5,0.5,0.7h0.8c0.2-0.2,0.4-0.5,0.5-0.7c0.1-0.2,0.2-0.5,0.2-0.8h2.7c-0.1,0.3-0.3,0.6-0.6,0.9
		c-0.3,0.3-0.6,0.5-0.9,0.6h2.2v1H-348.2z M-347.7,372.2v-1h8.8v1H-347.7z M-339.4,369.5c-0.1,0.2-0.2,0.3-0.3,0.5
		c-0.1,0.1-0.3,0.2-0.5,0.3c-0.2,0.1-0.4,0.1-0.6,0.1h-3.9c-0.2,0-0.4-0.1-0.6-0.2c-0.2-0.1-0.4-0.3-0.5-0.5v0.8h-2v-5.7h1.9v-1.2
		h2.1v1.2h0.6v-1.2h2v1.2h0.3c0.2,0,0.4,0,0.6,0.1s0.4,0.2,0.5,0.3c0.1,0.1,0.2,0.3,0.3,0.5c0.1,0.2,0.1,0.4,0.1,0.6v2.7
		C-339.2,369.1-339.3,369.3-339.4,369.5z M-339.9,376.1c-0.3,0.3-0.6,0.4-1.1,0.4h-2.9c-0.2,0-0.4-0.1-0.6-0.2
		c-0.2-0.1-0.4-0.3-0.4-0.6v0.8h-2.4V373h2.4v0.8c0.1-0.2,0.3-0.4,0.5-0.5c0.2-0.1,0.4-0.2,0.7-0.2h2.7c0.5,0,0.9,0.1,1.2,0.4
		c0.3,0.3,0.4,0.6,0.4,1v0.7C-339.5,375.6-339.6,375.9-339.9,376.1z M-345.2,365.7h-0.5v1.3h0.5V365.7z M-345.2,367.9h-0.5v1.4h0.5
		V367.9z M-341.9,374.4c0-0.1,0-0.2-0.1-0.3c-0.1-0.1-0.2-0.1-0.3-0.1h-2.6v1.6h2.6c0.1,0,0.2,0,0.3-0.1c0.1-0.1,0.1-0.2,0.1-0.3
		V374.4z M-343.1,365.7h-0.6v1.3h0.6V365.7z M-343.1,367.9h-0.6v1.5h0.6V367.9z M-341.2,366.2c0-0.1-0.1-0.2-0.2-0.3
		c-0.1-0.1-0.2-0.2-0.4-0.2v1.3h0.5v-0.8H-341.2z M-341.2,367.9h-0.5v1.4c0.1,0,0.3,0,0.4-0.1s0.2-0.2,0.2-0.4v-0.9H-341.2z"/>
</g>
<g class="st0">
	<path class="st1" d="M-446.4,322.3c-0.4,0-0.8,0-1.2-0.1c-0.3-0.1-0.8-0.2-1-0.4c-0.2-0.1-0.3-0.3-0.5-0.5
		c-0.2-0.2-0.3-0.4-0.3-0.7c-0.1-0.2-0.1-0.3-0.1-0.5c0-0.2-0.1-0.3-0.1-0.5c-0.1-0.2-0.2-0.3-0.3-0.4s-0.3-0.2-0.5-0.3v2
		c0,0.3-0.1,0.7-0.2,0.9c-0.1,0.2-0.3,0.4-0.5,0.7c-0.4,0.3-1,0.4-1.6,0.3c-0.4-0.1-0.8-0.2-1.1-0.5c-0.3-0.3-0.7-0.5-0.9-0.9
		c-0.3,0.3-0.8,0.5-1.1,0.8c-0.3,0.2-0.8,0.3-1.3,0.4l-0.1-0.1c0.1-0.2,0.3-0.3,0.4-0.5s0.2-0.4,0.2-0.7c-0.3-0.2-0.7-0.3-0.9-0.5
		c-0.2-0.1-0.4-0.3-0.5-0.5c-0.1-0.2-0.2-0.4-0.2-0.7s-0.1-0.5-0.1-1c0-1.6,0-3.1,0-4.8c0-0.1,0-0.3-0.1-0.4s-0.1-0.2-0.3-0.3v9.7
		h-2.4v-9.3c-0.1,0-0.1,0.1-0.2,0.1c-0.1,0-0.1,0.1-0.1,0.1v3.5c0,0.4,0,0.8-0.1,1.2c-0.1,0.4-0.1,0.8-0.2,1.2
		c-0.1,0.3-0.3,0.7-0.5,1s-0.5,0.5-1,0.8l-0.1-0.1c0.3-0.7,0.5-1.3,0.5-2c0.1-0.7,0.1-1.3,0.1-2.1v-5.2h1.3v0.7l0.1-0.1
		c0.1,0,0.1-0.1,0.2-0.1v-2h-1.7v-0.9h1.7v-2.6h2.4v2.6h1.7v1h-1.7v1.5c0.5,0.1,1,0.3,1.2,0.8c0.1,0.2,0.2,0.4,0.3,0.7
		c0.1,0.2,0.1,0.5,0.1,0.9s0,0.8,0,1.1s0,0.9,0,1.3c0,0.4,0,0.9,0,1.3c0,0.4,0,0.8,0,1.1s0,0.7,0.1,1c0,0.3,0.2,0.7,0.4,0.9
		c0.1-0.4,0.2-0.9,0.2-1.3s0-0.9,0-1.4h2.4c0,0.1,0,0.2,0,0.3c0,0.1,0,0.2,0,0.3c0.1-0.1,0.2-0.1,0.4-0.2s0.3-0.1,0.4-0.2v-1h-3.7
		v-1h10v1h-3.6v0.5c0.3,0,0.7,0,0.9,0.1c0.3,0,0.5,0.1,0.9,0.2c0.3,0.1,0.7,0.3,0.9,0.5c0.2,0.3,0.4,0.7,0.5,1.2
		c0,0.2,0.1,0.3,0.1,0.5s0.1,0.3,0.1,0.5c0.1,0.3,0.1,0.5,0.3,0.8c0.1,0.2,0.3,0.3,0.5,0.4L-446.4,322.3z M-449.7,307.9v1.2h1
		c0.4,0,0.9,0.1,1.1,0.4c0.3,0.2,0.4,0.7,0.4,1.1v1.3c0,0.5-0.1,0.9-0.4,1.1s-0.8,0.4-1.2,0.4h-4.4c-0.3,0-0.5-0.1-0.7-0.2
		c-0.2-0.1-0.3-0.2-0.5-0.4v0.7h-2.1v-4.2h2.1v0.5c0-0.1,0.1-0.1,0.2-0.2c0.1-0.1,0.1-0.2,0.2-0.2v-1.4h-2.8v-1h10.1v1L-449.7,307.9
		L-449.7,307.9z M-456.3,315.3v-1h8.7v1H-456.3z M-453.2,319.2c-0.3,0.1-0.7,0.2-1,0.4c0,0.2-0.1,0.5-0.2,0.8
		c-0.1,0.2-0.2,0.4-0.4,0.7c0.1,0.1,0.3,0.1,0.4,0.2c0.1,0.1,0.3,0.1,0.4,0.1c0.2,0,0.3,0,0.4-0.1c0.1-0.1,0.2-0.2,0.2-0.4v-1.6
		H-453.2z M-454,310.1h-0.5v2.3h0.5V310.1z M-451.7,307.9h-0.5v1.2h0.5V307.9z M-451.7,310.1h-0.5v2.3h0.5V310.1z M-449.3,310.5
		c0-0.1,0-0.2-0.1-0.3c-0.1-0.1-0.2-0.1-0.3-0.1h-0.1v2.3h0.3c0.1,0,0.2,0,0.2-0.1c0.1-0.1,0.1-0.2,0.1-0.2v-1.5H-449.3z"/>
	<path class="st1" d="M-438.8,322.5c-0.3,0-0.7,0-1.1-0.1c-0.4-0.1-0.7-0.2-1.1-0.3c-0.7-0.3-1.2-0.7-1.6-1.2
		c-0.3,0.5-0.7,1-1.1,1.2c-0.3,0.2-0.7,0.3-1,0.4c-0.3,0.1-0.8,0.2-1.2,0.2v-0.1c0.3-0.2,0.4-0.5,0.7-0.9c0.1-0.3,0.2-0.7,0.2-1
		s0.1-0.7,0.1-1.1s0-0.8,0-1.2c0-0.4,0-0.8,0-1.2s0-0.8,0-1.1h2.5c0,0.5,0,1.1,0,1.6s0,1.1,0,1.6c0.1,0.2,0.3,0.4,0.7,0.8v-4.8h-3.5
		v-1h7.9v1h-2v2h1.8v1h-1.8v3h9.9v1h-9.4V322.5z M-437.7,312.7c-0.1,0.2-0.2,0.3-0.3,0.4c-0.1,0.1-0.3,0.2-0.4,0.3
		c-0.2,0.1-0.3,0.1-0.5,0.1h-2c-0.2,0-0.4-0.1-0.7-0.2c-0.2-0.1-0.3-0.3-0.4-0.5v0.9h-2.5V307h2.5v0.9c0.1-0.2,0.2-0.4,0.4-0.5
		s0.4-0.2,0.5-0.2h1.6c0.5,0,1,0.2,1.3,0.5c0.3,0.3,0.4,0.7,0.4,1.1v3.6C-437.5,312.2-437.6,312.5-437.7,312.7z M-440,308.4
		c0-0.1-0.1-0.2-0.2-0.3s-0.2-0.2-0.4-0.2h-1.4v1.7h2v-1.2H-440z M-440,310.6h-2v1.8h1.4c0.1,0,0.2-0.1,0.4-0.2
		c0.1-0.1,0.2-0.2,0.2-0.4v-1.2H-440z M-433.9,319.3c-0.2,0.3-0.4,0.5-0.7,0.9c-0.2,0.3-0.5,0.4-0.8,0.7c-0.2,0.2-0.7,0.2-1,0.3
		s-0.7,0.1-1,0.1c-0.3,0-0.7,0-1,0v-0.1c0.3-0.1,0.5-0.2,0.8-0.3s0.4-0.3,0.5-0.5c0.2-0.2,0.3-0.5,0.4-0.9c0.1-0.3,0.2-0.7,0.2-0.9
		h2.9C-433.6,318.6-433.7,319-433.9,319.3z M-431.8,307.9c-0.3,0.4-0.7,0.8-1.1,1c-0.4,0.3-0.9,0.5-1.3,0.8v0.8
		c0.1-0.2,0.3-0.4,0.4-0.5c0.2-0.1,0.4-0.2,0.7-0.2h2.1c0.4,0,0.9,0.1,1.2,0.4s0.4,0.7,0.4,1.1v5c0,0.2,0,0.4-0.1,0.5
		c-0.1,0.2-0.2,0.3-0.3,0.5c-0.1,0.1-0.3,0.2-0.4,0.3c-0.2,0.1-0.3,0.1-0.5,0.1h-2.1c-0.2,0-0.4-0.1-0.7-0.2
		c-0.2-0.1-0.3-0.3-0.4-0.7v0.9h-2.5v-8.1h1.7c0.1-0.3,0.1-0.5,0.2-0.9c0-0.3,0.1-0.5,0.1-0.9h-2.5v-1h7.9v1h-2.8V307.9z
		 M-432.1,311.2c0-0.1-0.1-0.2-0.2-0.3c-0.1-0.1-0.2-0.1-0.4-0.1h-1.5v1.3h2.2V311.2L-432.1,311.2z M-432.1,313h-2.2v1.3h2.2V313z
		 M-432.1,315.3h-2.2v1.5h1.6c0.1,0,0.2-0.1,0.3-0.2c0.1-0.1,0.1-0.2,0.1-0.3v-1H-432.1z M-429.1,321c-0.3,0-0.5,0-0.9,0
		s-0.5,0-0.8-0.1c-0.3-0.1-0.5-0.1-0.8-0.3s-0.4-0.3-0.7-0.7s-0.3-0.5-0.4-0.9c-0.1-0.3-0.2-0.7-0.3-1h2.6c0,0.3,0.1,0.5,0.1,0.9
		c0.1,0.3,0.1,0.5,0.3,0.8c0.2,0.3,0.4,0.7,0.9,0.9L-429.1,321z"/>
</g>
</svg>
