<?xml version="1.0" encoding="utf-8"?>
<!-- Generator: Adobe Illustrator 20.0.0, SVG Export Plug-In . SVG Version: 6.00 Build 0)  -->
<svg version="1.1" id="圖層_4" xmlns="http://www.w3.org/2000/svg" xmlns:xlink="http://www.w3.org/1999/xlink" x="0px" y="0px"
	 viewBox="0 0 415.5 220" style="enable-background:new 0 0 415.5 220;" xml:space="preserve">
<style type="text/css">
	.st0{fill:#F40000;}
</style>
<g>
	<g>
		<path class="st0" d="M283.1,164c2.4-0.3,4.5,0.2,6.4,1.7c1.9,1.4,3,3.4,3.4,5.7l3.1,22.2c0.1,0.7,0.3,1.2,0.7,1.7
			c4.8,5,12.4,7.1,22.8,6.2c4.4-0.4,9.2-1,14.2-1.6c8.4-1.2,17.5-2.7,27.5-4.6c0.1,0,0.2,0,0.3,0c1.3-0.2,2.5,0.2,3.4,1.2
			c0.7,0.6,1.1,1.4,1.2,2.4c0.1,0.5,0.1,0.9,0,1.4c-0.3,1.9-1.1,3.6-2.4,5c-1.3,1.4-2.8,2.2-4.6,2.6c-7.5,1.3-14.6,2.4-21.1,3.3
			c-6.1,0.8-11.8,1.5-16.9,2c-6.2,0.6-11.5,0.4-15.9-0.7c-4.4-1-8.5-3.1-12.1-6.1c-0.5-0.5-1-0.4-1.4,0.1c-2.7,3.1-5,5.8-7.1,8.1
			c-0.9,1-1.9,1.6-3.2,1.7c-0.4,0.1-0.8,0.1-1.3,0.1c-1.8-0.2-3.2-1-4.2-2.5c-0.7-1-1.1-2.1-1.3-3.3c-0.1-0.7-0.1-1.4,0.1-2.1
			c0.3-2,1.1-3.6,2.6-5c2.2-2,4.4-4,6.4-6c0.5-0.5,0.7-1,0.6-1.7l-2.7-19.4c-0.1-0.7-0.5-0.9-1.1-0.9l-5.2,0.7
			c-1.5,0.2-2.9-0.2-4.1-1.1c-1.2-0.9-2-2.2-2.2-3.7c-0.2-1.5,0.2-2.9,1.1-4.1c0.9-1.2,2.2-2,3.7-2.2L283.1,164z M355.9,163.9
			l-18,2.5c-0.2,0-0.3,0.2-0.5,0.4c-0.1,0.2-0.1,0.4,0,0.6c5,7.2,11.8,11.9,20.6,14.3c1.4,0.3,2.4,1.2,3,2.5
			c0.2,0.4,0.3,0.9,0.4,1.3c0.1,0.9-0.1,1.8-0.5,2.7c-0.9,1.7-2.1,2.9-3.7,3.7c-0.8,0.4-1.5,0.6-2.2,0.7c-0.9,0.1-1.9,0.1-2.8-0.2
			c-8.3-2.7-15.2-7.7-20.7-15.1c-0.1-0.2-0.3-0.3-0.5-0.2c-0.2,0-0.4,0.2-0.5,0.4c-3,7.5-8.4,14-16.2,19.7c-1,0.7-2,1.1-3.1,1.2
			c-0.5,0.1-1.1,0.1-1.7,0c-1.7-0.2-3.3-0.9-4.6-2.1c-0.8-0.7-1.3-1.5-1.5-2.5c0-0.3,0-0.5,0-0.8c0.1-1.4,0.7-2.4,1.8-3.2
			c8.8-5.6,13.9-12.3,15.3-19.9c0-0.3,0-0.5-0.2-0.7c-0.2-0.2-0.4-0.3-0.6-0.2l-17,2.3c-1.5,0.2-2.9-0.1-4-1.1
			c-1.2-0.9-1.9-2.1-2.1-3.5s0.1-2.8,1-4c0.9-1.2,2.1-1.9,3.6-2.1l18.2-2.5c0.7-0.1,0.9-0.5,0.9-1.1L319,149
			c-0.1-0.7-0.5-0.9-1.1-0.9l-14.8,2c-1.5,0.2-2.8-0.1-4-1c-1.2-0.9-1.9-2-2.1-3.5s0.2-2.8,1.1-3.9c0.9-1.2,2.1-1.9,3.5-2.1l3.9-0.5
			c0.2,0,0.4-0.2,0.5-0.4c0.1-0.2,0.1-0.4,0-0.6c-1.3-2.4-3.1-4.9-5.2-7.5c-0.6-0.7-1-1.5-1.1-2.4c-0.1-0.5-0.1-0.9,0-1.4
			c0.2-1.4,0.9-2.5,2.2-3.2c0.8-0.5,1.7-0.8,2.7-1c0.6-0.1,1.2-0.1,1.8,0.1c1.6,0.2,3,0.9,4,2.1c1.8,2,3.4,3.9,4.6,5.9
			c0.4,0.6,0.7,1.3,0.8,2c0.1,0.6,0,1.2-0.1,1.8c-0.3,1.4-1.1,2.5-2.4,3.2c-0.1,0.1,0,0.2,0,0.3l20.7-2.8c0-0.1,0-0.2,0-0.2
			c-1-0.3-1.8-0.9-2.3-1.8c-0.5-1-0.5-2-0.1-3.1c0.9-2.3,1.7-4.7,2.5-7.2c0.6-1.8,1.6-3.1,3.2-4.1c0.9-0.6,1.8-1,2.8-1.1
			c0.7-0.1,1.5-0.1,2.2,0.1c1.6,0.3,2.7,1.2,3.5,2.6c0.3,0.6,0.5,1.1,0.5,1.6c0.1,0.9,0,1.8-0.4,2.8c-1.7,3.4-3.1,6.2-4.3,8.4
			c-0.1,0.1-0.1,0.3,0,0.5c0.1,0.2,0.3,0.3,0.5,0.2l6.3-0.9c1.5-0.2,2.8,0.1,3.9,1c1.2,0.9,1.8,2,2,3.5s-0.1,2.8-1,3.9
			c-0.9,1.2-2,1.8-3.5,2l-17.9,2.5c-0.7,0.1-0.9,0.5-0.9,1.1l1.1,7.9c0.1,0.7,0.5,0.9,1.1,0.9l21.2-2.9c1.4-0.2,2.8,0.2,4,1.1
			c1.2,0.9,1.9,2.1,2.1,3.5s-0.2,2.8-1.1,4S357.3,163.7,355.9,163.9z M273.1,156c-3.6-3.3-3.9-8.8-0.7-12.5s8.8-3.9,12.5-0.7
			s3.9,8.8,0.7,12.5C282.3,159,276.7,159.3,273.1,156z"/>
		<g>
			<path class="st0" d="M172.1,192.2c-0.1,0-0.2,0-0.3,0c-1.3,0-2.4-0.4-3.3-1.3c-1.2-1-1.8-2.2-1.8-3.7c0-1.3,0.4-2.4,1.3-3.3
				c0.9-1,2.1-1.6,3.5-1.6c1.4-0.1,5.3-0.2,11.8-0.5c0.6,0,1-0.3,1-1l0-2.8c0-0.6-0.3-1-1-1l-9.9,0.1c-1.2,0-2.3-0.4-3.2-1.3
				c-0.9-0.9-1.3-1.9-1.3-3.2c0-1.3,0.4-2.3,1.3-3.2c0.9-0.9,1.9-1.3,3.2-1.3l9.9-0.1c0.6,0,1-0.3,1-1l0-2.2c0-0.6-0.3-1-1-1l-5.8,0
				c-2.3,0-4.3-0.8-6-2.4c-1.7-1.6-2.5-3.6-2.5-6l-0.2-20.6c0-2.3,0.8-4.3,2.4-6c1.6-1.7,3.6-2.5,6-2.5l25.4-0.2
				c2.3,0,4.3,0.8,6,2.4c1.7,1.6,2.5,3.6,2.5,6l0.2,20.6c0,2.4-0.8,4.4-2.4,6c-1.6,1.6-3.6,2.5-6,2.5l-7.2,0.1c-0.6,0-1,0.3-1,1
				l0,2.2c0,0.6,0.3,1,1,1l10.6-0.1c1.2,0,2.3,0.4,3.2,1.3c0.9,0.9,1.3,1.9,1.3,3.2s-0.4,2.3-1.3,3.2c-0.9,0.9-1.9,1.3-3.2,1.3
				l-10.6,0.1c-0.6,0-1,0.3-1,1l0,2.4c0,0.3,0.1,0.5,0.3,0.6c0.2,0.2,0.4,0.2,0.7,0.2c1.2,0,2.4,0,3.8-0.1c1.4-0.1,2.9-0.2,4.5-0.2
				c1.6-0.1,2.9-0.2,3.8-0.2c0.1,0,0.1,0,0.2,0c1.2,0,2.3,0.4,3.1,1.2c0.8,0.8,1.3,1.9,1.3,3.1c0,1.4-0.4,2.5-1.3,3.5
				c-0.9,0.9-2,1.4-3.4,1.5C195,190.8,183.2,191.5,172.1,192.2z M177.7,139.7c-0.1-0.1-0.1-0.1-0.2-0.1c-0.1,0-0.1,0-0.1,0.1
				l0.1,15.4c0,0.6,0.3,1,1,1l6.2,0c0.6,0,1-0.3,1-1l-0.2-19.8c0-0.6-0.3-1-1-1l-6.2,0c-0.6,0-1,0.3-1,1l0,2.7
				c0,0.3,0.2,0.5,0.5,0.4c0.5-0.1,0.9-0.2,1.4-0.2c0.7,0,1.4,0.2,2,0.5c1.1,0.6,1.8,1.5,2.2,2.7c0.8,2.6,1.4,5,1.7,7.4
				c0.1,0.8,0,1.5-0.5,2.2c-0.4,0.7-1.1,1.1-1.8,1.3c-0.7,0.2-1.4,0.1-1.9-0.3c-0.6-0.4-0.9-1-1-1.7
				C179.4,146.7,178.7,143.2,177.7,139.7z M201.2,138.4c0.4,0.1,0.6,0,0.6-0.4l0-2.9c0-0.6-0.3-1-1-1l-7.2,0.1c-0.6,0-1,0.3-1,1
				l0.1,14.3c0,0.1,0.1,0.2,0.1,0.2c0.1,0,0.2,0,0.2-0.1c0.9-2.7,1.6-5.3,2.3-7.9c0.3-1.3,1.1-2.2,2.2-2.8c0.7-0.4,1.4-0.6,2.1-0.6
				C200.2,138.2,200.7,138.3,201.2,138.4z M192.8,155c0,0.6,0.3,1,1,1l7.2-0.1c0.6,0,1-0.3,1-1l-0.1-13.6c0-0.1-0.1-0.2-0.2-0.2
				c-0.1,0-0.2,0-0.2,0.1c-0.4,1-1,2.6-1.8,4.6c-0.7,2-1.2,3.2-1.3,3.5c-0.4,1-1.1,1.8-2.1,2.3c-0.5,0.2-1,0.3-1.6,0.3
				c-0.5,0-1-0.1-1.5-0.3c-0.3-0.1-0.5,0-0.5,0.3L192.8,155z M252.8,154.2l-12.9,0.1c-0.6,0-1,0.3-1,1l0.1,13.4c0,0.6,0.3,1,1,1
				l6.7-0.1c2.3,0,4.3,0.8,6,2.4c1.7,1.6,2.5,3.6,2.5,6l0.2,31.7c0,1.6-0.5,2.9-1.6,4c-1.1,1.1-2.4,1.7-3.9,1.7l-2.4,0
				c-0.9,0-1.7-0.3-2.3-0.9c-0.6-0.6-0.9-1.4-0.9-2.3c0-0.3-0.1-0.4-0.4-0.4L226,212c-0.3,0-0.5,0.1-0.5,0.4c0,1-0.3,1.9-1,2.6
				c-0.7,0.7-1.5,1.1-2.5,1.1l-1.8,0c-1.5,0-2.8-0.5-3.8-1.5c-1-1-1.6-2.3-1.6-3.8l-0.3-32.5c0-2.3,0.8-4.3,2.4-6
				c1.6-1.7,3.6-2.5,6-2.5l3.6,0c0.6,0,1-0.3,1-1l-0.3-40c0-1.6,0.5-3,1.6-4.1c1.1-1.1,2.4-1.7,4-1.7c1.6,0,3,0.5,4.1,1.6
				c1.1,1.1,1.7,2.5,1.7,4.1l0.1,13.7c0,0.6,0.3,1,1,1l12.9-0.1c1.5,0,2.8,0.5,3.9,1.6c1.1,1.1,1.6,2.3,1.6,3.8
				c0,1.5-0.5,2.8-1.6,3.9C255.6,153.7,254.3,154.2,252.8,154.2z M243.3,201.3c0.6,0,1-0.3,1-1l-0.1-18.9c0-0.6-0.3-1-1-1l-16.8,0.1
				c-0.6,0-1,0.3-1,1l0.1,18.9c0,0.6,0.3,1,1,1L243.3,201.3z"/>
			<g>
				<path class="st0" d="M160.9,207.2c4.4,6,10.5,10.4,18.2,10c3.5-0.2,6.8-1.4,9.5-3.5c3.6-2.8,6.3-9.4,12.1-6.2
					c6.2,3.4,11.7-6.1,5.5-9.6c-5.3-2.9-13-3.2-18.1,0.4c-2.2,1.5-3.3,4-5.2,5.7c-4.4,3.8-9.4,1.9-12.6-2.5
					C166.2,195.8,156.7,201.4,160.9,207.2L160.9,207.2z"/>
			</g>
		</g>
		<g>
			<g>
				<path class="st0" d="M114.4,132.4l24.2,0.5c1.3,0,2.4,0.5,3.3,1.4s1.3,2,1.3,3.3c0,1.3-0.5,2.4-1.4,3.2s-2,1.3-3.3,1.3
					l-25.9-0.5c-0.7,0-1,0.3-1,1l0,2.3c0,0.7,0.3,1,1,1l21.8,0.4c1.1,0,2,0.4,2.8,1.2c0.7,0.8,1.1,1.7,1.1,2.8c0,1.1-0.4,2-1.2,2.7
					c-0.8,0.7-1.7,1.1-2.8,1.1l-21.8-0.4c-0.7,0-1,0.3-1,1l0,2.2c0,0.7,0.3,1,1,1l21.8,0.4c1.1,0,2,0.4,2.8,1.2
					c0.7,0.8,1.1,1.7,1.1,2.8c0,1.1-0.4,2-1.2,2.7c-0.8,0.7-1.7,1.1-2.8,1.1l-21.8-0.4c-0.7,0-1,0.3-1,1l0,2.6c0,0.7,0.3,1,1,1
					l29,0.6c1.2,0,2.3,0.5,3.2,1.4c0.9,0.9,1.3,2,1.3,3.2c0,1.3-0.5,2.3-1.4,3.2s-2,1.3-3.2,1.3l-31.4-0.6c-0.7,0-1,0.3-1,1l0,1.9
					c0,0.7,0.3,1,1,1l33.7,0.6c1.3,0,2.4,0.5,3.4,1.5c0.9,1,1.4,2.1,1.4,3.4c0,1.3-0.5,2.4-1.5,3.4c-1,0.9-2.1,1.4-3.4,1.4
					l-23.8-0.5l-10.9,0c-0.2,0.1-0.1,5.8-0.1,6l-0.2,10.9c0,1.6-0.6,3-1.8,4.2c-1.2,1.1-2.6,1.7-4.2,1.6c-1.6,0-3-0.6-4.2-1.8
					c-1.1-1.2-1.7-2.6-1.6-4.2l0.3-17l-10.3-0.3L62,192c-1.3,0-2.4-0.5-3.4-1.5c-0.9-1-1.4-2.1-1.4-3.4c0-1.3,0.5-2.4,1.5-3.4
					c1-0.9,2.1-1.4,3.4-1.4l33.4,0.6c0.7,0,1-0.3,1-1l0-1.9c0-0.7-0.3-1-1-1l-18-0.3c-2.4,0-4.4-0.9-6-2.6c-1.6-1.7-2.4-3.7-2.4-6.1
					l0.3-17.9c0-0.1-0.1-0.2-0.2-0.3c-0.1-0.1-0.3-0.1-0.4,0c-0.3,0.3-0.6,0.6-0.9,0.8c-1.1,1-2.4,1.4-3.8,1.4c-0.1,0-0.3,0-0.5-0.1
					c-1.6-0.2-2.9-0.8-4.1-2c-1-1-1.5-2.2-1.5-3.7c0-1.5,0.6-2.7,1.7-3.6c6.6-5.3,12.1-11.4,16.6-18.4c1-1.6,2.4-2.8,4.1-3.6
					c1.2-0.5,2.4-0.7,3.7-0.7c0.5,0,1.1,0.1,1.6,0.1c1.5,0.4,2.5,1.2,3.1,2.6c0.3,0.6,0.5,1.2,0.5,1.8c0,0.8-0.3,1.5-0.7,2.3
					c-0.5,0.8-1.1,1.6-1.6,2.3c-0.1,0.2-0.1,0.4,0,0.5c0.1,0.2,0.2,0.3,0.4,0.3l12.3,0.2L114.4,132.4z M98.9,145.6c0.7,0,1-0.3,1-1
					l0-2.3c0-0.7-0.3-1-1-1l-16.9-0.3c-0.7,0-1,0.3-1,1l0,2.3c0,0.7,0.3,1,1,1L98.9,145.6z M98.7,157.7c0.7,0,1-0.3,1-1l0-2.2
					c0-0.7-0.3-1-1-1l-16.9-0.3c-0.7,0-1,0.3-1,1l0,2.2c0,0.7,0.3,1,1,1L98.7,157.7z M81.7,165.2c-0.7,0-1,0.3-1,1l0,2.6
					c0,0.7,0.3,1,1,1l16.9,0.3c0.7,0,1-0.3,1-1l0-2.6c0-0.7-0.3-1-1-1L81.7,165.2z"/>
				<g>
					<path class="st0" d="M83.1,187.6c-2.1,3.7-5.1,8.8-9,10.7c-3.6,1.8-8.8,1.4-12.7,1.2c-7.2-0.4-6.4,10.8,0.7,11.2
						c6.1,0.3,13.1,0.2,18.4-3c5.5-3.3,9.5-9.5,12.6-15C96.7,186.3,86.6,181.3,83.1,187.6L83.1,187.6z"/>
				</g>
				<g>
					<path class="st0" d="M111.4,192.5c2.9,5.7,6.6,12,11.9,15.7c5.5,3.8,13,4.1,19.5,4c7.2-0.1,6.5-11.2-0.7-11.2
						c-4.4,0-10.3,0.2-13.6-3c-3.3-3.1-5.7-7.7-7.8-11.7C117.4,179.9,108.1,186.2,111.4,192.5L111.4,192.5z"/>
				</g>
			</g>
			<path class="st0" d="M105.8,142.7l-0.2,0c-3.1-0.1-5.6-2.7-5.6-5.8l0.2-6.8c0.1-3.1,2.7-5.6,5.8-5.6l0.2,0
				c3.1,0.1,5.6,2.7,5.6,5.8l-0.2,6.8C111.6,140.3,109,142.8,105.8,142.7z"/>
		</g>
	</g>
	<g>
		
			<ellipse transform="matrix(0.9993 -3.732426e-02 3.732426e-02 0.9993 -3.4327 8.6621)" class="st0" cx="230.3" cy="96.3" rx="4.2" ry="4.2"/>
		<g>
			<path class="st0" d="M103.6,42.7"/>
		</g>
		<g>
			<path class="st0" d="M103.6,42.7"/>
		</g>
		<g>
			<path class="st0" d="M107.5,45.1"/>
		</g>
		<g>
			<g>
				<path class="st0" d="M198.9,94.5c-0.1,2-0.5,3.7-1,5c-0.7,1.6-2,2.9-3.9,3.8c-2.2,1.1-5.7,1.7-10.4,1.9c-0.1,0-0.2,0-0.3,0
					c-1.5,0-3-0.5-4.2-1.5c-1.4-1-2.3-2.4-2.8-4.1c-0.2-0.5-0.3-1-0.3-1.4c0-0.8,0.2-1.5,0.7-2.2c0.8-1.1,1.8-1.6,3.1-1.6h0.1
					c0.8,0,1.6,0,2.3,0c1.5,0,2.6,0,3.3-0.1c0.8,0,1.3-0.1,1.6-0.4 M187,93.9c0.3-0.3,0.4-0.7,0.4-1.4V53.3c0-0.6-0.3-1-1-1h-51.9
					c-0.6,0-1,0.3-1,1v46.4c0,1.6-0.6,3-1.7,4.2c-1.2,1.2-2.6,1.7-4.2,1.7c-1.6,0-3-0.6-4.2-1.7c-1.1-1.2-1.7-2.5-1.7-4.2v-50
					c0-2.3,0.8-4.3,2.5-5.9c1.6-1.6,3.6-2.5,5.9-2.5h22.9c0.6,0,1-0.3,1-1V19.3c0-1.7,0.6-3.1,1.7-4.2c1.2-1.2,2.6-1.7,4.2-1.7
					s3.1,0.6,4.3,1.7s1.7,2.6,1.7,4.2v21.1c0,0.6,0.3,1,1,1h23.5c2.3,0,4.3,0.8,5.9,2.5c1.6,1.6,2.5,3.6,2.5,5.9v43
					c0,0.6,0,1.2-0.1,1.8 M141.1,29.5c0.4,0.9,0.7,1.8,0.7,2.7c0,0.6-0.1,1.3-0.3,1.9c-0.6,1.5-1.6,2.7-3.2,3.5
					c-0.8,0.3-1.7,0.5-2.5,0.5c-0.7,0-1.4-0.1-2.1-0.4c-1.5-0.6-2.7-1.6-3.4-3.1c-1.7-3.3-3.7-6.6-5.9-9.9c-0.6-0.8-0.9-1.7-0.9-2.5
					c0-0.5,0.1-0.9,0.2-1.4c0.4-1.4,1.3-2.4,2.6-2.9c0.9-0.4,1.9-0.6,2.9-0.6c0.6,0,1.2,0.1,1.8,0.2c1.7,0.5,3,1.3,4,2.6
					C137.3,23.3,139.3,26.5,141.1,29.5z M142.1,81.6v-14c0-2.3,0.8-4.3,2.5-5.9c1.6-1.6,3.6-2.5,5.9-2.5h19.6c2.4,0,4.4,0.8,6,2.5
					c1.6,1.6,2.4,3.6,2.4,5.9v12.9c0,2.3-0.8,4.3-2.4,5.9c-1.6,1.6-3.6,2.5-6,2.5h-16.8h-11.2V81.6z M167.6,69.9c0-0.6-0.3-1-1-1
					h-13c-0.6,0-1,0.3-1,1v8.3c0,0.6,0.3,1,1,1h13c0.6,0,1-0.3,1-1V69.9z M185.1,20.6c0.8-1.5,2.1-2.7,3.7-3.4
					c0.9-0.4,1.8-0.6,2.7-0.6c0.7,0,1.4,0.1,2.2,0.4c1.5,0.5,2.5,1.5,3.1,3.1c0.2,0.6,0.3,1.2,0.3,1.7c0,0.9-0.2,1.8-0.7,2.6
					c-2.7,4.4-5.2,8.2-7.6,11.4c-0.9,1.3-2.1,2.2-3.7,2.6c-0.6,0.1-1.3,0.2-1.9,0.2c-0.9,0-1.8-0.2-2.6-0.5
					c-1.3-0.5-2.1-1.4-2.5-2.7c-0.1-0.5-0.2-0.9-0.2-1.4c0-0.8,0.3-1.6,0.8-2.3C180.9,28.2,183.1,24.4,185.1,20.6z"/>
				<g>
					<path class="st0" d="M52.6,58.1c-0.7,0.1-1,0.4-0.9,1.1L52,62c0.1,0.7,0.4,1,1.1,0.9l33.7-3.2c0.7-0.1,1-0.4,0.9-1.1l-0.3-2.9
						c-0.1-0.7-0.4-1-1.1-0.9L52.6,58.1z M53.4,76.8c0.1,0.7,0.4,1,1.1,0.9l33.7-3.2c0.7-0.1,1-0.4,0.9-1.1l-0.4-4.1
						c-0.1-0.7-0.4-1-1.1-0.9l-33.7,3.2c-0.7,0.1-1,0.4-0.9,1.1L53.4,76.8z M43.7,102.7l-4.5-47.1c0-0.2-0.1-0.4-0.3-0.5
						c-0.2-0.1-0.4-0.1-0.6,0.1c-1.6,1-0.7,0.4-1.9,1.2c-0.9,0.6-1.8,0.9-2.7,1c-0.7,0.1-1.3,0-2-0.2c-1.6-0.3-3-1.1-4.2-2.5
						c-0.7-0.9-1.1-1.8-1.2-2.8c0-0.4,0-0.8,0-1.2c0.2-1.5,1-2.6,2.3-3.3c5.9-3.5,9.2-6.1,14.6-10.7c4.9-4.3,9.3-8.6,12.5-12.7
						c0.4-0.5,0.9-1,2.1-0.7c0.4,0.1,2,1.7,4,3c1.9,1.2,2.4,1.3,4,2.1c0.3,0.2,0.7,0.4,0.7,0.8c0,0.2,0,0.4-0.1,0.5
						c-0.1,0.2-0.3,0.4-0.5,0.7C61.4,36,55,42.5,47.6,48.4c-0.1,0.1-0.1,0.2,0,0.3c0,0.1,0.1,0.2,0.3,0.2l13.7-1.3
						c0.5-0.1,0.8-0.3,0.7-0.9l-0.1-1.1c-0.2-1.7,0.3-3.2,1.4-4.5c1.1-1.3,2.5-2,4.2-2.2s3.2,0.3,4.5,1.4c1.3,1.1,2,2.5,2.2,4.2
						l0.1,1.1c0.1,0.5,0.3,0.8,0.9,0.7l14.2-1.4c0.1,0,5-0.9,6.9,0.2c2.4,1.3,2.5,4.3,2.5,4.5c0,0,2.8,29.6,2.8,29.7
						c0.1,0.7,0.2,1.4-0.1,2.1c-0.5,1.1-1.7,1.4-2.9,1.5l-21.5,2.1l-14.4,1.4l-7.7,0.7c-0.7,0.1-1,0.4-0.9,1.1l1.2,12.4
						c0,0.3,0.1,0.5,0.4,0.6c0.2,0.1,0.5,0.2,0.7,0.2c4.3-0.8,2.9-0.7,11.2-2.2c0,0,5-1.8,6.6,3.3c1.6,5.1-3.8,6.5-3.8,6.5
						s-14.4,3.5-21.5,4.9c-1.2,0.2-3.1-1.5-3.8-2.3c-1-1.1-1-1.2-1.2-3.7C43.9,104.7,43.8,102.9,43.7,102.7z"/>
					
						<ellipse transform="matrix(0.9955 -9.507859e-02 9.507859e-02 0.9955 -9.0768 9.1609)" class="st0" cx="91.6" cy="99.8" rx="9" ry="9"/>
					<path class="st0" d="M110.6,41.7L81.2,21.6c-0.1-4.6-3.9-8.4-7.3-11c-2.7-2.1-5.7-3.9-8.5-5.9c-0.8-0.5-1.6-1.1-2.4-1.6
						c-0.3-0.3-0.7-0.3-1.1-0.3c-0.4,0.1-0.7,0.3-1,0.6c-0.5,0.7-0.4,1.7,0.3,2.2L70,12c0.7,0.5,0.8,1.5,0.3,2.2l-0.2,0.3
						c-0.3,0.3-0.6,0.5-1,0.6c-0.4,0.1-0.8,0-1.1-0.3l-8.8-6.5C58.8,8,58.4,7.9,58,8c-0.4,0.1-0.7,0.3-1,0.6
						c-0.5,0.7-0.4,1.7,0.3,2.2l8.8,6.5c0.7,0.5,0.8,1.5,0.3,2.2L66,20.1c-0.3,0.3-0.6,0.5-1,0.6s-0.8,0-1.1-0.3L55,13.8
						c-0.3-0.3-0.7-0.3-1.1-0.3c-0.4,0.1-0.7,0.3-1,0.6c-0.5,0.7-0.4,1.7,0.3,2.2c4,3.3,8,7.1,12.6,9.5c2.2,1.1,4.6,1.8,7,2
						c1.2,0.1,4,0.1,4,0.1s2.3,1.8,3.3,2.6c4.2,3.3,8.5,6.7,12.7,10c2.2,1.7,9.6,7.6,11.7,9.3c1.1,0.8,2.5,1.1,3.7,0.9
						c1.3-0.2,2.4-0.9,3.3-2C113.3,46.5,112.8,43.4,110.6,41.7z"/>
				</g>
				<g>
					<g>
						<path class="st0" d="M270.3,15.2c2,1.8,3.3,4.1,4,6.4l3.6-0.1c0.2,0,0.3,0.1,0.4,0.3c0.1,0.2,0.1,0.4,0,0.5
							c-0.9,1.2-1.9,2.3-2.9,3.4c2.1,1.7,4.8,3.9,7.3,6c3.4-3.8,6.2-8,8.2-12.6c0.4-0.9,0.4-1.8,0-2.7c-0.4-0.9-1-1.6-1.9-2
							l-1.7-0.7c-0.6-0.2-2.8-0.3-3.1-0.2c-0.1,0-0.3,0-0.4,0l-15.4,0.3C269,14.1,269.7,14.6,270.3,15.2z"/>
						<path class="st0" d="M295.9,58.2c-0.4-1-1.2-1.6-2.4-1.9c-11.3-2.3-21.1-5.8-29.6-10.5c-0.1-0.1-0.2-0.2-0.2-0.4
							c0-0.2,0.1-0.4,0.3-0.4c3.1-1.3,7.2-3.8,8.6-4.7c0,0,0.1-0.1,0.1-0.1c-1.4-1.4-2-2-2.5-2.5c-0.5-0.6-1-1.1-2.7-2.7l-1.1-1
							c-0.5,0-1,0-1.5,0c-0.6,0.4-1.3,0.8-2,1.2c-2.1,1.1-4.4,2-6.8,2.9c-0.4,0.1-0.7,0.4-0.9,0.9s0,0.9,0.2,1.3
							c0.1,0.1,0.1,0.2-0.1,0.2l-0.7,0c-4.8,0.1-9.7,1.9-14.9,5.3c-7.9,5.4-17.6,9.8-29,13.1c-1,0.3-1.7,0.9-2.1,2
							c-0.2,0.5-0.3,0.9-0.3,1.3c0,0.6,0.2,1.2,0.5,1.7c0.8,1.2,1.8,2.1,3,2.5c0.7,0.4,1.5,0.6,2.2,0.5c0.5,0,1-0.1,1.5-0.3
							c2.5-0.8,5.3-1.8,8.3-3c0.2-0.1,0.4-0.1,0.6,0c0.2,0.2,0.3,0.3,0.3,0.5l0.5,27.4l0.3,4.9c0,0,3.7,4.1,4.6,4
							c7.3-0.8,14-1.4,23.3-2.5c1-0.1,1.9-0.5,2.6-1.4c0.7-0.8,1.1-1.8,1.1-2.9c0-0.3,0.1-0.3,0.4-0.2c7.3,4.4,14.1,6.5,26.3,7.9
							c0.3,0,0,0,0.3,0c1.2,0,2.8-0.4,3.7-3c0.9-2.6-0.4-4.5-2.8-5.1c-2.4-0.6-2.3-0.4-6.3-1.1c-0.2,0-0.3-0.1-0.3-0.2
							c0-0.2,0-0.3,0.2-0.4c3.1-1.9,4.7-3.3,7.2-5c0.9-0.7-5.2-5.7-5.2-5.9l-0.3-17.5c0-0.2,0.1-0.4,0.3-0.5
							c0.2-0.2,0.4-0.2,0.6-0.1c2.4,0.7,4.7,1.4,6.8,1.9c0.5,0.2,1.1,0.3,1.6,0.3c0.8,0,1.6-0.2,2.4-0.6c1.3-0.6,2.4-1.6,3.2-2.9
							c0.4-0.6,0.6-1.2,0.5-1.7C296.2,59.1,296.1,58.6,295.9,58.2z M245.6,52.8c2.1-1.5,3.9-2.8,5.4-4.2c0.5-0.4,1-0.4,1.5,0
							c1.6,1.2,3.6,2.5,6,3.9c0.1,0.1,0.2,0.2,0.2,0.3c0,0.1-0.1,0.2-0.2,0.2l-12.7,0.2c-0.1,0-0.2-0.1-0.2-0.2
							C245.4,52.9,245.5,52.8,245.6,52.8z M251.5,89.8c-1.3,0.2-3.5,0.4-6.6,0.7c-3.1,0.3-5.5,0.6-7.1,0.7c-0.3,0.1-0.5,0-0.7-0.2
							c-0.2-0.2-0.3-0.4-0.3-0.7l-0.1-3.9c0-0.6,0.3-1,0.9-1l9.5-0.2c0.6,0,1.2,0.2,1.6,0.6c1,1.1,2,2.2,3,3
							c0.2,0.1,0.3,0.3,0.2,0.4C251.9,89.7,251.7,89.8,251.5,89.8z M237.6,79.5c-0.6,0-1-0.3-1-0.9l0-1.5c0-0.6,0.3-1,0.9-1
							l31.4-0.6c0.6,0,1,0.3,1,0.9l0,1.5c0,0.6-0.3,1-0.9,1L237.6,79.5z M236.5,69.8l0-0.9c0-0.6,0.3-1,0.9-1l31.4-0.6
							c0.6,0,1,0.3,1,0.9l0,0.9c0,0.6-0.3,1-0.9,1l-31.4,0.6C236.8,70.8,236.5,70.5,236.5,69.8z M274.7,85.4
							c-1.9,1.5-3.6,2.7-5.1,3.7c-0.5,0.4-1.1,0.5-1.7,0.2c-2.9-1-5.4-2.3-7.5-3.7c-0.1-0.1-0.2-0.2-0.2-0.3c0-0.1,0.1-0.2,0.3-0.2
							l14-0.3c0.2,0,0.3,0.1,0.3,0.2C274.9,85.2,274.9,85.3,274.7,85.4z M276.5,61.2L231.2,62c-0.1,0-0.1,0-0.1,0.1l-2.6,0.1
							c-0.1,0-0.2,0-0.2-0.1c0-0.1,0-0.2,0.1-0.2c4-1.7,7.5-3.4,10.5-5.1c0.2-0.1,0.3,0,0.3,0.2c0,0.7,0.3,1.3,0.8,1.8
							c0.5,0.5,1.1,0.8,1.8,0.7l20.9-0.4c0.7,0,1.3-0.3,1.8-0.8c0.5-0.5,0.8-1.1,0.7-1.8c0-0.2,0.1-0.3,0.3-0.2
							c3.4,1.7,7.1,3.2,11,4.6c0.1,0.1,0.1,0.1,0.1,0.2C276.7,61.1,276.6,61.2,276.5,61.2z"/>
						<path class="st0" d="M210,46.5c-1,0.3-1.6,0.9-1.9,1.9c-0.3,1-0.2,1.9,0.4,2.7c0.8,1.1,1.8,1.9,3,2.4c0.7,0.3,1.4,0.5,2.1,0.4
							c0.5,0,1-0.1,1.5-0.2c16.6-5,28.2-12.7,34.8-23.2c0.5-0.8,0.6-1.7,0.3-2.6c-0.3-0.9-0.8-1.6-1.7-2l-1.8-0.9
							c-1-0.4-1.9-0.5-2.9-0.2c-0.1,0-0.3,0-0.4,0l-7.1,0.1c-0.6,0-1-0.3-1-0.9l0-1.1c0-0.6,0.3-1,0.9-1l11.5-0.2
							c1,0,1.8-0.4,2.4-1.1c0.7-0.7,1-1.5,1-2.4c0-0.9-0.4-1.7-1.1-2.4c-0.7-0.7-1.5-1-2.5-1L235.7,15c-0.3,0-0.4-0.1-0.4-0.4
							c0-1-0.4-1.8-1-2.4c-0.7-0.6-1.5-0.9-2.4-0.9l-1.4,0c-1.3,0-2.4,0.5-3.3,1.5c-0.9,1-1.4,2.1-1.3,3.4l0.2,7.9
							c0,0.2-0.1,0.3-0.2,0.4c-0.2,0.1-0.3,0.1-0.4,0.1c-0.8-0.2-1.7-0.4-2.5-0.3c-2.3,0-4.6,1.1-6.8,3.1c-2.1,2-4.8,3.8-7.8,5.6
							c-1,0.5-1.5,1.4-1.5,2.6c0,0.8,0.3,1.5,1,2.1c1,0.9,2.2,1.4,3.4,1.6c0.3,0,0.5,0,0.8,0c1,0,1.9-0.3,2.8-0.8
							c0.2-0.1,0.4-0.3,0.5-0.4c0.3-0.2,0.6-0.2,1,0c2.6,1.3,4.7,2.4,6.2,3.4c0.2,0.1,0.3,0.2,0.3,0.4c0,0.2-0.1,0.4-0.3,0.4
							C218.4,44,214.3,45.4,210,46.5z M222.1,33.2c-0.4-0.2-0.4-0.4-0.2-0.7c0.3-0.3,0.6-0.4,1-0.5l14-0.3c0.1,0,0.2,0.1,0.3,0.2
							c0.1,0.2,0,0.3-0.1,0.4c-1.7,1.7-3.6,3.3-5.8,4.7c-0.5,0.3-1.1,0.3-1.6,0C227.3,35.7,224.8,34.3,222.1,33.2z"/>
					</g>
					<path class="st0" d="M268.7,16.9c-4.1-3.7-9.7-4.2-12.6-1c-2.9,3.2-2,8.8,2.1,12.5c2.8,2.5,6.3,3.5,9.2,2.9
						c0.6,0.6,1.4,1.4,1.9,1.8c3.6,3.4,2.1,2.3,5.7,5.7c1.8,1.7,5.1,5.2,6.9,7c0.9,0.8,2.2,1.3,3.3,1.2c1.2-0.1,2.3-0.6,3.2-1.6
						c1.7-1.9,1.5-4.8-0.4-6.5c0,0-11.1-9-15.7-12.8C272.9,23.2,271.6,19.6,268.7,16.9z"/>
					
						<ellipse transform="matrix(0.9998 -1.926936e-02 1.926936e-02 0.9998 -1.8236 5.5061)" class="st0" cx="284.8" cy="97.4" rx="4" ry="4"/>
					
						<ellipse transform="matrix(0.9998 -1.926936e-02 1.926936e-02 0.9998 -1.5561 5.4845)" class="st0" cx="283.8" cy="83.5" rx="4" ry="4"/>
				</g>
			</g>
			<path class="st0" d="M363.3,25.4l29.6,4.2c1.3,0.2,2.4,0.8,3.2,1.9c0.8,1.1,1.1,2.3,1,3.6s-0.8,2.4-1.9,3.2
				c-1.1,0.8-2.3,1.1-3.6,0.9l-67-9.5c-0.6-0.1-1,0.2-1.1,0.8l-2.7,19c-3,21.2-7.6,37.3-13.8,48.3c-0.7,1.2-1.7,1.8-3.1,1.9
				c-0.3,0-0.7,0-1,0c-1-0.1-1.9-0.6-2.6-1.4c-1.1-1.1-1.8-2.5-2.1-4c-0.1-0.7-0.1-1.5,0-2.2c0.1-0.8,0.3-1.5,0.7-2.2
				c4.7-9,8.4-22.9,11.1-41.7l3-21.3c0.3-2.3,1.4-4.1,3.3-5.5s3.9-1.9,6.2-1.6l27.2,3.8L363.3,25.4z M345.5,93.3
				c-0.1,0.2-0.1,0.4,0,0.5c0.1,0.2,0.3,0.3,0.4,0.3l5.1,0.1c0.2,0,0.3,0,0.5,0.1c1,0.1,1.9,0.6,2.5,1.4c0.8,0.9,1.1,2,0.9,3.2
				c-0.2,1.2-0.7,2.2-1.6,3c-0.9,0.8-2,1.2-3.3,1.2c-6.7-0.1-17.2-0.3-31.6-0.7c-0.3,0-0.5-0.1-0.7-0.1c-1.1-0.2-2-0.6-2.8-1.4
				c-1-1-1.5-2.1-1.6-3.4c0-0.3,0-0.6,0-0.9c0.1-1,0.5-1.8,1.2-2.5c0.9-0.9,2-1.3,3.3-1.3c5.2,0.3,12.4,0.5,21.6,0.8
				c0.1,0,0.1,0,0.1,0c0,0,0-0.1-0.1-0.1c-0.9-0.3-1.5-0.9-1.8-1.8c-0.3-0.9-0.3-1.7,0.1-2.6c0.6-1.2,1.1-2.5,1.6-3.9
				c0.6-1.2,1.4-2.1,2.6-2.7c0.9-0.4,1.8-0.5,2.7-0.4c0.4,0.1,0.8,0.1,1.1,0.3c1.2,0.4,2,1.3,2.5,2.5c0.2,0.7,0.3,1.3,0.2,2
				c-0.1,0.5-0.2,1-0.5,1.6C347.1,90.7,346.2,92.2,345.5,93.3z M356.2,49.3l-8.6-1.2c-0.6-0.1-1,0.2-1.1,0.8l-0.3,2.1
				c-0.1,0.6,0.2,1,0.8,1.1l7,1c1,0.1,1.9,0.6,2.5,1.5c0.7,0.8,0.9,1.8,0.8,2.9c-0.2,1.1-0.7,1.9-1.5,2.6c-0.9,0.6-1.8,0.9-2.8,0.7
				L327,57.1c-1.1-0.2-1.9-0.6-2.6-1.5c-0.6-0.8-0.9-1.8-0.7-2.9c0.2-1.1,0.6-1.9,1.5-2.6c0.8-0.6,1.8-0.9,2.9-0.7l6.7,0.9
				c0.6,0.1,1-0.2,1.1-0.8l0.3-2.1c0.1-0.6-0.2-1-0.8-1.1l-8-1.1c-1.1-0.2-2-0.7-2.6-1.5c-0.7-0.9-0.9-1.8-0.8-2.9
				c0.2-1.1,0.7-2,1.5-2.6c0.9-0.7,1.9-0.9,2.9-0.8l8.4,1.2c0.4,0.1,0.6-0.1,0.7-0.5c0.2-1.3,0.8-2.4,1.9-3.2c1.1-0.8,2.3-1.1,3.6-1
				l0.8,0.1c1.3,0.2,2.4,0.8,3.2,1.9c0.8,1.1,1.1,2.3,0.9,3.6c-0.1,0.4,0.1,0.6,0.5,0.7l9,1.3c1.1,0.2,2,0.7,2.6,1.5
				c0.7,0.9,0.9,1.9,0.8,2.9c-0.2,1.1-0.7,2-1.5,2.6C358.3,49.2,357.3,49.5,356.2,49.3z M346.9,63.5c2.3,0.3,4.1,1.4,5.5,3.3
				c1.4,1.9,1.9,3.9,1.6,6.2l-0.2,1.1c-0.3,2.3-1.4,4.1-3.3,5.5c-1.9,1.4-3.9,1.9-6.2,1.6l-15.5-2.2c-2.3-0.3-4.1-1.4-5.5-3.3
				c-1.4-1.9-1.9-3.9-1.6-6.2l0.2-1.1c0.3-2.3,1.4-4.1,3.3-5.5c1.9-1.4,3.9-1.9,6.2-1.6L346.9,63.5z M332,86.9
				c0.1,0.5,0.1,0.9,0,1.4c-0.1,0.8-0.4,1.5-1,2.1c-0.9,1-2.1,1.6-3.4,1.8c-0.4,0-0.7,0-1.1-0.1c-0.9-0.1-1.7-0.5-2.4-1.1
				c-1-0.9-1.5-1.9-1.7-3.3c-0.1-0.7-0.2-1.5-0.4-2.3c-0.1-0.5-0.1-0.9,0-1.4c0.1-0.6,0.3-1.3,0.7-1.8c0.7-1,1.7-1.5,2.9-1.5
				c0.4-0.1,0.8-0.1,1.3,0c0.8,0.1,1.6,0.5,2.4,1c1.1,0.7,1.8,1.8,2.1,3.1C331.6,85.5,331.8,86.2,332,86.9z M342.8,74.5
				c0.6,0.1,1-0.2,1.1-0.8l0.4-3.1c0.1-0.6-0.2-1-0.8-1.1L332.3,68c-0.6-0.1-1,0.2-1.1,0.8l-0.4,3.1c-0.1,0.6,0.2,1,0.8,1.1
				L342.8,74.5z M390.3,55.3c1.3,0.2,2.4,0.8,3.2,1.9c0.8,1.1,1.1,2.3,0.9,3.6c-0.2,1.3-0.8,2.4-1.9,3.2c-1.1,0.8-2.3,1.1-3.6,0.9
				l-0.9-0.1c-0.4-0.1-0.6,0.1-0.7,0.6l-5,35.7c-0.4,2.9-1.1,5-1.9,6.4c-0.9,1.4-2.3,2.4-4.2,3c-2.3,0.7-5.8,0.8-10.6,0.4
				c-0.1,0-0.1,0-0.2,0c-1.5-0.2-2.7-0.9-3.7-2c-1.1-1.2-1.8-2.6-2.1-4.2c-0.1-0.4-0.1-0.8,0-1.3c0.1-0.7,0.4-1.4,1-2
				c0.8-0.9,1.9-1.3,3.2-1.1c1.7,0.3,3.6,0.6,5.6,0.9c0.8,0,1.3,0,1.6-0.3c0.3-0.2,0.5-0.7,0.6-1.4l5-35.3c0.1-0.6-0.2-1-0.8-1.1
				l-11.3-1.6c-1.3-0.2-2.4-0.8-3.2-1.9c-0.8-1.1-1.1-2.3-0.9-3.6c0.2-1.3,0.8-2.4,1.9-3.2s2.3-1.1,3.6-1l11.3,1.6
				c0.6,0.1,1-0.2,1.1-0.8l1.1-7.6c0.2-1.5,0.9-2.7,2.1-3.6c1.2-0.9,2.5-1.3,4-1c1.5,0.2,2.7,0.9,3.6,2.1c0.9,1.2,1.3,2.5,1,4
				l-1.1,7.8c-0.1,0.4,0.1,0.7,0.5,0.7L390.3,55.3z M371.1,83.4c0.1,0.5,0.1,1,0,1.5c-0.1,0.8-0.5,1.6-1,2.4c-0.9,1.1-2,1.8-3.4,2.1
				c-0.5,0.1-0.9,0.1-1.4,0c-0.8-0.1-1.4-0.4-2-0.9c-1.1-0.8-1.6-1.9-1.7-3.2c-0.4-4-1.1-8.1-2.1-12.5c-0.1-0.6-0.1-1.2-0.1-1.7
				c0.1-0.6,0.3-1.1,0.6-1.7c0.7-1,1.6-1.6,2.8-1.8c0.5-0.1,1,0,1.6,0c0.7,0.1,1.4,0.3,2.1,0.7c1.1,0.7,1.9,1.7,2.2,2.9
				C369.8,75.5,370.6,79.6,371.1,83.4z"/>
			<path class="st0" d="M349.5,14.6l-2.1,5.6l18.9,7l2.1-5.6c2.3-0.4,4.3-1.9,5.2-4.2c1.3-3.5-0.5-7.3-4-8.6
				c-0.3-0.1-0.6-0.2-0.9-0.2c-0.4-2.3-1.9-4.4-4.3-5.2c-2.4-0.9-4.9-0.3-6.7,1.2c-0.3-0.1-0.5-0.3-0.8-0.4c-3.5-1.3-7.3,0.5-8.6,4
				C347.6,10.4,348.1,12.9,349.5,14.6z"/>
		</g>
	</g>
	<path class="st0" d="M376,153.3c0,0-0.4,0.9,0.8,1.3l35.6-43.9c0,0-1.4-3.6-3.8-1.2L376,153.3z"/>
	<path class="st0" d="M6.8,109.6c-2.4-2.4-3.8,1.2-3.8,1.2l35.6,43.9c1.3-0.4,0.8-1.3,0.8-1.3L6.8,109.6z"/>
</g>
</svg>
