<?xml version="1.0" encoding="utf-8"?>
<!-- Generator: Adobe Illustrator 19.0.1, SVG Export Plug-In . SVG Version: 6.00 Build 0)  -->
<svg version="1.1" id="圖層_1" xmlns="http://www.w3.org/2000/svg" xmlns:xlink="http://www.w3.org/1999/xlink" x="0px" y="0px"
	 viewBox="-175.6 168.3 228.6 42.1" style="enable-background:new -175.6 168.3 228.6 42.1;" xml:space="preserve">
<style type="text/css">
	.st0{enable-background:new    ;}
	.st1{fill:#A0A0A0;}
</style>
<g>
	<g class="st0">
		<path class="st1" d="M-171.1,171.2h-1.1v10c0,0.3-0.3,0.6-0.6,0.6c-0.4,0-0.6-0.3-0.6-0.6v-4.8c-0.3,0.7-0.6,1.3-1,1.7
			c-0.1,0.1-0.2,0.2-0.3,0.2c-0.3,0-0.6-0.2-0.6-0.6c0-0.1,0-0.2,0.1-0.4c0.8-1.2,1.7-3.6,1.7-5.8v-0.4h-1.4c-0.3,0-0.5-0.3-0.5-0.7
			c0-0.4,0.3-0.6,0.5-0.6h1.4v-0.6c0-0.3,0.3-0.6,0.6-0.6c0.4,0,0.6,0.3,0.6,0.6v0.6h1.1c0.3,0,0.5,0.3,0.5,0.6
			C-170.5,170.9-170.8,171.2-171.1,171.2z M-170.9,175.9c-0.2,0-0.7-0.4-0.7-0.7c0-0.3,0.4-0.7,0.7-0.7c0.2,0,0.7,0.4,0.7,0.7
			C-170.3,175.5-170.7,175.9-170.9,175.9z M-169.1,181.6c-0.3,0-0.8-0.2-0.8-0.5c0-0.3,0.2-0.8,0.5-0.8c0.3,0,0.8,0.2,0.8,0.5
			C-168.6,181.1-168.8,181.6-169.1,181.6z M-162.4,174.5h-6.1c-0.7,0-1.2-0.5-1.2-1.2V172c0-0.7,0.5-1.2,1.2-1.2h1.4v-1.3h-1.6
			c-0.2,0-0.5-0.2-0.5-0.6c0-0.3,0.3-0.6,0.5-0.6h6.7c0.2,0,0.5,0.2,0.5,0.6c0,0.4-0.3,0.6-0.5,0.6h-1.6v1.3h1.4
			c0.7,0,1.2,0.5,1.2,1.2v1.3C-161.2,173.9-161.8,174.5-162.4,174.5z M-162.1,176.6h-6.8c-0.2,0-0.5-0.2-0.5-0.6
			c0-0.3,0.2-0.5,0.5-0.5h6.8c0.2,0,0.5,0.2,0.5,0.5C-161.6,176.4-161.9,176.6-162.1,176.6z M-162.1,178.8h-2.5v2.1
			c0,1.2-0.5,1.6-1.5,1.6h-1c-0.3,0-0.5-0.2-0.5-0.5c0-0.4,0.2-0.6,0.5-0.6h0.7c0.4,0,0.5-0.2,0.5-0.6v-1.9h-2.8
			c-0.2,0-0.5-0.2-0.5-0.6c0-0.3,0.2-0.5,0.5-0.5h6.7c0.2,0,0.5,0.2,0.5,0.5C-161.6,178.6-161.9,178.8-162.1,178.8z M-167.2,171.7
			h-1.1c-0.2,0-0.4,0.2-0.4,0.4v1c0,0.2,0.2,0.4,0.4,0.4h1.1V171.7z M-164.8,169.5h-1.5v1.3h1.5V169.5z M-164.8,171.7h-1.5v1.8h1.5
			V171.7z M-162.3,172.1c0-0.2-0.2-0.4-0.4-0.4h-1.1v1.8h1.1c0.2,0,0.4-0.2,0.4-0.4V172.1z M-162,181.6c-0.3,0-0.5-0.5-0.5-0.7
			c0-0.3,0.5-0.5,0.8-0.5s0.5,0.5,0.5,0.8C-161.2,181.4-161.7,181.6-162,181.6z"/>
		<path class="st1" d="M-146.7,182.3h-6.3c-2.2,0-3.7-0.5-4.7-1.7c-0.2,0.5-0.5,1-0.8,1.4c-0.1,0.1-0.2,0.2-0.4,0.2
			c-0.4,0-0.6-0.3-0.6-0.6c0-0.1,0-0.2,0.1-0.3c0.6-0.7,1.1-1.8,1.1-3.9c0-0.2,0.2-0.5,0.5-0.5c0.4,0,0.6,0.3,0.6,0.5
			c0,0.8-0.1,1.5-0.2,2.1c0.4,0.4,0.8,0.8,1.2,1v-4.3h-1.7c-0.3,0-0.5-0.3-0.5-0.6s0.3-0.6,0.5-0.6h4.3c0.3,0,0.5,0.2,0.5,0.6
			s-0.3,0.6-0.5,0.6h-1.4v1.8h1.9c0.2,0,0.5,0.2,0.5,0.5c0,0.3-0.3,0.6-0.5,0.6h-1.9v1.8c0.6,0.1,1.2,0.2,2,0.2h6.3
			c0.3,0,0.6,0.3,0.6,0.7C-146.1,182-146.4,182.3-146.7,182.3z M-153.9,173.7h-3.7c-0.7,0-1.2-0.5-1.2-1.2v-3c0-0.7,0.5-1.2,1.2-1.2
			h3.7c0.7,0,1.2,0.5,1.2,1.2v3C-152.7,173.2-153.2,173.7-153.9,173.7z M-154,169.7c0-0.2-0.2-0.4-0.4-0.4h-2.8
			c-0.2,0-0.4,0.2-0.4,0.4v0.9h3.6V169.7z M-154,171.5h-3.6v0.9c0,0.2,0.2,0.4,0.4,0.4h2.8c0.2,0,0.4-0.2,0.4-0.4V171.5z
			 M-146.4,178.5h-4.1c-0.7,0-1.2-0.5-1.2-1.2v-5.5c0-0.7,0.5-1.2,1.2-1.2h0.8l0.4-1.2h-1.5c-0.2,0-0.5-0.2-0.5-0.5
			c0-0.3,0.3-0.5,0.5-0.5h4.7c0.2,0,0.5,0.2,0.5,0.5c0,0.3-0.2,0.5-0.5,0.5h-1.9l-0.4,1.2h2c0.7,0,1.2,0.5,1.2,1.2v5.5
			C-145.2,178-145.8,178.5-146.4,178.5z M-150.3,180.1c-0.2,0-0.7-0.2-0.7-0.5c0-0.2,0.2-0.8,0.5-0.8c0.2,0,0.7,0.2,0.7,0.5
			C-149.7,179.6-149.9,180.1-150.3,180.1z M-146.5,171.9c0-0.2-0.2-0.4-0.4-0.4h-3.1c-0.2,0-0.4,0.2-0.4,0.4v1h3.9V171.9z
			 M-146.5,173.9h-3.9v1.4h3.9V173.9z M-146.5,176.2h-3.9v1c0,0.2,0.2,0.4,0.4,0.4h3.1c0.2,0,0.4-0.2,0.4-0.4V176.2z M-146.5,180.1
			c-0.3,0-0.6-0.5-0.6-0.8c0-0.3,0.5-0.5,0.8-0.5c0.3,0,0.5,0.5,0.5,0.7C-145.8,179.9-146.3,180.1-146.5,180.1z"/>
	</g>
	<g class="st0">
		<path d="M-164.3,197.2l-4.4,11.7c-0.2,0.5-0.5,0.8-1.2,0.8h-0.2c-0.6,0-1-0.3-1.2-0.8l-4.3-11.7c0-0.1,0-0.1,0-0.2
			c0-0.3,0.3-0.6,0.7-0.6c0.4,0,0.6,0.2,0.7,0.5l4.1,10.9c0,0.1,0.1,0.1,0.1,0.1c0,0,0.1,0,0.1-0.1l4.2-10.9
			c0.1-0.3,0.3-0.5,0.7-0.5c0.4,0,0.7,0.3,0.7,0.6C-164.2,197.1-164.2,197.2-164.3,197.2z"/>
		<path d="M-157.2,209.7h-1.9c-0.3,0-0.5-0.3-0.5-0.7c0-0.4,0.3-0.7,0.5-0.7h1.8c3.1,0,3.8-1.7,3.8-3.9v-2.5c0-2.9-1-3.9-4.3-3.9
			h-3.1c-0.2,0-0.4,0.2-0.4,0.4v10.9c0,0.3-0.3,0.6-0.7,0.6c-0.4,0-0.7-0.3-0.7-0.6v-11.5c0-0.7,0.5-1.2,1.2-1.2h3.8
			c4.2,0,5.6,1.7,5.6,5.3v2.4C-152.1,207.1-153,209.7-157.2,209.7z"/>
		<path d="M-140.6,209.7h-8.5c-0.7,0-1.2-0.5-1.2-1.1V197c0-0.3,0.3-0.6,0.7-0.6c0.4,0,0.7,0.3,0.7,0.6v10.9c0,0.2,0.2,0.4,0.4,0.4
			h7.9c0.3,0,0.6,0.3,0.6,0.7C-140,209.4-140.3,209.7-140.6,209.7z"/>
		<path d="M-123.2,207.1c-0.1,0-0.3-0.1-0.4-0.1l-2.1-1.7c-1.6,2.4-4.1,4.1-7.5,4.5c0,0,0,0-0.1,0c-0.4,0-0.7-0.4-0.7-0.8
			c0-0.4,0.3-0.6,0.5-0.6c3-0.4,5.3-1.8,6.7-4l-3.2-2.5c-0.1-0.1-0.1-0.2-0.1-0.4c0-0.4,0.3-0.7,0.7-0.7c0.1,0,0.3,0,0.3,0.1
			l2.9,2.2c0.6-1.4,0.9-3,0.9-4.8v-1.6c0-0.3,0.3-0.6,0.7-0.6c0.5,0,0.8,0.3,0.8,0.6v1.6c0,2.1-0.4,4.1-1.2,5.7l2.4,1.8
			c0.1,0.1,0.2,0.3,0.2,0.4C-122.4,206.6-122.8,207.1-123.2,207.1z"/>
		<path d="M-110.9,208.7c-0.1,0-0.1,0-0.2,0c-0.4,0-0.7-0.3-0.7-0.7c0-0.3,0.1-0.5,0.3-0.6c1.3-0.6,2.1-1.5,2.1-3.3v-3.3
			c0-0.2-0.2-0.4-0.4-0.4h-6.4c-0.1,3.4-0.6,6.2-1.4,8.8c-0.1,0.2-0.3,0.4-0.6,0.4c-0.5,0-0.8-0.2-0.8-0.6c0-0.1,0-0.1,0-0.2
			c0.7-2.3,1.2-5,1.3-8.5h-3.4c-0.3,0-0.6-0.3-0.6-0.7c0-0.4,0.3-0.7,0.6-0.7h3.4v-2.4c0-0.3,0.3-0.6,0.8-0.6c0.4,0,0.7,0.3,0.7,0.6
			v2.4h7c0.7,0,1.2,0.5,1.2,1.2v4C-108,206.8-109.1,208.1-110.9,208.7z M-111,197.3c-0.4,0-0.5-0.4-0.5-0.8c0-0.3,0.4-0.5,0.8-0.5
			c0.4,0,0.5,0.5,0.5,0.8C-110.2,197.1-110.7,197.3-111,197.3z M-108.5,197.3c-0.4,0-0.5-0.5-0.5-0.8s0.4-0.5,0.8-0.5
			c0.3,0,0.4,0.5,0.4,0.8C-107.7,197.1-108.2,197.3-108.5,197.3z"/>
		<path d="M-93.5,209.9h-0.9c-1.2,0-2-0.8-2-2v-8.6c0-0.2-0.2-0.4-0.4-0.4h-4.1v1.4c0,1.3-0.2,2.6-0.6,3.8l2.1,1.4
			c0.2,0.1,0.3,0.3,0.3,0.5c0,0.5-0.4,0.8-0.8,0.8c-0.1,0-0.2,0-0.3-0.1l-1.8-1.3c-0.7,1.3-1.5,2.4-2.6,3.2
			c-0.1,0.1-0.2,0.1-0.4,0.1c-0.4,0-0.7-0.3-0.7-0.8c0-0.2,0.1-0.4,0.2-0.5c0.9-0.6,1.6-1.6,2.2-2.8l-2.3-1.6
			c-0.1-0.1-0.2-0.3-0.2-0.5c0-0.4,0.4-0.8,0.7-0.8c0.1,0,0.2,0,0.2,0.1l2.1,1.4c0.3-0.9,0.4-1.9,0.4-2.9v-1.4h-2
			c-0.3,0-0.6-0.3-0.6-0.7c0-0.4,0.3-0.7,0.6-0.7h2v-1.3c0-0.3,0.3-0.6,0.7-0.6c0.4,0,0.8,0.3,0.8,0.6v1.3h4.8
			c0.7,0,1.2,0.5,1.2,1.2v9.1c0,0.5,0.4,0.8,0.8,0.8h0.7c0.3,0,0.6,0.3,0.6,0.7C-92.8,209.6-93.2,209.9-93.5,209.9z"/>
		<path d="M-73.8,197.2l-4.4,11.7c-0.2,0.5-0.5,0.8-1.2,0.8h-0.2c-0.6,0-1-0.3-1.2-0.8l-4.3-11.7c0-0.1,0-0.1,0-0.2
			c0-0.3,0.3-0.6,0.7-0.6c0.4,0,0.6,0.2,0.7,0.5l4.1,10.9c0,0.1,0.1,0.1,0.1,0.1c0,0,0.1,0,0.1-0.1l4.2-10.9
			c0.1-0.3,0.3-0.5,0.7-0.5c0.4,0,0.7,0.3,0.7,0.6C-73.8,197.1-73.8,197.2-73.8,197.2z"/>
		<path d="M-66.8,209.7h-1.9c-0.3,0-0.5-0.3-0.5-0.7c0-0.4,0.3-0.7,0.5-0.7h1.8c3.1,0,3.8-1.7,3.8-3.9v-2.5c0-2.9-1-3.9-4.3-3.9
			h-3.1c-0.2,0-0.4,0.2-0.4,0.4v10.9c0,0.3-0.3,0.6-0.7,0.6c-0.4,0-0.7-0.3-0.7-0.6v-11.5c0-0.7,0.5-1.2,1.2-1.2h3.8
			c4.2,0,5.6,1.7,5.6,5.3v2.4C-61.7,207.1-62.5,209.7-66.8,209.7z"/>
		<path d="M-50.1,209.7h-8.5c-0.7,0-1.2-0.5-1.2-1.1V197c0-0.3,0.3-0.6,0.7-0.6c0.4,0,0.7,0.3,0.7,0.6v10.9c0,0.2,0.2,0.4,0.4,0.4
			h7.9c0.3,0,0.6,0.3,0.6,0.7C-49.5,209.4-49.8,209.7-50.1,209.7z"/>
		<path d="M-42.5,203.8h-5.2c-0.3,0-0.6-0.3-0.6-0.7c0-0.4,0.3-0.7,0.6-0.7h5.2c0.3,0,0.6,0.3,0.6,0.7
			C-41.9,203.5-42.2,203.8-42.5,203.8z"/>
		<path d="M-28.4,209.8c-0.4,0-0.7-0.3-0.7-0.6v-10.9c0,0,0-0.1,0-0.1c0,0,0,0-0.1,0.1l-3.7,9.8c-0.1,0.3-0.4,0.5-0.8,0.5
			c-0.4,0-0.7-0.2-0.8-0.5l-3.8-9.8c0,0,0-0.1-0.1-0.1c0,0,0,0,0,0.1v10.9c0,0.3-0.3,0.6-0.7,0.6c-0.4,0-0.7-0.3-0.7-0.6v-11.7
			c0-0.5,0.3-1,1-1h0.4c0.6,0,1,0.4,1.2,0.9l3.5,8.9c0,0.1,0.1,0.1,0.1,0.1c0,0,0.1,0,0.1-0.1l3.4-8.8c0.2-0.6,0.6-1,1.1-1h0.4
			c0.6,0,1,0.4,1,1v11.7C-27.8,209.5-28,209.8-28.4,209.8z"/>
		<path d="M-17.3,205.2h-5c-0.2,0-0.4-0.2-0.4-0.5s0.2-0.6,0.4-0.6h4.4c0.2,0,0.4-0.2,0.4-0.4v-0.1c0-1.9-1.1-2.6-3-2.6h-1
			c-1.8,0-3,0.7-3,2.7v1.9c0,2,1.2,2.7,3,2.7h2c0.3,0,0.5,0.3,0.5,0.6c0,0.4-0.3,0.7-0.5,0.7h-2.1c-3,0-4.4-1.6-4.4-4v-1.9
			c0-2.6,1.7-4,4.4-4h1.1c2.9,0,4.4,1.3,4.4,4.1v0.2C-16.1,204.7-16.6,205.2-17.3,205.2z"/>
		<path d="M-4.8,199.8l-1.1,0.4c0.6,0.3,0.8,0.8,0.8,1.6v0.4c0,1.2-0.6,2-3.5,2h-2.2c-0.3,0-0.6,0-0.9,0c-1.2,0.3-1.4,0.6-1.4,0.9
			c0,0.4,0.1,0.7,1.9,0.7h2.7c2.8,0,3.9,0.4,3.9,2.1v0.3c0,1.4-0.6,2.3-3.9,2.3h-2.5c-3,0-3.9-0.7-3.9-2.1v-0.1
			c0-0.3,0.3-0.5,0.8-0.5c0.4,0,0.7,0.3,0.7,0.5v0.2c0,0.8,0.8,1.1,2.3,1.1h2.6c1.6,0,2.3-0.4,2.3-1.2v-0.4c0-0.9-0.7-1.1-2.4-1.1
			h-3.5c-1.9,0-2.5-0.7-2.5-1.6c0-0.4,0.1-1,1.2-1.4c-0.7-0.3-1.1-0.8-1.1-1.6v-0.4c0-1.3,0.7-2,3.2-2h2.8c0.2,0,0.4,0,0.5,0
			l2.5-0.9c0.1,0,0.2-0.1,0.3-0.1c0.3,0,0.5,0.2,0.5,0.4C-4.4,199.6-4.6,199.7-4.8,199.8z M-6.5,201.8c0-0.8-0.5-1-1.8-1H-11
			c-1.4,0-1.8,0.4-1.8,1v0.4c0,0.6,0.5,1,2.1,1h2.2c1.5,0,2.1-0.4,2.1-1V201.8z"/>
		<path d="M7.1,209.6H6.8c-0.7,0-1.3-0.4-1.6-1.1c-0.5,0.6-1.4,1.1-3.1,1.1H0.7c-2.7,0-3.6-1.3-3.6-2.9v-0.4c0-1.7,1.3-2.9,3.8-2.9
			H3c0.2,0,0.5,0.2,0.5,0.6c0,0.4-0.3,0.6-0.5,0.6H0.8c-1.7,0-2.4,0.8-2.4,1.7v0.3c0,0.9,0.5,1.7,2.4,1.7H2c1.7,0,2.7-0.5,3-1.5
			v-4.1c0-1.2-0.8-1.7-2.8-1.7h-2.4c-0.3,0-0.5-0.3-0.5-0.6s0.3-0.7,0.5-0.7h2.4c2.8,0,4.1,0.9,4.1,3v4.4c0,0.6,0.2,1,0.7,1h0.1
			c0.3,0,0.5,0.2,0.5,0.7C7.7,209.4,7.4,209.6,7.1,209.6z"/>
		<path d="M20.8,209.8c-0.4,0-0.7-0.3-0.7-0.6v-10.9c0,0,0-0.1,0-0.1c0,0,0,0-0.1,0.1l-3.7,9.8c-0.1,0.3-0.4,0.5-0.8,0.5
			s-0.7-0.2-0.8-0.5l-3.8-9.8c0,0,0-0.1-0.1-0.1c0,0,0,0,0,0.1v10.9c0,0.3-0.3,0.6-0.7,0.6c-0.4,0-0.7-0.3-0.7-0.6v-11.7
			c0-0.5,0.3-1,1-1h0.4c0.6,0,1,0.4,1.2,0.9l3.5,8.9c0,0.1,0.1,0.1,0.1,0.1c0,0,0.1,0,0.1-0.1l3.4-8.8c0.2-0.6,0.6-1,1.1-1h0.4
			c0.6,0,1,0.4,1,1v11.7C21.5,209.5,21.2,209.8,20.8,209.8z"/>
		<path d="M33.2,209.6h-0.3c-0.7,0-1.3-0.4-1.6-1.1c-0.5,0.6-1.4,1.1-3.1,1.1h-1.4c-2.7,0-3.6-1.3-3.6-2.9v-0.4
			c0-1.7,1.3-2.9,3.8-2.9h2.1c0.2,0,0.5,0.2,0.5,0.6c0,0.4-0.3,0.6-0.5,0.6h-2.1c-1.7,0-2.4,0.8-2.4,1.7v0.3c0,0.9,0.5,1.7,2.4,1.7
			H28c1.7,0,2.7-0.5,3-1.5v-4.1c0-1.2-0.8-1.7-2.8-1.7h-2.4c-0.3,0-0.5-0.3-0.5-0.6s0.3-0.7,0.5-0.7h2.4c2.8,0,4.1,0.9,4.1,3v4.4
			c0,0.6,0.2,1,0.7,1h0.1c0.3,0,0.5,0.2,0.5,0.7C33.8,209.4,33.5,209.6,33.2,209.6z"/>
		<path d="M42.2,201.2H40c-2.2,0-3.2,1.4-3.2,2.3v5.7c0,0.3-0.3,0.6-0.7,0.6c-0.4,0-0.7-0.3-0.7-0.6v-9.1c0-0.3,0.3-0.6,0.7-0.6
			c0.4,0,0.7,0.2,0.7,0.5v0.9c0.7-0.7,1.7-1.2,3.2-1.2h2.2c0.3,0,0.6,0.3,0.6,0.7C42.8,200.9,42.4,201.2,42.2,201.2z"/>
		<path d="M52.4,209.8c-0.4,0-0.7-0.1-0.7-0.4v-0.9c-0.7,0.7-1.7,1.2-3.1,1.2H48c-2.8,0-4-1.3-4-3.7v-5.7c0-0.3,0.3-0.6,0.7-0.6
			s0.7,0.3,0.7,0.6v5.7c0,1.7,0.9,2.5,2.8,2.5h0.5c2,0,3-1,3-2.6v-5.5c0-0.3,0.3-0.6,0.7-0.6c0.4,0,0.7,0.3,0.7,0.6v9.1
			C53.1,209.5,52.8,209.8,52.4,209.8z"/>
	</g>
</g>
</svg>
