<?xml version="1.0" encoding="utf-8"?>
<!-- Generator: Adobe Illustrator 19.0.1, SVG Export Plug-In . SVG Version: 6.00 Build 0)  -->
<svg version="1.1" id="圖層_1" xmlns="http://www.w3.org/2000/svg" xmlns:xlink="http://www.w3.org/1999/xlink" x="0px" y="0px"
	 viewBox="0 0 217.4 115" style="enable-background:new 0 0 217.4 115;" xml:space="preserve">
<g>
	<g>
		<path d="M146,50.3c2.3,0,4.2,0.9,5.5,2.6c1.2,1.5,1.8,3.2,1.8,5.1c0,1.4-0.3,2.7-1,4.1s-1.6,2.4-2.7,3.2c-1.1,0.7-2.4,1.1-3.8,1.1
			c-2.3,0-4.1-0.9-5.5-2.7c-1.1-1.5-1.7-3.3-1.7-5.2c0-1.4,0.3-2.8,1-4.2c0.7-1.4,1.6-2.4,2.7-3.1C143.5,50.6,144.7,50.3,146,50.3z
			 M145.4,51.4c-0.6,0-1.2,0.2-1.8,0.5c-0.6,0.3-1.1,1-1.4,1.8c-0.4,0.9-0.5,2-0.5,3.4c0,2.2,0.4,4.1,1.3,5.7c0.9,1.6,2,2.4,3.5,2.4
			c1.1,0,2-0.4,2.7-1.3c0.7-0.9,1-2.4,1-4.6c0-2.7-0.6-4.8-1.7-6.4C147.7,51.9,146.7,51.4,145.4,51.4z"/>
		<path d="M163.4,53.5c1.8-2.1,3.5-3.2,5.1-3.2c0.8,0,1.5,0.2,2.1,0.6s1.1,1.1,1.4,2.1c0.2,0.7,0.4,1.7,0.4,3.1v6.5
			c0,1,0.1,1.6,0.2,2c0.1,0.3,0.3,0.5,0.6,0.6c0.3,0.2,0.8,0.2,1.5,0.2V66h-7.5v-0.6h0.3c0.7,0,1.2-0.1,1.5-0.3
			c0.3-0.2,0.5-0.5,0.6-1c0-0.2,0.1-0.7,0.1-1.6v-6.2c0-1.4-0.2-2.4-0.5-3c-0.4-0.6-1-0.9-1.8-0.9c-1.3,0-2.6,0.7-3.9,2.2v8
			c0,1,0.1,1.7,0.2,1.9c0.2,0.3,0.4,0.6,0.6,0.7c0.3,0.1,0.8,0.2,1.7,0.2V66h-7.5v-0.6h0.3c0.8,0,1.3-0.2,1.6-0.6
			c0.3-0.4,0.4-1.1,0.4-2.2v-5.6c0-1.8,0-2.9-0.1-3.3c-0.1-0.4-0.2-0.7-0.4-0.8c-0.2-0.1-0.4-0.2-0.7-0.2c-0.3,0-0.7,0.1-1.1,0.2
			l-0.2-0.6l4.6-1.9h0.7V53.5z"/>
		<path d="M181.9,56.5c0,2.3,0.5,4,1.6,5.3c1.1,1.3,2.4,1.9,3.9,1.9c1,0,1.9-0.3,2.6-0.8c0.7-0.5,1.4-1.5,1.9-2.8l0.5,0.3
			c-0.2,1.5-0.9,2.9-2,4.1s-2.5,1.9-4.2,1.9c-1.8,0-3.4-0.7-4.7-2.1c-1.3-1.4-2-3.3-2-5.7c0-2.6,0.7-4.6,2-6.1c1.3-1.5,3-2.2,5-2.2
			c1.7,0,3.1,0.6,4.2,1.7c1.1,1.1,1.6,2.6,1.6,4.5H181.9z M181.9,55.5h7c-0.1-1-0.2-1.7-0.3-2.1c-0.3-0.6-0.7-1.1-1.2-1.5
			c-0.5-0.4-1.1-0.5-1.7-0.5c-0.9,0-1.7,0.4-2.5,1.1C182.4,53.3,182,54.3,181.9,55.5z"/>
	</g>
	<g>
		<path d="M143.9,90c1.1-1.1,1.8-1.7,2-1.9c0.5-0.4,1-0.7,1.6-1s1.1-0.3,1.7-0.3c1,0,1.8,0.3,2.5,0.8c0.7,0.6,1.1,1.4,1.4,2.4
			c1.1-1.3,2.1-2.2,2.9-2.6s1.6-0.6,2.4-0.6c0.8,0,1.5,0.2,2.1,0.6c0.6,0.4,1.1,1.1,1.5,2c0.2,0.6,0.4,1.6,0.4,3v6.5
			c0,1,0.1,1.6,0.2,2c0.1,0.2,0.3,0.5,0.6,0.6c0.3,0.2,0.8,0.3,1.5,0.3v0.6h-7.5v-0.6h0.3c0.7,0,1.2-0.1,1.5-0.4
			c0.3-0.2,0.4-0.5,0.5-0.8c0-0.2,0.1-0.7,0.1-1.6v-6.5c0-1.2-0.1-2.1-0.4-2.6c-0.4-0.7-1.1-1.1-2.1-1.1c-0.6,0-1.2,0.1-1.8,0.4
			c-0.6,0.3-1.3,0.8-2.2,1.6l0,0.2l0,0.7v7.3c0,1,0.1,1.7,0.2,1.9c0.1,0.3,0.3,0.5,0.7,0.6c0.3,0.2,0.9,0.3,1.6,0.3v0.6h-7.7v-0.6
			c0.8,0,1.4-0.1,1.7-0.3c0.3-0.2,0.5-0.5,0.7-0.9c0.1-0.2,0.1-0.7,0.1-1.6v-6.5c0-1.2-0.2-2.1-0.5-2.7c-0.5-0.7-1.2-1.1-2-1.1
			c-0.6,0-1.2,0.2-1.8,0.5c-0.9,0.5-1.6,1-2.1,1.6v8.2c0,1,0.1,1.6,0.2,1.9c0.1,0.3,0.3,0.5,0.6,0.7c0.3,0.1,0.8,0.2,1.7,0.2v0.6
			h-7.5v-0.6c0.7,0,1.2-0.1,1.5-0.2s0.5-0.4,0.6-0.7c0.1-0.3,0.2-1,0.2-1.9v-5.8c0-1.7,0-2.8-0.1-3.2c-0.1-0.4-0.2-0.6-0.4-0.8
			c-0.2-0.1-0.4-0.2-0.7-0.2c-0.3,0-0.7,0.1-1.1,0.2l-0.2-0.6l4.6-1.9h0.7V90z"/>
		<path d="M176.7,86.7c2.3,0,4.2,0.9,5.5,2.6c1.2,1.5,1.8,3.2,1.8,5.1c0,1.4-0.3,2.7-1,4.1s-1.6,2.4-2.7,3.2
			c-1.1,0.7-2.4,1.1-3.8,1.1c-2.3,0-4.1-0.9-5.5-2.7c-1.1-1.5-1.7-3.3-1.7-5.2c0-1.4,0.3-2.8,1-4.2c0.7-1.4,1.6-2.4,2.7-3.1
			C174.2,87.1,175.4,86.7,176.7,86.7z M176.2,87.8c-0.6,0-1.2,0.2-1.8,0.5c-0.6,0.3-1.1,1-1.4,1.8c-0.4,0.9-0.5,2-0.5,3.4
			c0,2.2,0.4,4.1,1.3,5.7c0.9,1.6,2,2.4,3.5,2.4c1.1,0,2-0.4,2.7-1.3c0.7-0.9,1-2.4,1-4.6c0-2.7-0.6-4.8-1.7-6.4
			C178.4,88.3,177.4,87.8,176.2,87.8z"/>
		<path d="M194.1,86.7v3.4c1.3-2.3,2.6-3.4,3.9-3.4c0.6,0,1.1,0.2,1.5,0.6c0.4,0.4,0.6,0.8,0.6,1.3c0,0.4-0.1,0.8-0.4,1.1
			s-0.6,0.4-1,0.4c-0.4,0-0.8-0.2-1.3-0.6c-0.5-0.4-0.8-0.6-1.1-0.6c-0.2,0-0.4,0.1-0.6,0.3c-0.5,0.5-1,1.2-1.5,2.2v7.3
			c0,0.8,0.1,1.5,0.3,1.9c0.1,0.3,0.4,0.5,0.8,0.7s0.9,0.3,1.6,0.3v0.6H189v-0.6c0.8,0,1.4-0.1,1.7-0.4c0.3-0.2,0.5-0.5,0.6-0.8
			c0.1-0.2,0.1-0.7,0.1-1.6v-5.9c0-1.8,0-2.8-0.1-3.2c-0.1-0.3-0.2-0.6-0.4-0.7c-0.2-0.2-0.4-0.2-0.7-0.2c-0.3,0-0.7,0.1-1.2,0.2
			l-0.2-0.6l4.6-1.9H194.1z"/>
		<path d="M206.9,92.9c0,2.3,0.5,4,1.6,5.3c1.1,1.3,2.4,1.9,3.9,1.9c1,0,1.9-0.3,2.6-0.8c0.7-0.5,1.4-1.5,1.9-2.8l0.5,0.3
			c-0.2,1.5-0.9,2.9-2,4.1s-2.5,1.9-4.2,1.9c-1.8,0-3.4-0.7-4.7-2.1c-1.3-1.4-2-3.3-2-5.7c0-2.6,0.7-4.6,2-6.1c1.3-1.5,3-2.2,5-2.2
			c1.7,0,3.1,0.6,4.2,1.7c1.1,1.1,1.6,2.6,1.6,4.5H206.9z M206.9,91.9h7c-0.1-1-0.2-1.7-0.3-2.1c-0.3-0.6-0.7-1.1-1.2-1.5
			c-0.5-0.4-1.1-0.5-1.7-0.5c-0.9,0-1.7,0.4-2.5,1.1C207.5,89.7,207,90.7,206.9,91.9z"/>
	</g>
</g>
<g>
	<g>
		<polygon points="76,91.5 64.1,81.5 52.3,91.3 40.5,81.5 28.8,91.3 15.4,80.1 17.5,78.2 28.8,87.7 40.5,77.8 52.3,87.7 64.1,77.8 
			77.8,89.3 		"/>
	</g>
	<g>
		<g>
			<path d="M7.8,86.4l2.2-1.8l0.5,0.8c9.8,16.6,27.9,26.9,47.1,26.9c30.2,0,54.7-24.5,54.7-54.7S87.7,2.8,57.5,2.8
				S2.8,27.3,2.8,57.5c0,5.6,0.8,11.1,2.5,16.4L17,64l11.8,9.9l11.9-10l1.8,2.1L28.8,77.6L17,67.7L4,78.7l-0.9-2.5
				C1,70.2,0,63.9,0,57.5C0,25.8,25.8,0,57.5,0S115,25.8,115,57.5S89.2,115,57.5,115C37.3,115,18.3,104.2,8,86.8L7.8,86.4"/>
		</g>
	</g>
</g>
</svg>
