<?xml version="1.0" encoding="utf-8"?>
<!-- Generator: Adobe Illustrator 19.0.1, SVG Export Plug-In . SVG Version: 6.00 Build 0)  -->
<svg version="1.1" id="圖層_1" xmlns="http://www.w3.org/2000/svg" xmlns:xlink="http://www.w3.org/1999/xlink" x="0px" y="0px"
	 viewBox="0 0 123.2 318.7" style="enable-background:new 0 0 123.2 318.7;" xml:space="preserve">
<style type="text/css">
	.st0{stroke:#000000;stroke-width:2;stroke-linecap:square;stroke-miterlimit:10;}
</style>
<g>
	<g>
		<path d="M69.7,176.9c0,2.3-0.9,4.2-2.6,5.5c-1.5,1.2-3.2,1.8-5.1,1.8c-1.4,0-2.7-0.3-4.1-1c-1.4-0.7-2.4-1.6-3.2-2.7
			c-0.7-1.1-1.1-2.4-1.1-3.8c0-2.3,0.9-4.1,2.7-5.5c1.5-1.1,3.3-1.7,5.2-1.7c1.4,0,2.8,0.3,4.2,1s2.4,1.6,3.1,2.7
			C69.3,174.4,69.7,175.6,69.7,176.9z M68.6,176.4c0-0.6-0.2-1.2-0.5-1.8c-0.3-0.6-1-1.1-1.8-1.4c-0.9-0.4-2-0.5-3.4-0.5
			c-2.2,0-4.1,0.4-5.7,1.3c-1.6,0.9-2.4,2-2.4,3.5c0,1.1,0.4,2,1.3,2.7c0.9,0.7,2.4,1,4.6,1c2.7,0,4.8-0.6,6.4-1.7
			C68.1,178.6,68.6,177.6,68.6,176.4z"/>
		<path d="M66.4,194.3c2.1,1.8,3.2,3.5,3.2,5.1c0,0.8-0.2,1.5-0.6,2.1s-1.1,1.1-2.1,1.4c-0.7,0.2-1.7,0.4-3.1,0.4h-6.5
			c-1,0-1.6,0.1-2,0.2c-0.3,0.1-0.5,0.3-0.6,0.6c-0.2,0.3-0.2,0.8-0.2,1.5H54v-7.5h0.6v0.3c0,0.7,0.1,1.2,0.3,1.5
			c0.2,0.3,0.5,0.5,1,0.6c0.2,0,0.7,0.1,1.6,0.1h6.2c1.4,0,2.4-0.2,3-0.5c0.6-0.4,0.9-1,0.9-1.8c0-1.3-0.7-2.6-2.2-3.9h-8
			c-1,0-1.7,0.1-1.9,0.2c-0.3,0.2-0.6,0.4-0.7,0.6c-0.1,0.3-0.2,0.8-0.2,1.7H54v-7.5h0.6v0.3c0,0.8,0.2,1.3,0.6,1.6
			c0.4,0.3,1.1,0.4,2.2,0.4h5.6c1.8,0,2.9,0,3.3-0.1c0.4-0.1,0.7-0.2,0.8-0.4c0.1-0.2,0.2-0.4,0.2-0.7c0-0.3-0.1-0.7-0.2-1.1
			l0.6-0.2l1.9,4.6v0.7H66.4z"/>
		<path d="M63.5,212.8c-2.3,0-4,0.5-5.3,1.6c-1.3,1.1-1.9,2.4-1.9,3.9c0,1,0.3,1.9,0.8,2.6s1.5,1.4,2.8,1.9l-0.3,0.5
			c-1.5-0.2-2.9-0.9-4.1-2c-1.2-1.1-1.9-2.5-1.9-4.2c0-1.8,0.7-3.4,2.1-4.7c1.4-1.3,3.3-2,5.7-2c2.6,0,4.6,0.7,6.1,2
			c1.5,1.3,2.2,3,2.2,5c0,1.7-0.6,3.1-1.7,4.2c-1.1,1.1-2.6,1.6-4.5,1.6V212.8z M64.5,212.8v7c1-0.1,1.7-0.2,2.1-0.3
			c0.6-0.3,1.1-0.7,1.5-1.2c0.4-0.5,0.5-1.1,0.5-1.7c0-0.9-0.4-1.7-1.1-2.5S65.7,212.9,64.5,212.8z"/>
		<path d="M66.4,245.2c1.1,1.1,1.7,1.8,1.9,2c0.4,0.5,0.7,1,1,1.6c0.2,0.6,0.3,1.1,0.3,1.7c0,1-0.3,1.8-0.8,2.5
			c-0.6,0.7-1.4,1.1-2.4,1.4c1.3,1.1,2.2,2.1,2.6,2.9c0.4,0.8,0.6,1.6,0.6,2.4c0,0.8-0.2,1.5-0.6,2.2s-1.1,1.1-2,1.5
			c-0.6,0.2-1.6,0.4-3,0.4h-6.5c-1,0-1.6,0.1-2,0.2c-0.2,0.1-0.5,0.3-0.6,0.6c-0.2,0.3-0.3,0.8-0.3,1.5H54v-7.5h0.6v0.3
			c0,0.7,0.1,1.2,0.4,1.5c0.2,0.3,0.5,0.4,0.8,0.5c0.2,0,0.7,0.1,1.6,0.1H64c1.2,0,2.1-0.2,2.6-0.4c0.7-0.4,1.1-1.1,1.1-2.1
			c0-0.6-0.1-1.2-0.4-1.8c-0.3-0.6-0.8-1.3-1.6-2.2l-0.2,0l-0.7,0h-7.3c-1,0-1.7,0.1-1.9,0.2c-0.3,0.1-0.5,0.3-0.6,0.7
			c-0.2,0.3-0.3,0.9-0.3,1.6H54v-7.7h0.6c0,0.8,0.1,1.4,0.3,1.7c0.2,0.3,0.5,0.5,0.9,0.7c0.2,0.1,0.7,0.1,1.6,0.1H64
			c1.2,0,2.1-0.2,2.7-0.5c0.7-0.5,1.1-1.2,1.1-2c0-0.6-0.2-1.2-0.5-1.8c-0.5-0.9-1-1.6-1.6-2.1h-8.2c-1,0-1.6,0.1-1.9,0.2
			s-0.5,0.3-0.7,0.6c-0.1,0.3-0.2,0.8-0.2,1.7H54v-7.5h0.6c0,0.7,0.1,1.2,0.2,1.5c0.1,0.3,0.4,0.5,0.7,0.6c0.3,0.1,1,0.2,1.9,0.2
			h5.8c1.7,0,2.8,0,3.2-0.1c0.4-0.1,0.6-0.2,0.8-0.4c0.1-0.2,0.2-0.4,0.2-0.7c0-0.3-0.1-0.7-0.2-1.1l0.6-0.2l1.9,4.6v0.7H66.4z"/>
		<path d="M69.7,277.9c0,2.3-0.9,4.2-2.6,5.5c-1.5,1.2-3.2,1.8-5.1,1.8c-1.4,0-2.7-0.3-4.1-1c-1.4-0.7-2.4-1.6-3.2-2.7
			c-0.7-1.1-1.1-2.4-1.1-3.8c0-2.3,0.9-4.1,2.7-5.5c1.5-1.1,3.3-1.7,5.2-1.7c1.4,0,2.8,0.3,4.2,1s2.4,1.6,3.1,2.7
			C69.3,275.5,69.7,276.7,69.7,277.9z M68.6,277.4c0-0.6-0.2-1.2-0.5-1.8c-0.3-0.6-1-1.1-1.8-1.4c-0.9-0.4-2-0.5-3.4-0.5
			c-2.2,0-4.1,0.4-5.7,1.3c-1.6,0.9-2.4,2-2.4,3.5c0,1.1,0.4,2,1.3,2.7c0.9,0.7,2.4,1,4.6,1c2.7,0,4.8-0.6,6.4-1.7
			C68.1,279.6,68.6,278.6,68.6,277.4z"/>
		<path d="M69.7,295.3h-3.4c2.3,1.3,3.4,2.6,3.4,3.9c0,0.6-0.2,1.1-0.6,1.5c-0.4,0.4-0.8,0.6-1.3,0.6c-0.4,0-0.8-0.1-1.1-0.4
			c-0.3-0.3-0.4-0.6-0.4-1c0-0.4,0.2-0.8,0.6-1.3c0.4-0.5,0.6-0.8,0.6-1.1c0-0.2-0.1-0.4-0.3-0.6c-0.5-0.5-1.2-1-2.2-1.5h-7.3
			c-0.8,0-1.5,0.1-1.9,0.3c-0.3,0.1-0.5,0.4-0.7,0.8s-0.3,0.9-0.3,1.6H54v-7.8h0.6c0,0.8,0.1,1.3,0.4,1.7c0.2,0.3,0.5,0.5,0.8,0.6
			c0.2,0.1,0.7,0.1,1.6,0.1h5.9c1.8,0,2.8,0,3.2-0.1c0.3-0.1,0.6-0.2,0.7-0.4c0.2-0.2,0.2-0.4,0.2-0.7c0-0.3-0.1-0.7-0.2-1.2
			l0.6-0.2l1.9,4.6V295.3z"/>
		<path d="M63.5,308.2c-2.3,0-4,0.5-5.3,1.6c-1.3,1.1-1.9,2.4-1.9,3.9c0,1,0.3,1.9,0.8,2.6s1.5,1.4,2.8,1.9l-0.3,0.5
			c-1.5-0.2-2.9-0.9-4.1-2c-1.2-1.1-1.9-2.5-1.9-4.2c0-1.8,0.7-3.4,2.1-4.7c1.4-1.3,3.3-2,5.7-2c2.6,0,4.6,0.7,6.1,2
			c1.5,1.3,2.2,3,2.2,5c0,1.7-0.6,3.1-1.7,4.2c-1.1,1.1-2.6,1.6-4.5,1.6V308.2z M64.5,308.2v7c1-0.1,1.7-0.2,2.1-0.3
			c0.6-0.3,1.1-0.7,1.5-1.2c0.4-0.5,0.5-1.1,0.5-1.7c0-0.9-0.4-1.7-1.1-2.5S65.7,308.3,64.5,308.2z"/>
	</g>
	<g>
		<g>
			<polygon points="81.4,98 68.6,87.3 56,97.9 43.4,87.3 30.9,97.9 16.4,85.8 18.8,83.8 30.9,94 43.4,83.4 56,94 68.6,83.4 
				83.3,95.7 			"/>
		</g>
		<g>
			<g>
				<path d="M8.3,92.5l2.3-1.9l0.5,0.9c10.5,17.8,29.9,28.8,50.5,28.8c32.3,0,58.6-26.3,58.6-58.6S93.9,3,61.6,3S3,29.3,3,61.6
					c0,6,0.9,11.9,2.7,17.6l12.6-10.6l12.6,10.6l12.8-10.7l1.9,2.3L30.9,83.1L18.3,72.5l-14,11.8l-0.9-2.6C1.1,75.2,0,68.5,0,61.6
					C0,27.6,27.6,0,61.6,0s61.6,27.6,61.6,61.6s-27.6,61.6-61.6,61.6c-21.7,0-42-11.6-53-30.3L8.3,92.5"/>
			</g>
		</g>
	</g>
	<path class="st0" d="M61.6,168.4"/>
</g>
</svg>
