<?xml version="1.0" encoding="utf-8"?>
<!-- Generator: Adobe Illustrator 19.0.1, SVG Export Plug-In . SVG Version: 6.00 Build 0)  -->
<svg version="1.1" id="圖層_1" xmlns="http://www.w3.org/2000/svg" xmlns:xlink="http://www.w3.org/1999/xlink" x="0px" y="0px"
	 viewBox="-379.3 150.2 238.7 247.3" style="enable-background:new -379.3 150.2 238.7 247.3;" xml:space="preserve">
<style type="text/css">
	.st0{fill:none;stroke:#B3DBE8;stroke-width:0.2;stroke-miterlimit:10;}
	.st1{fill:none;stroke:#B3DBE8;stroke-width:0.5;stroke-miterlimit:10;}
	.st2{stroke:#000000;stroke-width:2;stroke-linecap:square;stroke-miterlimit:10;}
</style>
<g>
	<g id="圖層_4">
		<g>
			<g>
				<g>
					<g>
						<g>
							<g>
								<g>
									<rect x="-379.1" y="150.5" class="st0" width="12.5" height="14.5"/>
									<path class="st0" d="M-366.4,165.1h-12.8v-14.8h12.8V165.1z M-379,164.8h12.2v-14.2H-379V164.8z"/>
								</g>
								<g>
									<rect x="-366.6" y="150.5" class="st0" width="12.5" height="14.5"/>
									<path class="st0" d="M-353.9,165.1h-12.8v-14.8h12.8V165.1z M-366.4,164.8h12.2v-14.2h-12.2V164.8z"/>
								</g>
								<g>
									<rect x="-354" y="150.5" class="st0" width="12.5" height="14.5"/>
									<path class="st0" d="M-341.3,165.1h-12.8v-14.8h12.8V165.1z M-353.9,164.8h12.2v-14.2h-12.2V164.8z"/>
								</g>
								<g>
									<rect x="-341.5" y="150.5" class="st0" width="12.5" height="14.5"/>
									<path class="st0" d="M-328.8,165.1h-12.8v-14.8h12.8V165.1z M-341.3,164.8h12.2v-14.2h-12.2V164.8z"/>
								</g>
								<g>
									<rect x="-328.9" y="150.5" class="st0" width="12.5" height="14.5"/>
									<path class="st0" d="M-316.2,165.1H-329v-14.8h12.8V165.1z M-328.8,164.8h12.2v-14.2h-12.2V164.8z"/>
								</g>
							</g>
							<g>
								<rect x="-316.4" y="150.5" class="st0" width="12.5" height="14.5"/>
								<path class="st0" d="M-303.7,165.1h-12.8v-14.8h12.8V165.1z M-316.2,164.8h12.2v-14.2h-12.2V164.8z"/>
							</g>
							<g>
								<rect x="-303.9" y="150.5" class="st0" width="12.5" height="14.5"/>
								<path class="st0" d="M-291.2,165.1H-304v-14.8h12.8V165.1z M-303.7,164.8h12.2v-14.2h-12.2V164.8z"/>
							</g>
							<g>
								<rect x="-291.3" y="150.5" class="st0" width="12.5" height="14.5"/>
								<path class="st0" d="M-278.6,165.1h-12.8v-14.8h12.8V165.1z M-291.2,164.8h12.2v-14.2h-12.2V164.8z"/>
							</g>
							<g>
								<rect x="-278.8" y="150.5" class="st0" width="12.5" height="14.5"/>
								<path class="st0" d="M-266.1,165.1h-12.8v-14.8h12.8V165.1z M-278.6,164.8h12.2v-14.2h-12.2V164.8z"/>
							</g>
							<g>
								<rect x="-266.2" y="150.5" class="st0" width="12.5" height="14.5"/>
								<path class="st0" d="M-253.5,165.1h-12.8v-14.8h12.8V165.1z M-266.1,164.8h12.2v-14.2h-12.2V164.8z"/>
							</g>
						</g>
						<g>
							<g>
								<rect x="-253.7" y="150.5" class="st0" width="12.5" height="14.5"/>
								<path class="st0" d="M-241,165.1h-12.8v-14.8h12.8V165.1z M-253.5,164.8h12.2v-14.2h-12.2V164.8z"/>
							</g>
							<g>
								<rect x="-241.1" y="150.5" class="st0" width="12.5" height="14.5"/>
								<path class="st0" d="M-228.4,165.1h-12.8v-14.8h12.8V165.1z M-241,164.8h12.2v-14.2H-241V164.8z"/>
							</g>
							<g>
								<rect x="-228.6" y="150.5" class="st0" width="12.5" height="14.5"/>
								<path class="st0" d="M-215.9,165.1h-12.8v-14.8h12.8C-215.9,150.3-215.9,165.1-215.9,165.1z M-228.4,164.8h12.2v-14.2h-12.2
									V164.8z"/>
							</g>
							<g>
								<rect x="-216.1" y="150.5" class="st0" width="12.5" height="14.5"/>
								<path class="st0" d="M-203.4,165.1h-12.8v-14.8h12.8C-203.4,150.3-203.4,165.1-203.4,165.1z M-215.9,164.8h12.2v-14.2h-12.2
									C-215.9,150.6-215.9,164.8-215.9,164.8z"/>
							</g>
							<g>
								<rect x="-203.5" y="150.5" class="st0" width="12.5" height="14.5"/>
								<path class="st0" d="M-190.8,165.1h-12.8v-14.8h12.8V165.1z M-203.4,164.8h12.2v-14.2h-12.2V164.8z"/>
							</g>
						</g>
						<g>
							<rect x="-191" y="150.5" class="st0" width="12.5" height="14.5"/>
							<path class="st0" d="M-178.3,165.1h-12.8v-14.8h12.8V165.1z M-190.8,164.8h12.2v-14.2h-12.2V164.8z"/>
						</g>
						<g>
							<rect x="-178.4" y="150.5" class="st0" width="12.5" height="14.5"/>
							<path class="st0" d="M-165.7,165.1h-12.9v-14.8h12.8L-165.7,165.1L-165.7,165.1z M-178.3,164.8h12.3v-14.2h-12.3V164.8z"/>
						</g>
						<g>
							<rect x="-165.9" y="150.5" class="st0" width="12.5" height="14.5"/>
							<path class="st0" d="M-153.2,165.1H-166v-14.8h12.8V165.1z M-165.7,164.8h12.2v-14.2h-12.2V164.8z"/>
						</g>
						<g>
							<rect x="-153.3" y="150.5" class="st0" width="12.5" height="14.5"/>
							<path class="st0" d="M-140.7,165.1h-12.8v-14.8h12.8V165.1z M-153.2,164.8h12.2v-14.2h-12.2V164.8z"/>
						</g>
					</g>
					<g>
						<g>
							<g>
								<g>
									<rect x="-379.1" y="165" class="st0" width="12.5" height="14.5"/>
									<path class="st0" d="M-366.4,179.6h-12.8v-14.8h12.8V179.6z M-379,179.3h12.2v-14.2H-379V179.3z"/>
								</g>
								<g>
									<rect x="-366.6" y="165" class="st0" width="12.5" height="14.5"/>
									<path class="st0" d="M-353.9,179.6h-12.8v-14.8h12.8V179.6z M-366.4,179.3h12.2v-14.2h-12.2V179.3z"/>
								</g>
								<g>
									<rect x="-354" y="165" class="st0" width="12.5" height="14.5"/>
									<path class="st0" d="M-341.3,179.6h-12.8v-14.8h12.8V179.6z M-353.9,179.3h12.2v-14.2h-12.2V179.3z"/>
								</g>
								<g>
									<rect x="-341.5" y="165" class="st0" width="12.5" height="14.5"/>
									<path class="st0" d="M-328.8,179.6h-12.8v-14.8h12.8V179.6z M-341.3,179.3h12.2v-14.2h-12.2V179.3z"/>
								</g>
								<g>
									<rect x="-328.9" y="165" class="st0" width="12.5" height="14.5"/>
									<path class="st0" d="M-316.2,179.6H-329v-14.8h12.8V179.6z M-328.8,179.3h12.2v-14.2h-12.2V179.3z"/>
								</g>
							</g>
							<g>
								<rect x="-316.4" y="165" class="st0" width="12.5" height="14.5"/>
								<path class="st0" d="M-303.7,179.6h-12.8v-14.8h12.8V179.6z M-316.2,179.3h12.2v-14.2h-12.2V179.3z"/>
							</g>
							<g>
								<rect x="-303.9" y="165" class="st0" width="12.5" height="14.5"/>
								<path class="st0" d="M-291.2,179.6H-304v-14.8h12.8V179.6z M-303.7,179.3h12.2v-14.2h-12.2V179.3z"/>
							</g>
							<g>
								<rect x="-291.3" y="165" class="st0" width="12.5" height="14.5"/>
								<path class="st0" d="M-278.6,179.6h-12.8v-14.8h12.8V179.6z M-291.2,179.3h12.2v-14.2h-12.2V179.3z"/>
							</g>
							<g>
								<rect x="-278.8" y="165" class="st0" width="12.5" height="14.5"/>
								<path class="st0" d="M-266.1,179.6h-12.8v-14.8h12.8V179.6z M-278.6,179.3h12.2v-14.2h-12.2V179.3z"/>
							</g>
							<g>
								<rect x="-266.2" y="165" class="st0" width="12.5" height="14.5"/>
								<path class="st0" d="M-253.5,179.6h-12.8v-14.8h12.8V179.6z M-266.1,179.3h12.2v-14.2h-12.2V179.3z"/>
							</g>
						</g>
						<g>
							<g>
								<rect x="-253.7" y="165" class="st0" width="12.5" height="14.5"/>
								<path class="st0" d="M-241,179.6h-12.8v-14.8h12.8V179.6z M-253.5,179.3h12.2v-14.2h-12.2V179.3z"/>
							</g>
							<g>
								<rect x="-241.1" y="165" class="st0" width="12.5" height="14.5"/>
								<path class="st0" d="M-228.4,179.6h-12.8v-14.8h12.8V179.6z M-241,179.3h12.2v-14.2H-241V179.3z"/>
							</g>
							<g>
								<rect x="-228.6" y="165" class="st0" width="12.5" height="14.5"/>
								<path class="st0" d="M-215.9,179.6h-12.8v-14.8h12.8C-215.9,164.8-215.9,179.6-215.9,179.6z M-228.4,179.3h12.2v-14.2h-12.2
									V179.3z"/>
							</g>
							<g>
								<rect x="-216.1" y="165" class="st0" width="12.5" height="14.5"/>
								<path class="st0" d="M-203.4,179.6h-12.8v-14.8h12.8C-203.4,164.8-203.4,179.6-203.4,179.6z M-215.9,179.3h12.2v-14.2h-12.2
									C-215.9,165.1-215.9,179.3-215.9,179.3z"/>
							</g>
							<g>
								<rect x="-203.5" y="165" class="st0" width="12.5" height="14.5"/>
								<path class="st0" d="M-190.8,179.6h-12.8v-14.8h12.8V179.6z M-203.4,179.3h12.2v-14.2h-12.2V179.3z"/>
							</g>
						</g>
						<g>
							<rect x="-191" y="165" class="st0" width="12.5" height="14.5"/>
							<path class="st0" d="M-178.3,179.6h-12.8v-14.8h12.8V179.6z M-190.8,179.3h12.2v-14.2h-12.2V179.3z"/>
						</g>
						<g>
							<rect x="-178.4" y="165" class="st0" width="12.5" height="14.5"/>
							<path class="st0" d="M-165.7,179.6h-12.9v-14.8h12.8L-165.7,179.6L-165.7,179.6z M-178.3,179.3h12.3v-14.2h-12.3V179.3z"/>
						</g>
						<g>
							<rect x="-165.9" y="165" class="st0" width="12.5" height="14.5"/>
							<path class="st0" d="M-153.2,179.6H-166v-14.8h12.8V179.6z M-165.7,179.3h12.2v-14.2h-12.2V179.3z"/>
						</g>
						<g>
							<rect x="-153.3" y="165" class="st0" width="12.5" height="14.5"/>
							<path class="st0" d="M-140.7,179.6h-12.8v-14.8h12.8V179.6z M-153.2,179.3h12.2v-14.2h-12.2V179.3z"/>
						</g>
					</g>
				</g>
				<g>
					<g>
						<g>
							<g>
								<g>
									<rect x="-379.1" y="179.5" class="st0" width="12.5" height="14.5"/>
									<path class="st0" d="M-366.4,194.1h-12.8v-14.8h12.8V194.1z M-379,193.8h12.2v-14.2H-379V193.8z"/>
								</g>
								<g>
									<rect x="-366.6" y="179.5" class="st0" width="12.5" height="14.5"/>
									<path class="st0" d="M-353.9,194.1h-12.8v-14.8h12.8V194.1z M-366.4,193.8h12.2v-14.2h-12.2V193.8z"/>
								</g>
								<g>
									<rect x="-354" y="179.5" class="st0" width="12.5" height="14.5"/>
									<path class="st0" d="M-341.3,194.1h-12.8v-14.8h12.8V194.1z M-353.9,193.8h12.2v-14.2h-12.2V193.8z"/>
								</g>
								<g>
									<rect x="-341.5" y="179.5" class="st0" width="12.5" height="14.5"/>
									<path class="st0" d="M-328.8,194.1h-12.8v-14.8h12.8V194.1z M-341.3,193.8h12.2v-14.2h-12.2V193.8z"/>
								</g>
								<g>
									<rect x="-328.9" y="179.5" class="st0" width="12.5" height="14.5"/>
									<path class="st0" d="M-316.2,194.1H-329v-14.8h12.8V194.1z M-328.8,193.8h12.2v-14.2h-12.2V193.8z"/>
								</g>
							</g>
							<g>
								<rect x="-316.4" y="179.5" class="st0" width="12.5" height="14.5"/>
								<path class="st0" d="M-303.7,194.1h-12.8v-14.8h12.8V194.1z M-316.2,193.8h12.2v-14.2h-12.2V193.8z"/>
							</g>
							<g>
								<rect x="-303.9" y="179.5" class="st0" width="12.5" height="14.5"/>
								<path class="st0" d="M-291.2,194.1H-304v-14.8h12.8V194.1z M-303.7,193.8h12.2v-14.2h-12.2V193.8z"/>
							</g>
							<g>
								<rect x="-291.3" y="179.5" class="st0" width="12.5" height="14.5"/>
								<path class="st0" d="M-278.6,194.1h-12.8v-14.8h12.8V194.1z M-291.2,193.8h12.2v-14.2h-12.2V193.8z"/>
							</g>
							<g>
								<rect x="-278.8" y="179.5" class="st0" width="12.5" height="14.5"/>
								<path class="st0" d="M-266.1,194.1h-12.8v-14.8h12.8V194.1z M-278.6,193.8h12.2v-14.2h-12.2V193.8z"/>
							</g>
							<g>
								<rect x="-266.2" y="179.5" class="st0" width="12.5" height="14.5"/>
								<path class="st0" d="M-253.5,194.1h-12.8v-14.8h12.8V194.1z M-266.1,193.8h12.2v-14.2h-12.2V193.8z"/>
							</g>
						</g>
						<g>
							<g>
								<rect x="-253.7" y="179.5" class="st0" width="12.5" height="14.5"/>
								<path class="st0" d="M-241,194.1h-12.8v-14.8h12.8V194.1z M-253.5,193.8h12.2v-14.2h-12.2V193.8z"/>
							</g>
							<g>
								<rect x="-241.1" y="179.5" class="st0" width="12.5" height="14.5"/>
								<path class="st0" d="M-228.4,194.1h-12.8v-14.8h12.8V194.1z M-241,193.8h12.2v-14.2H-241V193.8z"/>
							</g>
							<g>
								<rect x="-228.6" y="179.5" class="st0" width="12.5" height="14.5"/>
								<path class="st0" d="M-215.9,194.1h-12.8v-14.8h12.8C-215.9,179.3-215.9,194.1-215.9,194.1z M-228.4,193.8h12.2v-14.2h-12.2
									V193.8z"/>
							</g>
							<g>
								<rect x="-216.1" y="179.5" class="st0" width="12.5" height="14.5"/>
								<path class="st0" d="M-203.4,194.1h-12.8v-14.8h12.8C-203.4,179.3-203.4,194.1-203.4,194.1z M-215.9,193.8h12.2v-14.2h-12.2
									C-215.9,179.6-215.9,193.8-215.9,193.8z"/>
							</g>
							<g>
								<rect x="-203.5" y="179.5" class="st0" width="12.5" height="14.5"/>
								<path class="st0" d="M-190.8,194.1h-12.8v-14.8h12.8V194.1z M-203.4,193.8h12.2v-14.2h-12.2V193.8z"/>
							</g>
						</g>
						<g>
							<rect x="-191" y="179.5" class="st0" width="12.5" height="14.5"/>
							<path class="st0" d="M-178.3,194.1h-12.8v-14.8h12.8V194.1z M-190.8,193.8h12.2v-14.2h-12.2V193.8z"/>
						</g>
						<g>
							<rect x="-178.4" y="179.5" class="st0" width="12.5" height="14.5"/>
							<path class="st0" d="M-165.7,194.1h-12.9v-14.8h12.8L-165.7,194.1L-165.7,194.1z M-178.3,193.8h12.3v-14.2h-12.3V193.8z"/>
						</g>
						<g>
							<rect x="-165.9" y="179.5" class="st0" width="12.5" height="14.5"/>
							<path class="st0" d="M-153.2,194.1H-166v-14.8h12.8V194.1z M-165.7,193.8h12.2v-14.2h-12.2V193.8z"/>
						</g>
						<g>
							<rect x="-153.3" y="179.5" class="st0" width="12.5" height="14.5"/>
							<path class="st0" d="M-140.7,194.1h-12.8v-14.8h12.8V194.1z M-153.2,193.8h12.2v-14.2h-12.2V193.8z"/>
						</g>
					</g>
					<g>
						<g>
							<g>
								<g>
									<rect x="-379.1" y="194" class="st0" width="12.5" height="14.5"/>
									<path class="st0" d="M-366.4,208.7h-12.8v-14.8h12.8V208.7z M-379,208.4h12.2v-14.2H-379V208.4z"/>
								</g>
								<g>
									<rect x="-366.6" y="194" class="st0" width="12.5" height="14.5"/>
									<path class="st0" d="M-353.9,208.7h-12.8v-14.8h12.8V208.7z M-366.4,208.4h12.2v-14.2h-12.2V208.4z"/>
								</g>
								<g>
									<rect x="-354" y="194" class="st0" width="12.5" height="14.5"/>
									<path class="st0" d="M-341.3,208.7h-12.8v-14.8h12.8V208.7z M-353.9,208.4h12.2v-14.2h-12.2V208.4z"/>
								</g>
								<g>
									<rect x="-341.5" y="194" class="st0" width="12.5" height="14.5"/>
									<path class="st0" d="M-328.8,208.7h-12.8v-14.8h12.8V208.7z M-341.3,208.4h12.2v-14.2h-12.2V208.4z"/>
								</g>
								<g>
									<rect x="-328.9" y="194" class="st0" width="12.5" height="14.5"/>
									<path class="st0" d="M-316.2,208.7H-329v-14.8h12.8V208.7z M-328.8,208.4h12.2v-14.2h-12.2V208.4z"/>
								</g>
							</g>
							<g>
								<rect x="-316.4" y="194" class="st0" width="12.5" height="14.5"/>
								<path class="st0" d="M-303.7,208.7h-12.8v-14.8h12.8V208.7z M-316.2,208.4h12.2v-14.2h-12.2V208.4z"/>
							</g>
							<g>
								<rect x="-303.9" y="194" class="st0" width="12.5" height="14.5"/>
								<path class="st0" d="M-291.2,208.7H-304v-14.8h12.8V208.7z M-303.7,208.4h12.2v-14.2h-12.2V208.4z"/>
							</g>
							<g>
								<rect x="-291.3" y="194" class="st0" width="12.5" height="14.5"/>
								<path class="st0" d="M-278.6,208.7h-12.8v-14.8h12.8V208.7z M-291.2,208.4h12.2v-14.2h-12.2V208.4z"/>
							</g>
							<g>
								<rect x="-278.8" y="194" class="st0" width="12.5" height="14.5"/>
								<path class="st0" d="M-266.1,208.7h-12.8v-14.8h12.8V208.7z M-278.6,208.4h12.2v-14.2h-12.2V208.4z"/>
							</g>
							<g>
								<rect x="-266.2" y="194" class="st0" width="12.5" height="14.5"/>
								<path class="st0" d="M-253.5,208.7h-12.8v-14.8h12.8V208.7z M-266.1,208.4h12.2v-14.2h-12.2V208.4z"/>
							</g>
						</g>
						<g>
							<g>
								<rect x="-253.7" y="194" class="st0" width="12.5" height="14.5"/>
								<path class="st0" d="M-241,208.7h-12.8v-14.8h12.8V208.7z M-253.5,208.4h12.2v-14.2h-12.2V208.4z"/>
							</g>
							<g>
								<rect x="-241.1" y="194" class="st0" width="12.5" height="14.5"/>
								<path class="st0" d="M-228.4,208.7h-12.8v-14.8h12.8V208.7z M-241,208.4h12.2v-14.2H-241V208.4z"/>
							</g>
							<g>
								<rect x="-228.6" y="194" class="st0" width="12.5" height="14.5"/>
								<path class="st0" d="M-215.9,208.7h-12.8v-14.8h12.8C-215.9,193.9-215.9,208.7-215.9,208.7z M-228.4,208.4h12.2v-14.2h-12.2
									V208.4z"/>
							</g>
							<g>
								<rect x="-216.1" y="194" class="st0" width="12.5" height="14.5"/>
								<path class="st0" d="M-203.4,208.7h-12.8v-14.8h12.8C-203.4,193.9-203.4,208.7-203.4,208.7z M-215.9,208.4h12.2v-14.2h-12.2
									C-215.9,194.2-215.9,208.4-215.9,208.4z"/>
							</g>
							<g>
								<rect x="-203.5" y="194" class="st0" width="12.5" height="14.5"/>
								<path class="st0" d="M-190.8,208.7h-12.8v-14.8h12.8V208.7z M-203.4,208.4h12.2v-14.2h-12.2V208.4z"/>
							</g>
						</g>
						<g>
							<rect x="-191" y="194" class="st0" width="12.5" height="14.5"/>
							<path class="st0" d="M-178.3,208.7h-12.8v-14.8h12.8V208.7z M-190.8,208.4h12.2v-14.2h-12.2V208.4z"/>
						</g>
						<g>
							<rect x="-178.4" y="194" class="st0" width="12.5" height="14.5"/>
							<path class="st0" d="M-165.7,208.7h-12.9v-14.8h12.8L-165.7,208.7L-165.7,208.7z M-178.3,208.4h12.3v-14.2h-12.3V208.4z"/>
						</g>
						<g>
							<rect x="-165.9" y="194" class="st0" width="12.5" height="14.5"/>
							<path class="st0" d="M-153.2,208.7H-166v-14.8h12.8V208.7z M-165.7,208.4h12.2v-14.2h-12.2V208.4z"/>
						</g>
						<g>
							<rect x="-153.3" y="194" class="st0" width="12.5" height="14.5"/>
							<path class="st0" d="M-140.7,208.7h-12.8v-14.8h12.8V208.7z M-153.2,208.4h12.2v-14.2h-12.2V208.4z"/>
						</g>
					</g>
				</g>
			</g>
			<g>
				<g>
					<g>
						<g>
							<g>
								<g>
									<rect x="-379.1" y="208.5" class="st0" width="12.5" height="14.5"/>
									<path class="st0" d="M-366.4,223.2h-12.8v-14.8h12.8V223.2z M-379,222.9h12.2v-14.2H-379V222.9z"/>
								</g>
								<g>
									<rect x="-366.6" y="208.5" class="st0" width="12.5" height="14.5"/>
									<path class="st0" d="M-353.9,223.2h-12.8v-14.8h12.8V223.2z M-366.4,222.9h12.2v-14.2h-12.2V222.9z"/>
								</g>
								<g>
									<rect x="-354" y="208.5" class="st0" width="12.5" height="14.5"/>
									<path class="st0" d="M-341.3,223.2h-12.8v-14.8h12.8V223.2z M-353.9,222.9h12.2v-14.2h-12.2V222.9z"/>
								</g>
								<g>
									<rect x="-341.5" y="208.5" class="st0" width="12.5" height="14.5"/>
									<path class="st0" d="M-328.8,223.2h-12.8v-14.8h12.8V223.2z M-341.3,222.9h12.2v-14.2h-12.2V222.9z"/>
								</g>
								<g>
									<rect x="-328.9" y="208.5" class="st0" width="12.5" height="14.5"/>
									<path class="st0" d="M-316.2,223.2H-329v-14.8h12.8V223.2z M-328.8,222.9h12.2v-14.2h-12.2V222.9z"/>
								</g>
							</g>
							<g>
								<rect x="-316.4" y="208.5" class="st0" width="12.5" height="14.5"/>
								<path class="st0" d="M-303.7,223.2h-12.8v-14.8h12.8V223.2z M-316.2,222.9h12.2v-14.2h-12.2V222.9z"/>
							</g>
							<g>
								<rect x="-303.9" y="208.5" class="st0" width="12.5" height="14.5"/>
								<path class="st0" d="M-291.2,223.2H-304v-14.8h12.8V223.2z M-303.7,222.9h12.2v-14.2h-12.2V222.9z"/>
							</g>
							<g>
								<rect x="-291.3" y="208.5" class="st0" width="12.5" height="14.5"/>
								<path class="st0" d="M-278.6,223.2h-12.8v-14.8h12.8V223.2z M-291.2,222.9h12.2v-14.2h-12.2V222.9z"/>
							</g>
							<g>
								<rect x="-278.8" y="208.5" class="st0" width="12.5" height="14.5"/>
								<path class="st0" d="M-266.1,223.2h-12.8v-14.8h12.8V223.2z M-278.6,222.9h12.2v-14.2h-12.2V222.9z"/>
							</g>
							<g>
								<rect x="-266.2" y="208.5" class="st0" width="12.5" height="14.5"/>
								<path class="st0" d="M-253.5,223.2h-12.8v-14.8h12.8V223.2z M-266.1,222.9h12.2v-14.2h-12.2V222.9z"/>
							</g>
						</g>
						<g>
							<g>
								<rect x="-253.7" y="208.5" class="st0" width="12.5" height="14.5"/>
								<path class="st0" d="M-241,223.2h-12.8v-14.8h12.8V223.2z M-253.5,222.9h12.2v-14.2h-12.2V222.9z"/>
							</g>
							<g>
								<rect x="-241.1" y="208.5" class="st0" width="12.5" height="14.5"/>
								<path class="st0" d="M-228.4,223.2h-12.8v-14.8h12.8V223.2z M-241,222.9h12.2v-14.2H-241V222.9z"/>
							</g>
							<g>
								<rect x="-228.6" y="208.5" class="st0" width="12.5" height="14.5"/>
								<path class="st0" d="M-215.9,223.2h-12.8v-14.8h12.8C-215.9,208.4-215.9,223.2-215.9,223.2z M-228.4,222.9h12.2v-14.2h-12.2
									V222.9z"/>
							</g>
							<g>
								<rect x="-216.1" y="208.5" class="st0" width="12.5" height="14.5"/>
								<path class="st0" d="M-203.4,223.2h-12.8v-14.8h12.8C-203.4,208.4-203.4,223.2-203.4,223.2z M-215.9,222.9h12.2v-14.2h-12.2
									C-215.9,208.7-215.9,222.9-215.9,222.9z"/>
							</g>
							<g>
								<rect x="-203.5" y="208.5" class="st0" width="12.5" height="14.5"/>
								<path class="st0" d="M-190.8,223.2h-12.8v-14.8h12.8V223.2z M-203.4,222.9h12.2v-14.2h-12.2V222.9z"/>
							</g>
						</g>
						<g>
							<rect x="-191" y="208.5" class="st0" width="12.5" height="14.5"/>
							<path class="st0" d="M-178.3,223.2h-12.8v-14.8h12.8V223.2z M-190.8,222.9h12.2v-14.2h-12.2V222.9z"/>
						</g>
						<g>
							<rect x="-178.4" y="208.5" class="st0" width="12.5" height="14.5"/>
							<path class="st0" d="M-165.7,223.2h-12.9v-14.8h12.8L-165.7,223.2L-165.7,223.2z M-178.3,222.9h12.3v-14.2h-12.3V222.9z"/>
						</g>
						<g>
							<rect x="-165.9" y="208.5" class="st0" width="12.5" height="14.5"/>
							<path class="st0" d="M-153.2,223.2H-166v-14.8h12.8V223.2z M-165.7,222.9h12.2v-14.2h-12.2V222.9z"/>
						</g>
						<g>
							<rect x="-153.3" y="208.5" class="st0" width="12.5" height="14.5"/>
							<path class="st0" d="M-140.7,223.2h-12.8v-14.8h12.8V223.2z M-153.2,222.9h12.2v-14.2h-12.2V222.9z"/>
						</g>
					</g>
					<g>
						<g>
							<g>
								<g>
									<rect x="-379.1" y="223" class="st0" width="12.5" height="14.5"/>
									<path class="st0" d="M-366.4,237.7h-12.8v-14.8h12.8V237.7z M-379,237.4h12.2v-14.2H-379V237.4z"/>
								</g>
								<g>
									<rect x="-366.6" y="223" class="st0" width="12.5" height="14.5"/>
									<path class="st0" d="M-353.9,237.7h-12.8v-14.8h12.8V237.7z M-366.4,237.4h12.2v-14.2h-12.2V237.4z"/>
								</g>
								<g>
									<rect x="-354" y="223" class="st0" width="12.5" height="14.5"/>
									<path class="st0" d="M-341.3,237.7h-12.8v-14.8h12.8V237.7z M-353.9,237.4h12.2v-14.2h-12.2V237.4z"/>
								</g>
								<g>
									<rect x="-341.5" y="223" class="st0" width="12.5" height="14.5"/>
									<path class="st0" d="M-328.8,237.7h-12.8v-14.8h12.8V237.7z M-341.3,237.4h12.2v-14.2h-12.2V237.4z"/>
								</g>
								<g>
									<rect x="-328.9" y="223" class="st0" width="12.5" height="14.5"/>
									<path class="st0" d="M-316.2,237.7H-329v-14.8h12.8V237.7z M-328.8,237.4h12.2v-14.2h-12.2V237.4z"/>
								</g>
							</g>
							<g>
								<rect x="-316.4" y="223" class="st0" width="12.5" height="14.5"/>
								<path class="st0" d="M-303.7,237.7h-12.8v-14.8h12.8V237.7z M-316.2,237.4h12.2v-14.2h-12.2V237.4z"/>
							</g>
							<g>
								<rect x="-303.9" y="223" class="st0" width="12.5" height="14.5"/>
								<path class="st0" d="M-291.2,237.7H-304v-14.8h12.8V237.7z M-303.7,237.4h12.2v-14.2h-12.2V237.4z"/>
							</g>
							<g>
								<rect x="-291.3" y="223" class="st0" width="12.5" height="14.5"/>
								<path class="st0" d="M-278.6,237.7h-12.8v-14.8h12.8V237.7z M-291.2,237.4h12.2v-14.2h-12.2V237.4z"/>
							</g>
							<g>
								<rect x="-278.8" y="223" class="st0" width="12.5" height="14.5"/>
								<path class="st0" d="M-266.1,237.7h-12.8v-14.8h12.8V237.7z M-278.6,237.4h12.2v-14.2h-12.2V237.4z"/>
							</g>
							<g>
								<rect x="-266.2" y="223" class="st0" width="12.5" height="14.5"/>
								<path class="st0" d="M-253.5,237.7h-12.8v-14.8h12.8V237.7z M-266.1,237.4h12.2v-14.2h-12.2V237.4z"/>
							</g>
						</g>
						<g>
							<g>
								<rect x="-253.7" y="223" class="st0" width="12.5" height="14.5"/>
								<path class="st0" d="M-241,237.7h-12.8v-14.8h12.8V237.7z M-253.5,237.4h12.2v-14.2h-12.2V237.4z"/>
							</g>
							<g>
								<rect x="-241.1" y="223" class="st0" width="12.5" height="14.5"/>
								<path class="st0" d="M-228.4,237.7h-12.8v-14.8h12.8V237.7z M-241,237.4h12.2v-14.2H-241V237.4z"/>
							</g>
							<g>
								<rect x="-228.6" y="223" class="st0" width="12.5" height="14.5"/>
								<path class="st0" d="M-215.9,237.7h-12.8v-14.8h12.8C-215.9,222.9-215.9,237.7-215.9,237.7z M-228.4,237.4h12.2v-14.2h-12.2
									V237.4z"/>
							</g>
							<g>
								<rect x="-216.1" y="223" class="st0" width="12.5" height="14.5"/>
								<path class="st0" d="M-203.4,237.7h-12.8v-14.8h12.8C-203.4,222.9-203.4,237.7-203.4,237.7z M-215.9,237.4h12.2v-14.2h-12.2
									C-215.9,223.2-215.9,237.4-215.9,237.4z"/>
							</g>
							<g>
								<rect x="-203.5" y="223" class="st0" width="12.5" height="14.5"/>
								<path class="st0" d="M-190.8,237.7h-12.8v-14.8h12.8V237.7z M-203.4,237.4h12.2v-14.2h-12.2V237.4z"/>
							</g>
						</g>
						<g>
							<rect x="-191" y="223" class="st0" width="12.5" height="14.5"/>
							<path class="st0" d="M-178.3,237.7h-12.8v-14.8h12.8V237.7z M-190.8,237.4h12.2v-14.2h-12.2V237.4z"/>
						</g>
						<g>
							<rect x="-178.4" y="223" class="st0" width="12.5" height="14.5"/>
							<path class="st0" d="M-165.7,237.7h-12.9v-14.8h12.8L-165.7,237.7L-165.7,237.7z M-178.3,237.4h12.3v-14.2h-12.3V237.4z"/>
						</g>
						<g>
							<rect x="-165.9" y="223" class="st0" width="12.5" height="14.5"/>
							<path class="st0" d="M-153.2,237.7H-166v-14.8h12.8V237.7z M-165.7,237.4h12.2v-14.2h-12.2V237.4z"/>
						</g>
						<g>
							<rect x="-153.3" y="223" class="st0" width="12.5" height="14.5"/>
							<path class="st0" d="M-140.7,237.7h-12.8v-14.8h12.8V237.7z M-153.2,237.4h12.2v-14.2h-12.2V237.4z"/>
						</g>
					</g>
				</g>
				<g>
					<g>
						<g>
							<g>
								<g>
									<rect x="-379.1" y="237.5" class="st0" width="12.5" height="14.5"/>
									<path class="st0" d="M-366.4,252.2h-12.8v-14.8h12.8V252.2z M-379,251.9h12.2v-14.2H-379V251.9z"/>
								</g>
								<g>
									<rect x="-366.6" y="237.5" class="st0" width="12.5" height="14.5"/>
									<path class="st0" d="M-353.9,252.2h-12.8v-14.8h12.8V252.2z M-366.4,251.9h12.2v-14.2h-12.2V251.9z"/>
								</g>
								<g>
									<rect x="-354" y="237.5" class="st0" width="12.5" height="14.5"/>
									<path class="st0" d="M-341.3,252.2h-12.8v-14.8h12.8V252.2z M-353.9,251.9h12.2v-14.2h-12.2V251.9z"/>
								</g>
								<g>
									<rect x="-341.5" y="237.5" class="st0" width="12.5" height="14.5"/>
									<path class="st0" d="M-328.8,252.2h-12.8v-14.8h12.8V252.2z M-341.3,251.9h12.2v-14.2h-12.2V251.9z"/>
								</g>
								<g>
									<rect x="-328.9" y="237.5" class="st0" width="12.5" height="14.5"/>
									<path class="st0" d="M-316.2,252.2H-329v-14.8h12.8V252.2z M-328.8,251.9h12.2v-14.2h-12.2V251.9z"/>
								</g>
							</g>
							<g>
								<rect x="-316.4" y="237.5" class="st0" width="12.5" height="14.5"/>
								<path class="st0" d="M-303.7,252.2h-12.8v-14.8h12.8V252.2z M-316.2,251.9h12.2v-14.2h-12.2V251.9z"/>
							</g>
							<g>
								<rect x="-303.9" y="237.5" class="st0" width="12.5" height="14.5"/>
								<path class="st0" d="M-291.2,252.2H-304v-14.8h12.8V252.2z M-303.7,251.9h12.2v-14.2h-12.2V251.9z"/>
							</g>
							<g>
								<rect x="-291.3" y="237.5" class="st0" width="12.5" height="14.5"/>
								<path class="st0" d="M-278.6,252.2h-12.8v-14.8h12.8V252.2z M-291.2,251.9h12.2v-14.2h-12.2V251.9z"/>
							</g>
							<g>
								<rect x="-278.8" y="237.5" class="st0" width="12.5" height="14.5"/>
								<path class="st0" d="M-266.1,252.2h-12.8v-14.8h12.8V252.2z M-278.6,251.9h12.2v-14.2h-12.2V251.9z"/>
							</g>
							<g>
								<rect x="-266.2" y="237.5" class="st0" width="12.5" height="14.5"/>
								<path class="st0" d="M-253.5,252.2h-12.8v-14.8h12.8V252.2z M-266.1,251.9h12.2v-14.2h-12.2V251.9z"/>
							</g>
						</g>
						<g>
							<g>
								<rect x="-253.7" y="237.5" class="st0" width="12.5" height="14.5"/>
								<path class="st0" d="M-241,252.2h-12.8v-14.8h12.8V252.2z M-253.5,251.9h12.2v-14.2h-12.2V251.9z"/>
							</g>
							<g>
								<rect x="-241.1" y="237.5" class="st0" width="12.5" height="14.5"/>
								<path class="st0" d="M-228.4,252.2h-12.8v-14.8h12.8V252.2z M-241,251.9h12.2v-14.2H-241V251.9z"/>
							</g>
							<g>
								<rect x="-228.6" y="237.5" class="st0" width="12.5" height="14.5"/>
								<path class="st0" d="M-215.9,252.2h-12.8v-14.8h12.8C-215.9,237.4-215.9,252.2-215.9,252.2z M-228.4,251.9h12.2v-14.2h-12.2
									V251.9z"/>
							</g>
							<g>
								<rect x="-216.1" y="237.5" class="st0" width="12.5" height="14.5"/>
								<path class="st0" d="M-203.4,252.2h-12.8v-14.8h12.8C-203.4,237.4-203.4,252.2-203.4,252.2z M-215.9,251.9h12.2v-14.2h-12.2
									C-215.9,237.7-215.9,251.9-215.9,251.9z"/>
							</g>
							<g>
								<rect x="-203.5" y="237.5" class="st0" width="12.5" height="14.5"/>
								<path class="st0" d="M-190.8,252.2h-12.8v-14.8h12.8V252.2z M-203.4,251.9h12.2v-14.2h-12.2V251.9z"/>
							</g>
						</g>
						<g>
							<rect x="-191" y="237.5" class="st0" width="12.5" height="14.5"/>
							<path class="st0" d="M-178.3,252.2h-12.8v-14.8h12.8V252.2z M-190.8,251.9h12.2v-14.2h-12.2V251.9z"/>
						</g>
						<g>
							<rect x="-178.4" y="237.5" class="st0" width="12.5" height="14.5"/>
							<path class="st0" d="M-165.7,252.2h-12.9v-14.8h12.8L-165.7,252.2L-165.7,252.2z M-178.3,251.9h12.3v-14.2h-12.3V251.9z"/>
						</g>
						<g>
							<rect x="-165.9" y="237.5" class="st0" width="12.5" height="14.5"/>
							<path class="st0" d="M-153.2,252.2H-166v-14.8h12.8V252.2z M-165.7,251.9h12.2v-14.2h-12.2V251.9z"/>
						</g>
						<g>
							<rect x="-153.3" y="237.5" class="st0" width="12.5" height="14.5"/>
							<path class="st0" d="M-140.7,252.2h-12.8v-14.8h12.8V252.2z M-153.2,251.9h12.2v-14.2h-12.2V251.9z"/>
						</g>
					</g>
					<g>
						<g>
							<g>
								<g>
									<rect x="-379.1" y="252.1" class="st0" width="12.5" height="14.5"/>
									<path class="st0" d="M-366.4,266.7h-12.8v-14.8h12.8V266.7z M-379,266.4h12.2v-14.2H-379V266.4z"/>
								</g>
								<g>
									<rect x="-366.6" y="252.1" class="st0" width="12.5" height="14.5"/>
									<path class="st0" d="M-353.9,266.7h-12.8v-14.8h12.8V266.7z M-366.4,266.4h12.2v-14.2h-12.2V266.4z"/>
								</g>
								<g>
									<rect x="-354" y="252.1" class="st0" width="12.5" height="14.5"/>
									<path class="st0" d="M-341.3,266.7h-12.8v-14.8h12.8V266.7z M-353.9,266.4h12.2v-14.2h-12.2V266.4z"/>
								</g>
								<g>
									<rect x="-341.5" y="252.1" class="st0" width="12.5" height="14.5"/>
									<path class="st0" d="M-328.8,266.7h-12.8v-14.8h12.8V266.7z M-341.3,266.4h12.2v-14.2h-12.2V266.4z"/>
								</g>
								<g>
									<rect x="-328.9" y="252.1" class="st0" width="12.5" height="14.5"/>
									<path class="st0" d="M-316.2,266.7H-329v-14.8h12.8V266.7z M-328.8,266.4h12.2v-14.2h-12.2V266.4z"/>
								</g>
							</g>
							<g>
								<rect x="-316.4" y="252.1" class="st0" width="12.5" height="14.5"/>
								<path class="st0" d="M-303.7,266.7h-12.8v-14.8h12.8V266.7z M-316.2,266.4h12.2v-14.2h-12.2V266.4z"/>
							</g>
							<g>
								<rect x="-303.9" y="252.1" class="st0" width="12.5" height="14.5"/>
								<path class="st0" d="M-291.2,266.7H-304v-14.8h12.8V266.7z M-303.7,266.4h12.2v-14.2h-12.2V266.4z"/>
							</g>
							<g>
								<rect x="-291.3" y="252.1" class="st0" width="12.5" height="14.5"/>
								<path class="st0" d="M-278.6,266.7h-12.8v-14.8h12.8V266.7z M-291.2,266.4h12.2v-14.2h-12.2V266.4z"/>
							</g>
							<g>
								<rect x="-278.8" y="252.1" class="st0" width="12.5" height="14.5"/>
								<path class="st0" d="M-266.1,266.7h-12.8v-14.8h12.8V266.7z M-278.6,266.4h12.2v-14.2h-12.2V266.4z"/>
							</g>
							<g>
								<rect x="-266.2" y="252.1" class="st0" width="12.5" height="14.5"/>
								<path class="st0" d="M-253.5,266.7h-12.8v-14.8h12.8V266.7z M-266.1,266.4h12.2v-14.2h-12.2V266.4z"/>
							</g>
						</g>
						<g>
							<g>
								<rect x="-253.7" y="252.1" class="st0" width="12.5" height="14.5"/>
								<path class="st0" d="M-241,266.7h-12.8v-14.8h12.8V266.7z M-253.5,266.4h12.2v-14.2h-12.2V266.4z"/>
							</g>
							<g>
								<rect x="-241.1" y="252.1" class="st0" width="12.5" height="14.5"/>
								<path class="st0" d="M-228.4,266.7h-12.8v-14.8h12.8V266.7z M-241,266.4h12.2v-14.2H-241V266.4z"/>
							</g>
							<g>
								<rect x="-228.6" y="252.1" class="st0" width="12.5" height="14.5"/>
								<path class="st0" d="M-215.9,266.7h-12.8v-14.8h12.8C-215.9,251.9-215.9,266.7-215.9,266.7z M-228.4,266.4h12.2v-14.2h-12.2
									V266.4z"/>
							</g>
							<g>
								<rect x="-216.1" y="252.1" class="st0" width="12.5" height="14.5"/>
								<path class="st0" d="M-203.4,266.7h-12.8v-14.8h12.8C-203.4,251.9-203.4,266.7-203.4,266.7z M-215.9,266.4h12.2v-14.2h-12.2
									C-215.9,252.2-215.9,266.4-215.9,266.4z"/>
							</g>
							<g>
								<rect x="-203.5" y="252.1" class="st0" width="12.5" height="14.5"/>
								<path class="st0" d="M-190.8,266.7h-12.8v-14.8h12.8V266.7z M-203.4,266.4h12.2v-14.2h-12.2V266.4z"/>
							</g>
						</g>
						<g>
							<rect x="-191" y="252.1" class="st0" width="12.5" height="14.5"/>
							<path class="st0" d="M-178.3,266.7h-12.8v-14.8h12.8V266.7z M-190.8,266.4h12.2v-14.2h-12.2V266.4z"/>
						</g>
						<g>
							<rect x="-178.4" y="252.1" class="st0" width="12.5" height="14.5"/>
							<path class="st0" d="M-165.7,266.7h-12.9v-14.8h12.8L-165.7,266.7L-165.7,266.7z M-178.3,266.4h12.3v-14.2h-12.3V266.4z"/>
						</g>
						<g>
							<rect x="-165.9" y="252.1" class="st0" width="12.5" height="14.5"/>
							<path class="st0" d="M-153.2,266.7H-166v-14.8h12.8V266.7z M-165.7,266.4h12.2v-14.2h-12.2V266.4z"/>
						</g>
						<g>
							<rect x="-153.3" y="252.1" class="st0" width="12.5" height="14.5"/>
							<path class="st0" d="M-140.7,266.7h-12.8v-14.8h12.8V266.7z M-153.2,266.4h12.2v-14.2h-12.2V266.4z"/>
						</g>
					</g>
				</g>
			</g>
			<g>
				<g>
					<g>
						<g>
							<g>
								<g>
									<rect x="-379.1" y="266.6" class="st0" width="12.5" height="14.5"/>
									<path class="st0" d="M-366.4,281.2h-12.8v-14.8h12.8V281.2z M-379,280.9h12.2v-14.2H-379V280.9z"/>
								</g>
								<g>
									<rect x="-366.6" y="266.6" class="st0" width="12.5" height="14.5"/>
									<path class="st0" d="M-353.9,281.2h-12.8v-14.8h12.8V281.2z M-366.4,280.9h12.2v-14.2h-12.2V280.9z"/>
								</g>
								<g>
									<rect x="-354" y="266.6" class="st0" width="12.5" height="14.5"/>
									<path class="st0" d="M-341.3,281.2h-12.8v-14.8h12.8V281.2z M-353.9,280.9h12.2v-14.2h-12.2V280.9z"/>
								</g>
								<g>
									<rect x="-341.5" y="266.6" class="st0" width="12.5" height="14.5"/>
									<path class="st0" d="M-328.8,281.2h-12.8v-14.8h12.8V281.2z M-341.3,280.9h12.2v-14.2h-12.2V280.9z"/>
								</g>
								<g>
									<rect x="-328.9" y="266.6" class="st0" width="12.5" height="14.5"/>
									<path class="st0" d="M-316.2,281.2H-329v-14.8h12.8V281.2z M-328.8,280.9h12.2v-14.2h-12.2V280.9z"/>
								</g>
							</g>
							<g>
								<rect x="-316.4" y="266.6" class="st0" width="12.5" height="14.5"/>
								<path class="st0" d="M-303.7,281.2h-12.8v-14.8h12.8V281.2z M-316.2,280.9h12.2v-14.2h-12.2V280.9z"/>
							</g>
							<g>
								<rect x="-303.9" y="266.6" class="st0" width="12.5" height="14.5"/>
								<path class="st0" d="M-291.2,281.2H-304v-14.8h12.8V281.2z M-303.7,280.9h12.2v-14.2h-12.2V280.9z"/>
							</g>
							<g>
								<rect x="-291.3" y="266.6" class="st0" width="12.5" height="14.5"/>
								<path class="st0" d="M-278.6,281.2h-12.8v-14.8h12.8V281.2z M-291.2,280.9h12.2v-14.2h-12.2V280.9z"/>
							</g>
							<g>
								<rect x="-278.8" y="266.6" class="st0" width="12.5" height="14.5"/>
								<path class="st0" d="M-266.1,281.2h-12.8v-14.8h12.8V281.2z M-278.6,280.9h12.2v-14.2h-12.2V280.9z"/>
							</g>
							<g>
								<rect x="-266.2" y="266.6" class="st0" width="12.5" height="14.5"/>
								<path class="st0" d="M-253.5,281.2h-12.8v-14.8h12.8V281.2z M-266.1,280.9h12.2v-14.2h-12.2V280.9z"/>
							</g>
						</g>
						<g>
							<g>
								<rect x="-253.7" y="266.6" class="st0" width="12.5" height="14.5"/>
								<path class="st0" d="M-241,281.2h-12.8v-14.8h12.8V281.2z M-253.5,280.9h12.2v-14.2h-12.2V280.9z"/>
							</g>
							<g>
								<rect x="-241.1" y="266.6" class="st0" width="12.5" height="14.5"/>
								<path class="st0" d="M-228.4,281.2h-12.8v-14.8h12.8V281.2z M-241,280.9h12.2v-14.2H-241V280.9z"/>
							</g>
							<g>
								<rect x="-228.6" y="266.6" class="st0" width="12.5" height="14.5"/>
								<path class="st0" d="M-215.9,281.2h-12.8v-14.8h12.8C-215.9,266.4-215.9,281.2-215.9,281.2z M-228.4,280.9h12.2v-14.2h-12.2
									V280.9z"/>
							</g>
							<g>
								<rect x="-216.1" y="266.6" class="st0" width="12.5" height="14.5"/>
								<path class="st0" d="M-203.4,281.2h-12.8v-14.8h12.8C-203.4,266.4-203.4,281.2-203.4,281.2z M-215.9,280.9h12.2v-14.2h-12.2
									C-215.9,266.7-215.9,280.9-215.9,280.9z"/>
							</g>
							<g>
								<rect x="-203.5" y="266.6" class="st0" width="12.5" height="14.5"/>
								<path class="st0" d="M-190.8,281.2h-12.8v-14.8h12.8V281.2z M-203.4,280.9h12.2v-14.2h-12.2V280.9z"/>
							</g>
						</g>
						<g>
							<rect x="-191" y="266.6" class="st0" width="12.5" height="14.5"/>
							<path class="st0" d="M-178.3,281.2h-12.8v-14.8h12.8V281.2z M-190.8,280.9h12.2v-14.2h-12.2V280.9z"/>
						</g>
						<g>
							<rect x="-178.4" y="266.6" class="st0" width="12.5" height="14.5"/>
							<path class="st0" d="M-165.7,281.2h-12.9v-14.8h12.8L-165.7,281.2L-165.7,281.2z M-178.3,280.9h12.3v-14.2h-12.3V280.9z"/>
						</g>
						<g>
							<rect x="-165.9" y="266.6" class="st0" width="12.5" height="14.5"/>
							<path class="st0" d="M-153.2,281.2H-166v-14.8h12.8V281.2z M-165.7,280.9h12.2v-14.2h-12.2V280.9z"/>
						</g>
						<g>
							<rect x="-153.3" y="266.6" class="st0" width="12.5" height="14.5"/>
							<path class="st0" d="M-140.7,281.2h-12.8v-14.8h12.8V281.2z M-153.2,280.9h12.2v-14.2h-12.2V280.9z"/>
						</g>
					</g>
					<g>
						<g>
							<g>
								<g>
									<rect x="-379.1" y="281.1" class="st0" width="12.5" height="14.5"/>
									<path class="st0" d="M-366.4,295.8h-12.8V281h12.8V295.8z M-379,295.5h12.2v-14.2H-379V295.5z"/>
								</g>
								<g>
									<rect x="-366.6" y="281.1" class="st0" width="12.5" height="14.5"/>
									<path class="st0" d="M-353.9,295.8h-12.8V281h12.8V295.8z M-366.4,295.5h12.2v-14.2h-12.2V295.5z"/>
								</g>
								<g>
									<rect x="-354" y="281.1" class="st0" width="12.5" height="14.5"/>
									<path class="st0" d="M-341.3,295.8h-12.8V281h12.8V295.8z M-353.9,295.5h12.2v-14.2h-12.2V295.5z"/>
								</g>
								<g>
									<rect x="-341.5" y="281.1" class="st0" width="12.5" height="14.5"/>
									<path class="st0" d="M-328.8,295.8h-12.8V281h12.8V295.8z M-341.3,295.5h12.2v-14.2h-12.2V295.5z"/>
								</g>
								<g>
									<rect x="-328.9" y="281.1" class="st0" width="12.5" height="14.5"/>
									<path class="st0" d="M-316.2,295.8H-329V281h12.8V295.8z M-328.8,295.5h12.2v-14.2h-12.2V295.5z"/>
								</g>
							</g>
							<g>
								<rect x="-316.4" y="281.1" class="st0" width="12.5" height="14.5"/>
								<path class="st0" d="M-303.7,295.8h-12.8V281h12.8V295.8z M-316.2,295.5h12.2v-14.2h-12.2V295.5z"/>
							</g>
							<g>
								<rect x="-303.9" y="281.1" class="st0" width="12.5" height="14.5"/>
								<path class="st0" d="M-291.2,295.8H-304V281h12.8V295.8z M-303.7,295.5h12.2v-14.2h-12.2V295.5z"/>
							</g>
							<g>
								<rect x="-291.3" y="281.1" class="st0" width="12.5" height="14.5"/>
								<path class="st0" d="M-278.6,295.8h-12.8V281h12.8V295.8z M-291.2,295.5h12.2v-14.2h-12.2V295.5z"/>
							</g>
							<g>
								<rect x="-278.8" y="281.1" class="st0" width="12.5" height="14.5"/>
								<path class="st0" d="M-266.1,295.8h-12.8V281h12.8V295.8z M-278.6,295.5h12.2v-14.2h-12.2V295.5z"/>
							</g>
							<g>
								<rect x="-266.2" y="281.1" class="st0" width="12.5" height="14.5"/>
								<path class="st0" d="M-253.5,295.8h-12.8V281h12.8V295.8z M-266.1,295.5h12.2v-14.2h-12.2V295.5z"/>
							</g>
						</g>
						<g>
							<g>
								<rect x="-253.7" y="281.1" class="st0" width="12.5" height="14.5"/>
								<path class="st0" d="M-241,295.8h-12.8V281h12.8V295.8z M-253.5,295.5h12.2v-14.2h-12.2V295.5z"/>
							</g>
							<g>
								<rect x="-241.1" y="281.1" class="st0" width="12.5" height="14.5"/>
								<path class="st0" d="M-228.4,295.8h-12.8V281h12.8V295.8z M-241,295.5h12.2v-14.2H-241V295.5z"/>
							</g>
							<g>
								<rect x="-228.6" y="281.1" class="st0" width="12.5" height="14.5"/>
								<path class="st0" d="M-215.9,295.8h-12.8V281h12.8C-215.9,281-215.9,295.8-215.9,295.8z M-228.4,295.5h12.2v-14.2h-12.2
									V295.5z"/>
							</g>
							<g>
								<rect x="-216.1" y="281.1" class="st0" width="12.5" height="14.5"/>
								<path class="st0" d="M-203.4,295.8h-12.8V281h12.8C-203.4,281-203.4,295.8-203.4,295.8z M-215.9,295.5h12.2v-14.2h-12.2
									C-215.9,281.3-215.9,295.5-215.9,295.5z"/>
							</g>
							<g>
								<rect x="-203.5" y="281.1" class="st0" width="12.5" height="14.5"/>
								<path class="st0" d="M-190.8,295.8h-12.8V281h12.8V295.8z M-203.4,295.5h12.2v-14.2h-12.2V295.5z"/>
							</g>
						</g>
						<g>
							<rect x="-191" y="281.1" class="st0" width="12.5" height="14.5"/>
							<path class="st0" d="M-178.3,295.8h-12.8V281h12.8V295.8z M-190.8,295.5h12.2v-14.2h-12.2V295.5z"/>
						</g>
						<g>
							<rect x="-178.4" y="281.1" class="st0" width="12.5" height="14.5"/>
							<path class="st0" d="M-165.7,295.8h-12.9V281h12.8L-165.7,295.8L-165.7,295.8z M-178.3,295.5h12.3v-14.2h-12.3V295.5z"/>
						</g>
						<g>
							<rect x="-165.9" y="281.1" class="st0" width="12.5" height="14.5"/>
							<path class="st0" d="M-153.2,295.8H-166V281h12.8V295.8z M-165.7,295.5h12.2v-14.2h-12.2V295.5z"/>
						</g>
						<g>
							<rect x="-153.3" y="281.1" class="st0" width="12.5" height="14.5"/>
							<path class="st0" d="M-140.7,295.8h-12.8V281h12.8V295.8z M-153.2,295.5h12.2v-14.2h-12.2V295.5z"/>
						</g>
					</g>
				</g>
				<g>
					<g>
						<g>
							<g>
								<g>
									<rect x="-379.1" y="295.6" class="st0" width="12.5" height="14.5"/>
									<path class="st0" d="M-366.4,310.3h-12.8v-14.8h12.8V310.3z M-379,310h12.2v-14.2H-379V310z"/>
								</g>
								<g>
									<rect x="-366.6" y="295.6" class="st0" width="12.5" height="14.5"/>
									<path class="st0" d="M-353.9,310.3h-12.8v-14.8h12.8V310.3z M-366.4,310h12.2v-14.2h-12.2V310z"/>
								</g>
								<g>
									<rect x="-354" y="295.6" class="st0" width="12.5" height="14.5"/>
									<path class="st0" d="M-341.3,310.3h-12.8v-14.8h12.8V310.3z M-353.9,310h12.2v-14.2h-12.2V310z"/>
								</g>
								<g>
									<rect x="-341.5" y="295.6" class="st0" width="12.5" height="14.5"/>
									<path class="st0" d="M-328.8,310.3h-12.8v-14.8h12.8V310.3z M-341.3,310h12.2v-14.2h-12.2V310z"/>
								</g>
								<g>
									<rect x="-328.9" y="295.6" class="st0" width="12.5" height="14.5"/>
									<path class="st0" d="M-316.2,310.3H-329v-14.8h12.8V310.3z M-328.8,310h12.2v-14.2h-12.2V310z"/>
								</g>
							</g>
							<g>
								<rect x="-316.4" y="295.6" class="st0" width="12.5" height="14.5"/>
								<path class="st0" d="M-303.7,310.3h-12.8v-14.8h12.8V310.3z M-316.2,310h12.2v-14.2h-12.2V310z"/>
							</g>
							<g>
								<rect x="-303.9" y="295.6" class="st0" width="12.5" height="14.5"/>
								<path class="st0" d="M-291.2,310.3H-304v-14.8h12.8V310.3z M-303.7,310h12.2v-14.2h-12.2V310z"/>
							</g>
							<g>
								<rect x="-291.3" y="295.6" class="st0" width="12.5" height="14.5"/>
								<path class="st0" d="M-278.6,310.3h-12.8v-14.8h12.8V310.3z M-291.2,310h12.2v-14.2h-12.2V310z"/>
							</g>
							<g>
								<rect x="-278.8" y="295.6" class="st0" width="12.5" height="14.5"/>
								<path class="st0" d="M-266.1,310.3h-12.8v-14.8h12.8V310.3z M-278.6,310h12.2v-14.2h-12.2V310z"/>
							</g>
							<g>
								<rect x="-266.2" y="295.6" class="st0" width="12.5" height="14.5"/>
								<path class="st0" d="M-253.5,310.3h-12.8v-14.8h12.8V310.3z M-266.1,310h12.2v-14.2h-12.2V310z"/>
							</g>
						</g>
						<g>
							<g>
								<rect x="-253.7" y="295.6" class="st0" width="12.5" height="14.5"/>
								<path class="st0" d="M-241,310.3h-12.8v-14.8h12.8V310.3z M-253.5,310h12.2v-14.2h-12.2V310z"/>
							</g>
							<g>
								<rect x="-241.1" y="295.6" class="st0" width="12.5" height="14.5"/>
								<path class="st0" d="M-228.4,310.3h-12.8v-14.8h12.8V310.3z M-241,310h12.2v-14.2H-241V310z"/>
							</g>
							<g>
								<rect x="-228.6" y="295.6" class="st0" width="12.5" height="14.5"/>
								<path class="st0" d="M-215.9,310.3h-12.8v-14.8h12.8C-215.9,295.5-215.9,310.3-215.9,310.3z M-228.4,310h12.2v-14.2h-12.2
									V310z"/>
							</g>
							<g>
								<rect x="-216.1" y="295.6" class="st0" width="12.5" height="14.5"/>
								<path class="st0" d="M-203.4,310.3h-12.8v-14.8h12.8C-203.4,295.5-203.4,310.3-203.4,310.3z M-215.9,310h12.2v-14.2h-12.2
									C-215.9,295.8-215.9,310-215.9,310z"/>
							</g>
							<g>
								<rect x="-203.5" y="295.6" class="st0" width="12.5" height="14.5"/>
								<path class="st0" d="M-190.8,310.3h-12.8v-14.8h12.8V310.3z M-203.4,310h12.2v-14.2h-12.2V310z"/>
							</g>
						</g>
						<g>
							<rect x="-191" y="295.6" class="st0" width="12.5" height="14.5"/>
							<path class="st0" d="M-178.3,310.3h-12.8v-14.8h12.8V310.3z M-190.8,310h12.2v-14.2h-12.2V310z"/>
						</g>
						<g>
							<rect x="-178.4" y="295.6" class="st0" width="12.5" height="14.5"/>
							<path class="st0" d="M-165.7,310.3h-12.9v-14.8h12.8L-165.7,310.3L-165.7,310.3z M-178.3,310h12.3v-14.2h-12.3V310z"/>
						</g>
						<g>
							<rect x="-165.9" y="295.6" class="st0" width="12.5" height="14.5"/>
							<path class="st0" d="M-153.2,310.3H-166v-14.8h12.8V310.3z M-165.7,310h12.2v-14.2h-12.2V310z"/>
						</g>
						<g>
							<rect x="-153.3" y="295.6" class="st0" width="12.5" height="14.5"/>
							<path class="st0" d="M-140.7,310.3h-12.8v-14.8h12.8V310.3z M-153.2,310h12.2v-14.2h-12.2V310z"/>
						</g>
					</g>
					<g>
						<g>
							<g>
								<g>
									<rect x="-379.1" y="310.1" class="st0" width="12.5" height="14.5"/>
									<path class="st0" d="M-366.4,324.8h-12.8V310h12.8V324.8z M-379,324.5h12.2v-14.2H-379V324.5z"/>
								</g>
								<g>
									<rect x="-366.6" y="310.1" class="st0" width="12.5" height="14.5"/>
									<path class="st0" d="M-353.9,324.8h-12.8V310h12.8V324.8z M-366.4,324.5h12.2v-14.2h-12.2V324.5z"/>
								</g>
								<g>
									<rect x="-354" y="310.1" class="st0" width="12.5" height="14.5"/>
									<path class="st0" d="M-341.3,324.8h-12.8V310h12.8V324.8z M-353.9,324.5h12.2v-14.2h-12.2V324.5z"/>
								</g>
								<g>
									<rect x="-341.5" y="310.1" class="st0" width="12.5" height="14.5"/>
									<path class="st0" d="M-328.8,324.8h-12.8V310h12.8V324.8z M-341.3,324.5h12.2v-14.2h-12.2V324.5z"/>
								</g>
								<g>
									<rect x="-328.9" y="310.1" class="st0" width="12.5" height="14.5"/>
									<path class="st0" d="M-316.2,324.8H-329V310h12.8V324.8z M-328.8,324.5h12.2v-14.2h-12.2V324.5z"/>
								</g>
							</g>
							<g>
								<rect x="-316.4" y="310.1" class="st0" width="12.5" height="14.5"/>
								<path class="st0" d="M-303.7,324.8h-12.8V310h12.8V324.8z M-316.2,324.5h12.2v-14.2h-12.2V324.5z"/>
							</g>
							<g>
								<rect x="-303.9" y="310.1" class="st0" width="12.5" height="14.5"/>
								<path class="st0" d="M-291.2,324.8H-304V310h12.8V324.8z M-303.7,324.5h12.2v-14.2h-12.2V324.5z"/>
							</g>
							<g>
								<rect x="-291.3" y="310.1" class="st0" width="12.5" height="14.5"/>
								<path class="st0" d="M-278.6,324.8h-12.8V310h12.8V324.8z M-291.2,324.5h12.2v-14.2h-12.2V324.5z"/>
							</g>
							<g>
								<rect x="-278.8" y="310.1" class="st0" width="12.5" height="14.5"/>
								<path class="st0" d="M-266.1,324.8h-12.8V310h12.8V324.8z M-278.6,324.5h12.2v-14.2h-12.2V324.5z"/>
							</g>
							<g>
								<rect x="-266.2" y="310.1" class="st0" width="12.5" height="14.5"/>
								<path class="st0" d="M-253.5,324.8h-12.8V310h12.8V324.8z M-266.1,324.5h12.2v-14.2h-12.2V324.5z"/>
							</g>
						</g>
						<g>
							<g>
								<rect x="-253.7" y="310.1" class="st0" width="12.5" height="14.5"/>
								<path class="st0" d="M-241,324.8h-12.8V310h12.8V324.8z M-253.5,324.5h12.2v-14.2h-12.2V324.5z"/>
							</g>
							<g>
								<rect x="-241.1" y="310.1" class="st0" width="12.5" height="14.5"/>
								<path class="st0" d="M-228.4,324.8h-12.8V310h12.8V324.8z M-241,324.5h12.2v-14.2H-241V324.5z"/>
							</g>
							<g>
								<rect x="-228.6" y="310.1" class="st0" width="12.5" height="14.5"/>
								<path class="st0" d="M-215.9,324.8h-12.8V310h12.8C-215.9,310-215.9,324.8-215.9,324.8z M-228.4,324.5h12.2v-14.2h-12.2
									V324.5z"/>
							</g>
							<g>
								<rect x="-216.1" y="310.1" class="st0" width="12.5" height="14.5"/>
								<path class="st0" d="M-203.4,324.8h-12.8V310h12.8C-203.4,310-203.4,324.8-203.4,324.8z M-215.9,324.5h12.2v-14.2h-12.2
									C-215.9,310.3-215.9,324.5-215.9,324.5z"/>
							</g>
							<g>
								<rect x="-203.5" y="310.1" class="st0" width="12.5" height="14.5"/>
								<path class="st0" d="M-190.8,324.8h-12.8V310h12.8V324.8z M-203.4,324.5h12.2v-14.2h-12.2V324.5z"/>
							</g>
						</g>
						<g>
							<rect x="-191" y="310.1" class="st0" width="12.5" height="14.5"/>
							<path class="st0" d="M-178.3,324.8h-12.8V310h12.8V324.8z M-190.8,324.5h12.2v-14.2h-12.2V324.5z"/>
						</g>
						<g>
							<rect x="-178.4" y="310.1" class="st0" width="12.5" height="14.5"/>
							<path class="st0" d="M-165.7,324.8h-12.9V310h12.8L-165.7,324.8L-165.7,324.8z M-178.3,324.5h12.3v-14.2h-12.3V324.5z"/>
						</g>
						<g>
							<rect x="-165.9" y="310.1" class="st0" width="12.5" height="14.5"/>
							<path class="st0" d="M-153.2,324.8H-166V310h12.8V324.8z M-165.7,324.5h12.2v-14.2h-12.2V324.5z"/>
						</g>
						<g>
							<rect x="-153.3" y="310.1" class="st0" width="12.5" height="14.5"/>
							<path class="st0" d="M-140.7,324.8h-12.8V310h12.8V324.8z M-153.2,324.5h12.2v-14.2h-12.2V324.5z"/>
						</g>
					</g>
				</g>
			</g>
			<g>
				<g>
					<g>
						<g>
							<g>
								<g>
									<rect x="-379.1" y="324.6" class="st0" width="12.5" height="14.5"/>
									<path class="st0" d="M-366.4,339.3h-12.8v-14.8h12.8V339.3z M-379,339h12.2v-14.2H-379V339z"/>
								</g>
								<g>
									<rect x="-366.6" y="324.6" class="st0" width="12.5" height="14.5"/>
									<path class="st0" d="M-353.9,339.3h-12.8v-14.8h12.8V339.3z M-366.4,339h12.2v-14.2h-12.2V339z"/>
								</g>
								<g>
									<rect x="-354" y="324.6" class="st0" width="12.5" height="14.5"/>
									<path class="st0" d="M-341.3,339.3h-12.8v-14.8h12.8V339.3z M-353.9,339h12.2v-14.2h-12.2V339z"/>
								</g>
								<g>
									<rect x="-341.5" y="324.6" class="st0" width="12.5" height="14.5"/>
									<path class="st0" d="M-328.8,339.3h-12.8v-14.8h12.8V339.3z M-341.3,339h12.2v-14.2h-12.2V339z"/>
								</g>
								<g>
									<rect x="-328.9" y="324.6" class="st0" width="12.5" height="14.5"/>
									<path class="st0" d="M-316.2,339.3H-329v-14.8h12.8V339.3z M-328.8,339h12.2v-14.2h-12.2V339z"/>
								</g>
							</g>
							<g>
								<rect x="-316.4" y="324.6" class="st0" width="12.5" height="14.5"/>
								<path class="st0" d="M-303.7,339.3h-12.8v-14.8h12.8V339.3z M-316.2,339h12.2v-14.2h-12.2V339z"/>
							</g>
							<g>
								<rect x="-303.9" y="324.6" class="st0" width="12.5" height="14.5"/>
								<path class="st0" d="M-291.2,339.3H-304v-14.8h12.8V339.3z M-303.7,339h12.2v-14.2h-12.2V339z"/>
							</g>
							<g>
								<rect x="-291.3" y="324.6" class="st0" width="12.5" height="14.5"/>
								<path class="st0" d="M-278.6,339.3h-12.8v-14.8h12.8V339.3z M-291.2,339h12.2v-14.2h-12.2V339z"/>
							</g>
							<g>
								<rect x="-278.8" y="324.6" class="st0" width="12.5" height="14.5"/>
								<path class="st0" d="M-266.1,339.3h-12.8v-14.8h12.8V339.3z M-278.6,339h12.2v-14.2h-12.2V339z"/>
							</g>
							<g>
								<rect x="-266.2" y="324.6" class="st0" width="12.5" height="14.5"/>
								<path class="st0" d="M-253.5,339.3h-12.8v-14.8h12.8V339.3z M-266.1,339h12.2v-14.2h-12.2V339z"/>
							</g>
						</g>
						<g>
							<g>
								<rect x="-253.7" y="324.6" class="st0" width="12.5" height="14.5"/>
								<path class="st0" d="M-241,339.3h-12.8v-14.8h12.8V339.3z M-253.5,339h12.2v-14.2h-12.2V339z"/>
							</g>
							<g>
								<rect x="-241.1" y="324.6" class="st0" width="12.5" height="14.5"/>
								<path class="st0" d="M-228.4,339.3h-12.8v-14.8h12.8V339.3z M-241,339h12.2v-14.2H-241V339z"/>
							</g>
							<g>
								<rect x="-228.6" y="324.6" class="st0" width="12.5" height="14.5"/>
								<path class="st0" d="M-215.9,339.3h-12.8v-14.8h12.8C-215.9,324.5-215.9,339.3-215.9,339.3z M-228.4,339h12.2v-14.2h-12.2
									V339z"/>
							</g>
							<g>
								<rect x="-216.1" y="324.6" class="st0" width="12.5" height="14.5"/>
								<path class="st0" d="M-203.4,339.3h-12.8v-14.8h12.8C-203.4,324.5-203.4,339.3-203.4,339.3z M-215.9,339h12.2v-14.2h-12.2
									C-215.9,324.8-215.9,339-215.9,339z"/>
							</g>
							<g>
								<rect x="-203.5" y="324.6" class="st0" width="12.5" height="14.5"/>
								<path class="st0" d="M-190.8,339.3h-12.8v-14.8h12.8V339.3z M-203.4,339h12.2v-14.2h-12.2V339z"/>
							</g>
						</g>
						<g>
							<rect x="-191" y="324.6" class="st0" width="12.5" height="14.5"/>
							<path class="st0" d="M-178.3,339.3h-12.8v-14.8h12.8V339.3z M-190.8,339h12.2v-14.2h-12.2V339z"/>
						</g>
						<g>
							<rect x="-178.4" y="324.6" class="st0" width="12.5" height="14.5"/>
							<path class="st0" d="M-165.7,339.3h-12.9v-14.8h12.8L-165.7,339.3L-165.7,339.3z M-178.3,339h12.3v-14.2h-12.3V339z"/>
						</g>
						<g>
							<rect x="-165.9" y="324.6" class="st0" width="12.5" height="14.5"/>
							<path class="st0" d="M-153.2,339.3H-166v-14.8h12.8V339.3z M-165.7,339h12.2v-14.2h-12.2V339z"/>
						</g>
						<g>
							<rect x="-153.3" y="324.6" class="st0" width="12.5" height="14.5"/>
							<path class="st0" d="M-140.7,339.3h-12.8v-14.8h12.8V339.3z M-153.2,339h12.2v-14.2h-12.2V339z"/>
						</g>
					</g>
					<g>
						<g>
							<g>
								<g>
									<rect x="-379.1" y="339.1" class="st0" width="12.5" height="14.5"/>
									<path class="st0" d="M-366.4,353.8h-12.8V339h12.8V353.8z M-379,353.5h12.2v-14.2H-379V353.5z"/>
								</g>
								<g>
									<rect x="-366.6" y="339.1" class="st0" width="12.5" height="14.5"/>
									<path class="st0" d="M-353.9,353.8h-12.8V339h12.8V353.8z M-366.4,353.5h12.2v-14.2h-12.2V353.5z"/>
								</g>
								<g>
									<rect x="-354" y="339.1" class="st0" width="12.5" height="14.5"/>
									<path class="st0" d="M-341.3,353.8h-12.8V339h12.8V353.8z M-353.9,353.5h12.2v-14.2h-12.2V353.5z"/>
								</g>
								<g>
									<rect x="-341.5" y="339.1" class="st0" width="12.5" height="14.5"/>
									<path class="st0" d="M-328.8,353.8h-12.8V339h12.8V353.8z M-341.3,353.5h12.2v-14.2h-12.2V353.5z"/>
								</g>
								<g>
									<rect x="-328.9" y="339.1" class="st0" width="12.5" height="14.5"/>
									<path class="st0" d="M-316.2,353.8H-329V339h12.8V353.8z M-328.8,353.5h12.2v-14.2h-12.2V353.5z"/>
								</g>
							</g>
							<g>
								<rect x="-316.4" y="339.1" class="st0" width="12.5" height="14.5"/>
								<path class="st0" d="M-303.7,353.8h-12.8V339h12.8V353.8z M-316.2,353.5h12.2v-14.2h-12.2V353.5z"/>
							</g>
							<g>
								<rect x="-303.9" y="339.1" class="st0" width="12.5" height="14.5"/>
								<path class="st0" d="M-291.2,353.8H-304V339h12.8V353.8z M-303.7,353.5h12.2v-14.2h-12.2V353.5z"/>
							</g>
							<g>
								<rect x="-291.3" y="339.1" class="st0" width="12.5" height="14.5"/>
								<path class="st0" d="M-278.6,353.8h-12.8V339h12.8V353.8z M-291.2,353.5h12.2v-14.2h-12.2V353.5z"/>
							</g>
							<g>
								<rect x="-278.8" y="339.1" class="st0" width="12.5" height="14.5"/>
								<path class="st0" d="M-266.1,353.8h-12.8V339h12.8V353.8z M-278.6,353.5h12.2v-14.2h-12.2V353.5z"/>
							</g>
							<g>
								<rect x="-266.2" y="339.1" class="st0" width="12.5" height="14.5"/>
								<path class="st0" d="M-253.5,353.8h-12.8V339h12.8V353.8z M-266.1,353.5h12.2v-14.2h-12.2V353.5z"/>
							</g>
						</g>
						<g>
							<g>
								<rect x="-253.7" y="339.1" class="st0" width="12.5" height="14.5"/>
								<path class="st0" d="M-241,353.8h-12.8V339h12.8V353.8z M-253.5,353.5h12.2v-14.2h-12.2V353.5z"/>
							</g>
							<g>
								<rect x="-241.1" y="339.1" class="st0" width="12.5" height="14.5"/>
								<path class="st0" d="M-228.4,353.8h-12.8V339h12.8V353.8z M-241,353.5h12.2v-14.2H-241V353.5z"/>
							</g>
							<g>
								<rect x="-228.6" y="339.1" class="st0" width="12.5" height="14.5"/>
								<path class="st0" d="M-215.9,353.8h-12.8V339h12.8C-215.9,339-215.9,353.8-215.9,353.8z M-228.4,353.5h12.2v-14.2h-12.2
									V353.5z"/>
							</g>
							<g>
								<rect x="-216.1" y="339.1" class="st0" width="12.5" height="14.5"/>
								<path class="st0" d="M-203.4,353.8h-12.8V339h12.8C-203.4,339-203.4,353.8-203.4,353.8z M-215.9,353.5h12.2v-14.2h-12.2
									C-215.9,339.3-215.9,353.5-215.9,353.5z"/>
							</g>
							<g>
								<rect x="-203.5" y="339.1" class="st0" width="12.5" height="14.5"/>
								<path class="st0" d="M-190.8,353.8h-12.8V339h12.8V353.8z M-203.4,353.5h12.2v-14.2h-12.2V353.5z"/>
							</g>
						</g>
						<g>
							<rect x="-191" y="339.1" class="st0" width="12.5" height="14.5"/>
							<path class="st0" d="M-178.3,353.8h-12.8V339h12.8V353.8z M-190.8,353.5h12.2v-14.2h-12.2V353.5z"/>
						</g>
						<g>
							<rect x="-178.4" y="339.1" class="st0" width="12.5" height="14.5"/>
							<path class="st0" d="M-165.7,353.8h-12.9V339h12.8L-165.7,353.8L-165.7,353.8z M-178.3,353.5h12.3v-14.2h-12.3V353.5z"/>
						</g>
						<g>
							<rect x="-165.9" y="339.1" class="st0" width="12.5" height="14.5"/>
							<path class="st0" d="M-153.2,353.8H-166V339h12.8V353.8z M-165.7,353.5h12.2v-14.2h-12.2V353.5z"/>
						</g>
						<g>
							<rect x="-153.3" y="339.1" class="st0" width="12.5" height="14.5"/>
							<path class="st0" d="M-140.7,353.8h-12.8V339h12.8V353.8z M-153.2,353.5h12.2v-14.2h-12.2V353.5z"/>
						</g>
					</g>
				</g>
				<g>
					<g>
						<g>
							<g>
								<g>
									<rect x="-379.1" y="353.7" class="st0" width="12.5" height="14.5"/>
									<path class="st0" d="M-366.4,368.3h-12.8v-14.8h12.8V368.3z M-379,368h12.2v-14.2H-379V368z"/>
								</g>
								<g>
									<rect x="-366.6" y="353.7" class="st0" width="12.5" height="14.5"/>
									<path class="st0" d="M-353.9,368.3h-12.8v-14.8h12.8V368.3z M-366.4,368h12.2v-14.2h-12.2V368z"/>
								</g>
								<g>
									<rect x="-354" y="353.7" class="st0" width="12.5" height="14.5"/>
									<path class="st0" d="M-341.3,368.3h-12.8v-14.8h12.8V368.3z M-353.9,368h12.2v-14.2h-12.2V368z"/>
								</g>
								<g>
									<rect x="-341.5" y="353.7" class="st0" width="12.5" height="14.5"/>
									<path class="st0" d="M-328.8,368.3h-12.8v-14.8h12.8V368.3z M-341.3,368h12.2v-14.2h-12.2V368z"/>
								</g>
								<g>
									<rect x="-328.9" y="353.7" class="st0" width="12.5" height="14.5"/>
									<path class="st0" d="M-316.2,368.3H-329v-14.8h12.8V368.3z M-328.8,368h12.2v-14.2h-12.2V368z"/>
								</g>
							</g>
							<g>
								<rect x="-316.4" y="353.7" class="st0" width="12.5" height="14.5"/>
								<path class="st0" d="M-303.7,368.3h-12.8v-14.8h12.8V368.3z M-316.2,368h12.2v-14.2h-12.2V368z"/>
							</g>
							<g>
								<rect x="-303.9" y="353.7" class="st0" width="12.5" height="14.5"/>
								<path class="st0" d="M-291.2,368.3H-304v-14.8h12.8V368.3z M-303.7,368h12.2v-14.2h-12.2V368z"/>
							</g>
							<g>
								<rect x="-291.3" y="353.7" class="st0" width="12.5" height="14.5"/>
								<path class="st0" d="M-278.6,368.3h-12.8v-14.8h12.8V368.3z M-291.2,368h12.2v-14.2h-12.2V368z"/>
							</g>
							<g>
								<rect x="-278.8" y="353.7" class="st0" width="12.5" height="14.5"/>
								<path class="st0" d="M-266.1,368.3h-12.8v-14.8h12.8V368.3z M-278.6,368h12.2v-14.2h-12.2V368z"/>
							</g>
							<g>
								<rect x="-266.2" y="353.7" class="st0" width="12.5" height="14.5"/>
								<path class="st0" d="M-253.5,368.3h-12.8v-14.8h12.8V368.3z M-266.1,368h12.2v-14.2h-12.2V368z"/>
							</g>
						</g>
						<g>
							<g>
								<rect x="-253.7" y="353.7" class="st0" width="12.5" height="14.5"/>
								<path class="st0" d="M-241,368.3h-12.8v-14.8h12.8V368.3z M-253.5,368h12.2v-14.2h-12.2V368z"/>
							</g>
							<g>
								<rect x="-241.1" y="353.7" class="st0" width="12.5" height="14.5"/>
								<path class="st0" d="M-228.4,368.3h-12.8v-14.8h12.8V368.3z M-241,368h12.2v-14.2H-241V368z"/>
							</g>
							<g>
								<rect x="-228.6" y="353.7" class="st0" width="12.5" height="14.5"/>
								<path class="st0" d="M-215.9,368.3h-12.8v-14.8h12.8C-215.9,353.5-215.9,368.3-215.9,368.3z M-228.4,368h12.2v-14.2h-12.2
									V368z"/>
							</g>
							<g>
								<rect x="-216.1" y="353.7" class="st0" width="12.5" height="14.5"/>
								<path class="st0" d="M-203.4,368.3h-12.8v-14.8h12.8C-203.4,353.5-203.4,368.3-203.4,368.3z M-215.9,368h12.2v-14.2h-12.2
									C-215.9,353.8-215.9,368-215.9,368z"/>
							</g>
							<g>
								<rect x="-203.5" y="353.7" class="st0" width="12.5" height="14.5"/>
								<path class="st0" d="M-190.8,368.3h-12.8v-14.8h12.8V368.3z M-203.4,368h12.2v-14.2h-12.2V368z"/>
							</g>
						</g>
						<g>
							<rect x="-191" y="353.7" class="st0" width="12.5" height="14.5"/>
							<path class="st0" d="M-178.3,368.3h-12.8v-14.8h12.8V368.3z M-190.8,368h12.2v-14.2h-12.2V368z"/>
						</g>
						<g>
							<rect x="-178.4" y="353.7" class="st0" width="12.5" height="14.5"/>
							<path class="st0" d="M-165.7,368.3h-12.9v-14.8h12.8L-165.7,368.3L-165.7,368.3z M-178.3,368h12.3v-14.2h-12.3V368z"/>
						</g>
						<g>
							<rect x="-165.9" y="353.7" class="st0" width="12.5" height="14.5"/>
							<path class="st0" d="M-153.2,368.3H-166v-14.8h12.8V368.3z M-165.7,368h12.2v-14.2h-12.2V368z"/>
						</g>
						<g>
							<rect x="-153.3" y="353.7" class="st0" width="12.5" height="14.5"/>
							<path class="st0" d="M-140.7,368.3h-12.8v-14.8h12.8V368.3z M-153.2,368h12.2v-14.2h-12.2V368z"/>
						</g>
					</g>
					<g>
						<g>
							<g>
								<g>
									<rect x="-379.1" y="368.2" class="st0" width="12.5" height="14.5"/>
									<path class="st0" d="M-366.4,382.8h-12.8V368h12.8V382.8z M-379,382.5h12.2v-14.2H-379V382.5z"/>
								</g>
								<g>
									<rect x="-366.6" y="368.2" class="st0" width="12.5" height="14.5"/>
									<path class="st0" d="M-353.9,382.8h-12.8V368h12.8V382.8z M-366.4,382.5h12.2v-14.2h-12.2V382.5z"/>
								</g>
								<g>
									<rect x="-354" y="368.2" class="st0" width="12.5" height="14.5"/>
									<path class="st0" d="M-341.3,382.8h-12.8V368h12.8V382.8z M-353.9,382.5h12.2v-14.2h-12.2V382.5z"/>
								</g>
								<g>
									<rect x="-341.5" y="368.2" class="st0" width="12.5" height="14.5"/>
									<path class="st0" d="M-328.8,382.8h-12.8V368h12.8V382.8z M-341.3,382.5h12.2v-14.2h-12.2V382.5z"/>
								</g>
								<g>
									<rect x="-328.9" y="368.2" class="st0" width="12.5" height="14.5"/>
									<path class="st0" d="M-316.2,382.8H-329V368h12.8V382.8z M-328.8,382.5h12.2v-14.2h-12.2V382.5z"/>
								</g>
							</g>
							<g>
								<rect x="-316.4" y="368.2" class="st0" width="12.5" height="14.5"/>
								<path class="st0" d="M-303.7,382.8h-12.8V368h12.8V382.8z M-316.2,382.5h12.2v-14.2h-12.2V382.5z"/>
							</g>
							<g>
								<rect x="-303.9" y="368.2" class="st0" width="12.5" height="14.5"/>
								<path class="st0" d="M-291.2,382.8H-304V368h12.8V382.8z M-303.7,382.5h12.2v-14.2h-12.2V382.5z"/>
							</g>
							<g>
								<rect x="-291.3" y="368.2" class="st0" width="12.5" height="14.5"/>
								<path class="st0" d="M-278.6,382.8h-12.8V368h12.8V382.8z M-291.2,382.5h12.2v-14.2h-12.2V382.5z"/>
							</g>
							<g>
								<rect x="-278.8" y="368.2" class="st0" width="12.5" height="14.5"/>
								<path class="st0" d="M-266.1,382.8h-12.8V368h12.8V382.8z M-278.6,382.5h12.2v-14.2h-12.2V382.5z"/>
							</g>
							<g>
								<rect x="-266.2" y="368.2" class="st0" width="12.5" height="14.5"/>
								<path class="st0" d="M-253.5,382.8h-12.8V368h12.8V382.8z M-266.1,382.5h12.2v-14.2h-12.2V382.5z"/>
							</g>
						</g>
						<g>
							<g>
								<rect x="-253.7" y="368.2" class="st0" width="12.5" height="14.5"/>
								<path class="st0" d="M-241,382.8h-12.8V368h12.8V382.8z M-253.5,382.5h12.2v-14.2h-12.2V382.5z"/>
							</g>
							<g>
								<rect x="-241.1" y="368.2" class="st0" width="12.5" height="14.5"/>
								<path class="st0" d="M-228.4,382.8h-12.8V368h12.8V382.8z M-241,382.5h12.2v-14.2H-241V382.5z"/>
							</g>
							<g>
								<rect x="-228.6" y="368.2" class="st0" width="12.5" height="14.5"/>
								<path class="st0" d="M-215.9,382.8h-12.8V368h12.8C-215.9,368-215.9,382.8-215.9,382.8z M-228.4,382.5h12.2v-14.2h-12.2
									V382.5z"/>
							</g>
							<g>
								<rect x="-216.1" y="368.2" class="st0" width="12.5" height="14.5"/>
								<path class="st0" d="M-203.4,382.8h-12.8V368h12.8C-203.4,368-203.4,382.8-203.4,382.8z M-215.9,382.5h12.2v-14.2h-12.2
									C-215.9,368.3-215.9,382.5-215.9,382.5z"/>
							</g>
							<g>
								<rect x="-203.5" y="368.2" class="st0" width="12.5" height="14.5"/>
								<path class="st0" d="M-190.8,382.8h-12.8V368h12.8V382.8z M-203.4,382.5h12.2v-14.2h-12.2V382.5z"/>
							</g>
						</g>
						<g>
							<rect x="-191" y="368.2" class="st0" width="12.5" height="14.5"/>
							<path class="st0" d="M-178.3,382.8h-12.8V368h12.8V382.8z M-190.8,382.5h12.2v-14.2h-12.2V382.5z"/>
						</g>
						<g>
							<rect x="-178.4" y="368.2" class="st0" width="12.5" height="14.5"/>
							<path class="st0" d="M-165.7,382.8h-12.9V368h12.8L-165.7,382.8L-165.7,382.8z M-178.3,382.5h12.3v-14.2h-12.3V382.5z"/>
						</g>
						<g>
							<rect x="-165.9" y="368.2" class="st0" width="12.5" height="14.5"/>
							<path class="st0" d="M-153.2,382.8H-166V368h12.8V382.8z M-165.7,382.5h12.2v-14.2h-12.2V382.5z"/>
						</g>
						<g>
							<rect x="-153.3" y="368.2" class="st0" width="12.5" height="14.5"/>
							<path class="st0" d="M-140.7,382.8h-12.8V368h12.8V382.8z M-153.2,382.5h12.2v-14.2h-12.2V382.5z"/>
						</g>
					</g>
					<g>
						<g>
							<g>
								<g>
									<rect x="-379.1" y="382.7" class="st0" width="12.5" height="14.5"/>
									<path class="st0" d="M-366.4,397.4h-12.8v-14.8h12.8V397.4z M-379,397.1h12.2v-14.2H-379V397.1z"/>
								</g>
								<g>
									<rect x="-366.6" y="382.7" class="st0" width="12.5" height="14.5"/>
									<path class="st0" d="M-353.9,397.4h-12.8v-14.8h12.8V397.4z M-366.4,397.1h12.2v-14.2h-12.2V397.1z"/>
								</g>
								<g>
									<rect x="-354" y="382.7" class="st0" width="12.5" height="14.5"/>
									<path class="st0" d="M-341.3,397.4h-12.8v-14.8h12.8V397.4z M-353.9,397.1h12.2v-14.2h-12.2V397.1z"/>
								</g>
								<g>
									<rect x="-341.5" y="382.7" class="st0" width="12.5" height="14.5"/>
									<path class="st0" d="M-328.8,397.4h-12.8v-14.8h12.8V397.4z M-341.3,397.1h12.2v-14.2h-12.2V397.1z"/>
								</g>
								<g>
									<rect x="-328.9" y="382.7" class="st0" width="12.5" height="14.5"/>
									<path class="st0" d="M-316.2,397.4H-329v-14.8h12.8V397.4z M-328.8,397.1h12.2v-14.2h-12.2V397.1z"/>
								</g>
							</g>
							<g>
								<rect x="-316.4" y="382.7" class="st0" width="12.5" height="14.5"/>
								<path class="st0" d="M-303.7,397.4h-12.8v-14.8h12.8V397.4z M-316.2,397.1h12.2v-14.2h-12.2V397.1z"/>
							</g>
							<g>
								<rect x="-303.9" y="382.7" class="st0" width="12.5" height="14.5"/>
								<path class="st0" d="M-291.2,397.4H-304v-14.8h12.8V397.4z M-303.7,397.1h12.2v-14.2h-12.2V397.1z"/>
							</g>
							<g>
								<rect x="-291.3" y="382.7" class="st0" width="12.5" height="14.5"/>
								<path class="st0" d="M-278.6,397.4h-12.8v-14.8h12.8V397.4z M-291.2,397.1h12.2v-14.2h-12.2V397.1z"/>
							</g>
							<g>
								<rect x="-278.8" y="382.7" class="st0" width="12.5" height="14.5"/>
								<path class="st0" d="M-266.1,397.4h-12.8v-14.8h12.8V397.4z M-278.6,397.1h12.2v-14.2h-12.2V397.1z"/>
							</g>
							<g>
								<rect x="-266.2" y="382.7" class="st0" width="12.5" height="14.5"/>
								<path class="st0" d="M-253.5,397.4h-12.8v-14.8h12.8V397.4z M-266.1,397.1h12.2v-14.2h-12.2V397.1z"/>
							</g>
						</g>
						<g>
							<g>
								<rect x="-253.7" y="382.7" class="st0" width="12.5" height="14.5"/>
								<path class="st0" d="M-241,397.4h-12.8v-14.8h12.8V397.4z M-253.5,397.1h12.2v-14.2h-12.2V397.1z"/>
							</g>
							<g>
								<rect x="-241.1" y="382.7" class="st0" width="12.5" height="14.5"/>
								<path class="st0" d="M-228.4,397.4h-12.8v-14.8h12.8V397.4z M-241,397.1h12.2v-14.2H-241V397.1z"/>
							</g>
							<g>
								<rect x="-228.6" y="382.7" class="st0" width="12.5" height="14.5"/>
								<path class="st0" d="M-215.9,397.4h-12.8v-14.8h12.8C-215.9,382.6-215.9,397.4-215.9,397.4z M-228.4,397.1h12.2v-14.2h-12.2
									V397.1z"/>
							</g>
							<g>
								<rect x="-216.1" y="382.7" class="st0" width="12.5" height="14.5"/>
								<path class="st0" d="M-203.4,397.4h-12.8v-14.8h12.8C-203.4,382.6-203.4,397.4-203.4,397.4z M-215.9,397.1h12.2v-14.2h-12.2
									C-215.9,382.9-215.9,397.1-215.9,397.1z"/>
							</g>
							<g>
								<rect x="-203.5" y="382.7" class="st0" width="12.5" height="14.5"/>
								<path class="st0" d="M-190.8,397.4h-12.8v-14.8h12.8V397.4z M-203.4,397.1h12.2v-14.2h-12.2V397.1z"/>
							</g>
						</g>
						<g>
							<rect x="-191" y="382.7" class="st0" width="12.5" height="14.5"/>
							<path class="st0" d="M-178.3,397.4h-12.8v-14.8h12.8V397.4z M-190.8,397.1h12.2v-14.2h-12.2V397.1z"/>
						</g>
						<g>
							<rect x="-178.4" y="382.7" class="st0" width="12.5" height="14.5"/>
							<path class="st0" d="M-165.7,397.4h-12.9v-14.8h12.8L-165.7,397.4L-165.7,397.4z M-178.3,397.1h12.3v-14.2h-12.3V397.1z"/>
						</g>
						<g>
							<rect x="-165.9" y="382.7" class="st0" width="12.5" height="14.5"/>
							<path class="st0" d="M-153.2,397.4H-166v-14.8h12.8V397.4z M-165.7,397.1h12.2v-14.2h-12.2V397.1z"/>
						</g>
						<g>
							<rect x="-153.3" y="382.7" class="st0" width="12.5" height="14.5"/>
							<path class="st0" d="M-140.7,397.4h-12.8v-14.8h12.8V397.4z M-153.2,397.1h12.2v-14.2h-12.2V397.1z"/>
						</g>
					</g>
				</g>
			</g>
		</g>
	</g>
	<g id="圖層_1_1_">
		<circle class="st1" cx="-260.5" cy="244.6" r="58.7"/>
		<g>
			<g>
				<g>
					<path d="M-321.7,339.3c2.1,0,3.8,0.8,5,2.4c1.1,1.4,1.6,2.9,1.6,4.6c0,1.3-0.3,2.5-0.9,3.7c-0.6,1.2-1.5,2.2-2.5,2.9
						c-1,0.6-2.2,1-3.5,1c-2.1,0-3.7-0.8-5-2.5c-1-1.4-1.5-3-1.5-4.7c0-1.3,0.3-2.5,0.9-3.8s1.5-2.2,2.5-2.8
						C-324,339.6-322.9,339.3-321.7,339.3z M-322.2,340.3c-0.5,0-1.1,0.2-1.6,0.5s-1,0.9-1.3,1.6c-0.4,0.8-0.5,1.8-0.5,3.1
						c0,2,0.4,3.7,1.2,5.2c0.8,1.5,1.8,2.2,3.2,2.2c1,0,1.8-0.4,2.5-1.2c0.6-0.8,0.9-2.2,0.9-4.2c0-2.5-0.5-4.4-1.5-5.8
						C-320.1,340.8-321.1,340.3-322.2,340.3z"/>
				</g>
				<g>
					<path d="M-305.8,342.2c1.6-1.9,3.2-2.9,4.6-2.9c0.7,0,1.4,0.2,1.9,0.5c0.5,0.4,1,1,1.3,1.9c0.2,0.6,0.4,1.5,0.4,2.8v5.9
						c0,0.9,0.1,1.5,0.2,1.8s0.3,0.5,0.5,0.5c0.3,0.2,0.7,0.2,1.4,0.2v0.5h-6.8v-0.5h0.3c0.6,0,1.1-0.1,1.4-0.3
						c0.3-0.2,0.5-0.5,0.5-0.9c0-0.2,0.1-0.6,0.1-1.5v-5.6c0-1.3-0.2-2.2-0.5-2.7c-0.4-0.5-0.9-0.8-1.6-0.8c-1.2,0-2.4,0.6-3.6,2
						v7.3c0,0.9,0.1,1.5,0.2,1.7c0.2,0.3,0.4,0.5,0.5,0.6c0.3,0.1,0.7,0.2,1.5,0.2v0.5h-6.8v-0.5h0.2c0.7,0,1.2-0.2,1.5-0.5
						c0.3-0.4,0.4-1,0.4-2v-5.1c0-1.6,0-2.6-0.1-3s-0.2-0.6-0.4-0.7c-0.2-0.1-0.4-0.2-0.6-0.2c-0.2,0-0.6,0.1-1,0.2l-0.2-0.5
						l4.2-1.7h0.6L-305.8,342.2L-305.8,342.2z"/>
				</g>
				<g>
					<path d="M-289,345c0,2.1,0.5,3.6,1.5,4.8c1,1.2,2.2,1.7,3.6,1.7c0.9,0,1.7-0.3,2.4-0.7c0.7-0.4,1.3-1.4,1.7-2.5l0.5,0.3
						c-0.2,1.4-0.8,2.6-1.8,3.7s-2.3,1.7-3.8,1.7c-1.6,0-3.1-0.6-4.3-1.9c-1.2-1.3-1.8-3-1.8-5.2c0-2.4,0.6-4.2,1.8-5.6
						c1.2-1.4,2.7-2,4.6-2c1.5,0,2.8,0.5,3.8,1.5s1.5,2.4,1.5,4.1h-9.7V345z M-289,344.1h6.4c-0.1-0.9-0.2-1.5-0.3-1.9
						c-0.3-0.5-0.6-1-1.1-1.4s-1-0.5-1.5-0.5c-0.8,0-1.5,0.4-2.3,1C-288.5,342.1-288.9,342.9-289,344.1z"/>
				</g>
				<g>
					<path d="M-259.5,342.2c1-1,1.6-1.5,1.8-1.7c0.5-0.4,0.9-0.6,1.5-0.9c0.5-0.3,1-0.3,1.5-0.3c0.9,0,1.6,0.3,2.3,0.7
						c0.6,0.5,1,1.3,1.3,2.2c1-1.2,1.9-2,2.6-2.4s1.5-0.5,2.2-0.5c0.7,0,1.4,0.2,1.9,0.5s1,1,1.4,1.8c0.2,0.5,0.4,1.5,0.4,2.7v5.9
						c0,0.9,0.1,1.5,0.2,1.8c0.1,0.2,0.3,0.5,0.5,0.5c0.3,0.2,0.7,0.3,1.4,0.3v0.5h-6.8v-0.5h0.3c0.6,0,1.1-0.1,1.4-0.4
						c0.3-0.2,0.4-0.5,0.5-0.7c0-0.2,0.1-0.6,0.1-1.5v-5.9c0-1.1-0.1-1.9-0.4-2.4c-0.4-0.6-1-1-1.9-1c-0.5,0-1.1,0.1-1.6,0.4
						s-1.2,0.7-2,1.5v0.2v0.6v6.6c0,0.9,0.1,1.5,0.2,1.7c0.1,0.3,0.3,0.5,0.6,0.5c0.3,0.2,0.8,0.3,1.5,0.3v0.5h-7v-0.5
						c0.7,0,1.3-0.1,1.5-0.3c0.3-0.2,0.5-0.5,0.6-0.8c0.1-0.2,0.1-0.6,0.1-1.5v-5.9c0-1.1-0.2-1.9-0.5-2.5c-0.5-0.6-1.1-1-1.8-1
						c-0.5,0-1.1,0.2-1.6,0.5c-0.8,0.5-1.5,0.9-1.9,1.5v7.5c0,0.9,0.1,1.5,0.2,1.7c0.1,0.2,0.3,0.5,0.5,0.6c0.3,0.1,0.7,0.2,1.5,0.2
						v0.5h-7v-0.5c0.6,0,1.1-0.1,1.4-0.2c0.3-0.1,0.5-0.4,0.5-0.6c0.1-0.3,0.2-0.9,0.2-1.7v-5.3c0-1.5,0-2.5-0.1-2.9
						c-0.1-0.4-0.2-0.5-0.4-0.7c-0.2-0.1-0.4-0.2-0.6-0.2c-0.3,0-0.6,0.1-1,0.2l-0.2-0.5l4.2-1.7h0.6v3L-259.5,342.2L-259.5,342.2z"
						/>
				</g>
				<g>
					<path d="M-229.7,339.3c2.1,0,3.8,0.8,5,2.4c1.1,1.4,1.6,2.9,1.6,4.6c0,1.3-0.3,2.5-0.9,3.7c-0.6,1.2-1.5,2.2-2.5,2.9
						c-1,0.6-2.2,1-3.5,1c-2.1,0-3.7-0.8-5-2.5c-1-1.4-1.5-3-1.5-4.7c0-1.3,0.3-2.5,0.9-3.8c0.6-1.3,1.5-2.2,2.5-2.8
						C-231.9,339.6-230.8,339.3-229.7,339.3z M-230.2,340.3c-0.5,0-1.1,0.2-1.6,0.5s-1,0.9-1.3,1.6c-0.4,0.8-0.5,1.8-0.5,3.1
						c0,2,0.4,3.7,1.2,5.2c0.8,1.5,1.8,2.2,3.2,2.2c1,0,1.8-0.4,2.5-1.2c0.7-0.8,0.9-2.2,0.9-4.2c0-2.5-0.5-4.4-1.5-5.8
						C-228.2,340.8-229.1,340.3-230.2,340.3z"/>
				</g>
				<g>
					<path d="M-213.9,339.3v3.1c1.2-2.1,2.4-3.1,3.6-3.1c0.5,0,1,0.2,1.4,0.5c0.4,0.3,0.5,0.7,0.5,1.2c0,0.4-0.1,0.7-0.4,1
						s-0.5,0.4-0.9,0.4c-0.4,0-0.7-0.2-1.2-0.5c-0.5-0.4-0.7-0.5-1-0.5c-0.2,0-0.4,0.1-0.5,0.3c-0.5,0.5-0.9,1.1-1.4,2v6.6
						c0,0.7,0.1,1.4,0.3,1.7c0.1,0.3,0.4,0.5,0.7,0.6c0.4,0.2,0.8,0.3,1.5,0.3v0.5h-7.1v-0.5c0.7,0,1.3-0.1,1.5-0.4
						c0.3-0.2,0.5-0.5,0.5-0.7c0.1-0.2,0.1-0.6,0.1-1.5v-5.4c0-1.6,0-2.5-0.1-2.9c-0.1-0.3-0.2-0.5-0.4-0.6
						c-0.2-0.2-0.4-0.2-0.6-0.2c-0.2,0-0.6,0.1-1.1,0.2l-0.2-0.5l4.2-1.7h0.5L-213.9,339.3L-213.9,339.3z"/>
				</g>
				<g>
					<path d="M-202.1,345c0,2.1,0.5,3.6,1.5,4.8s2.2,1.7,3.6,1.7c0.9,0,1.7-0.3,2.4-0.7c0.6-0.5,1.3-1.4,1.7-2.5l0.5,0.3
						c-0.2,1.4-0.8,2.6-1.8,3.7s-2.3,1.7-3.8,1.7c-1.6,0-3.1-0.6-4.3-1.9c-1.2-1.3-1.8-3-1.8-5.2c0-2.4,0.6-4.2,1.8-5.6s2.7-2,4.6-2
						c1.5,0,2.8,0.5,3.8,1.5s1.5,2.4,1.5,4.1h-9.7V345z M-202.1,344.1h6.4c-0.1-0.9-0.2-1.5-0.3-1.9c-0.3-0.5-0.6-1-1.1-1.4
						s-1-0.5-1.5-0.5c-0.8,0-1.5,0.4-2.3,1C-201.7,342.1-202,342.9-202.1,344.1z"/>
				</g>
			</g>
			<g>
				<g>
					<g>
						<polygon points="-240.7,281.2 -253.5,270.5 -266.1,281 -278.7,270.5 -291.3,281 -305.7,268.9 -303.3,267 -291.3,277.1 
							-278.7,266.5 -266.1,277.1 -253.5,266.5 -238.8,278.9 						"/>
					</g>
				</g>
				<g>
					<g>
						<g>
							<path d="M-313.8,275.7l2.3-1.9l0.5,0.9c10.5,17.8,29.9,28.8,50.5,28.8c32.3,0,58.6-26.3,58.6-58.6s-26.3-58.6-58.6-58.6
								s-58.6,26.2-58.6,58.5c0,6,0.9,11.9,2.7,17.6l12.6-10.6l12.6,10.6l12.8-10.7l1.9,2.3l-14.7,12.4l-12.7-10.7l-14,11.8
								l-0.9-2.6c-2.2-6.4-3.3-13.2-3.3-20c0-34,27.6-61.6,61.6-61.6s61.6,27.6,61.6,61.6s-27.6,61.6-61.6,61.6
								c-21.7,0-42-11.6-53-30.3L-313.8,275.7"/>
						</g>
					</g>
				</g>
			</g>
			<g>
				<path class="st2" d="M-260.5,342.2"/>
			</g>
		</g>
	</g>
</g>
</svg>
