<?xml version="1.0" encoding="utf-8"?>
<!-- Generator: Adobe Illustrator 19.0.1, SVG Export Plug-In . SVG Version: 6.00 Build 0)  -->
<svg version="1.1" id="圖層_1" xmlns="http://www.w3.org/2000/svg" xmlns:xlink="http://www.w3.org/1999/xlink" x="0px" y="0px"
	 viewBox="-402.4 305.4 193.5 74.8" style="enable-background:new -402.4 305.4 193.5 74.8;" xml:space="preserve">
<style type="text/css">
	.st0{enable-background:new    ;}
	.st1{fill:#A0A0A0;}
</style>
<g>
	<g class="st0">
		<path d="M-391.7,348.1v-7.9l-2.6,7.9h-2.4l-2.6-7.8v7.8h-2.9v-12.2h4.2l2.7,7.8l2.6-7.8h4.1v12.2H-391.7z"/>
		<path d="M-384.2,337.4v3.6h7.6v7h-10.7l-0.6-1.6h8v-3.9h-7.5v-6.6h10.8v1.6L-384.2,337.4L-384.2,337.4z"/>
		<path d="M-368.9,348.1h-5v-7h-1.6v-1.5h1.6v-2.8h3.1v2.8h2.3v1.5h-2.3v5.6h2.6L-368.9,348.1z"/>
		<path d="M-366.8,338.5v-2.6h3.1v2.7h-3.1V338.5z M-366.8,348.1v-8.6h3.1v8.6H-366.8z"/>
		<path d="M-357.2,341v7h-3.1v-7h-1.9v-1.5h1.9v-3.6h5.4v1.5h-2.4v2.2h2.4v1.5h-2.3V341z"/>
		<path d="M-349.2,341v7h-3.1v-7h-1.9v-1.5h1.9v-3.6h5.4v1.5h-2.4v2.2h2.4v1.5h-2.3V341z"/>
		<path d="M-338,348.1v-5.4h-4.8v5.4h-3.2v-12.2h3.2v5.2h4.8v-5.2h3.2v12.2H-338z"/>
		<path d="M-324.8,348.1h-8.7v-8.6h8.9v5.3h-5l-0.9-1.3v3.1h6.2L-324.8,348.1z M-327.6,341.1h-2.8v2.2h2.8V341.1z"/>
		<path d="M-322.6,338.5v-2.6h3.1v2.7h-3.1V338.5z M-322.6,348.1v-8.6h3.1v8.6H-322.6z"/>
		<path d="M-309.7,348.1v-5.4h-4.8v5.4h-3.2v-12.2h3.2v5.2h4.8v-5.2h3.2v12.2H-309.7z"/>
		<path d="M-297.4,348.1l-3.5-5.4h-1.1v5.4h-3.2v-12.2h3.2v5.2h1.2l3.3-5.2h3.6l-3.8,6l3.9,6.1h-3.6V348.1z"/>
		<path d="M-288.4,348.1v-12.2h3.1v10.6h4.9v-10.6h3.1v12.2H-288.4z"/>
		<path d="M-275.5,348.1v-12.2h3.1v12.2H-275.5z"/>
		<path d="M-264.2,348.1h-5v-7h-1.6v-1.5h1.6v-2.8h3.1v2.8h2.3v1.5h-2.3v5.6h2.6L-264.2,348.1z"/>
		<path d="M-259.5,341.1v7h-3.1v-8.6h3.1v1.3l0.9-1.3h3v1.5h-3.9V341.1z"/>
		<path d="M-245.6,348.1h-3.1v-1.2l-0.8,1.2h-5v-8.5h5.1l0.8,1.2v-1.2h3v7.1h0.9L-245.6,348.1z M-248.7,341h-2.9v5.7h2.9V341z"/>
		<path d="M-240.2,348.1l-0.9-1.2v1.2h-3v-12.2h3v4.9l1-1.3h5.1v8.5h-5.2V348.1z M-238,341.1h-3v5.5h3V341.1z"/>
		<path d="M-233.7,348.1v-8.6h9v8.6H-233.7z M-227.7,341h-2.9v5.6h2.9V341z"/>
		<path d="M-222.9,348.1v-12.2h3.1v12.2H-222.9z"/>
		<path d="M-211.9,348.1v-1.3l-0.9,1.3h-5.2v-8.6h5.1l0.9,1.2v-4.8h3.1v12.2H-211.9z M-211.9,341h-3v5.5h3V341z"/>
	</g>
	<g class="st0">
		<path d="M-394.3,373.1l-0.9,0.6h3.8v6.3h-4.4l-0.7-1.5l-1.6,1.5h-4l2.5-2.1h-2.6l2.8-2.1h-3l4.1-2.7h-3.5v-1.5h15.7v1.5H-394.3z
			 M-389.5,370.9v-1.8h-9v1.8h-3.3v-3.3h2.9v-0.8h-2.9v-1.6h2.9v-1h3.3v1h3.2v-1h3.3v1h2.9v1.6h-2.9v0.8h2.9v3.3H-389.5z
			 M-397.9,371.1v-1.4h7.9v1.4H-397.9z M-394.8,375.1h-2.3l-0.5,0.4h2.7l-2,1.6h2.1l-1.4,1.3h1.6v-3.3H-394.8z M-392.4,366.8h-3.2
			v0.8h3.2V366.8z M-387.6,376.2h-3.5l1.7-2.6h3.5L-387.6,376.2z M-389.4,380.1l-1.6-3.4h3.5l1.6,3.4H-389.4z"/>
		<path d="M-380.3,367.9h2.6v1.7l-2.8,3.3h1.2v-1h1.6v2.8h-6v-1.8l2.6-3.2h-2.7v-1.8l2.9-3.6h3.4L-380.3,367.9z M-383.8,380.1v-5
			h1.8v5H-383.8z M-381.5,380.1v-5h1.8v5H-381.5z M-379.4,380.1v-5h1.7v5H-379.4z M-372.5,380.1l-0.8-1.7h2.4v-1.5h-1.4l-0.5-2
			l-0.5,2h-1.4v3.2h-2.7v-12.4h3v-1.5h-2.1v-1.8h5v3.3h3.3v12.4H-372.5z M-373.9,369.4h-0.7v6.3l0.7-3.3V369.4z M-370.9,369.4h-0.7
			v2.9l0.7,3.6V369.4z"/>
		<path d="M-350.5,380h-10.9l-2.3-1.5l-0.1,1.5h-2.1l0.5-7.4h2l-0.2,4.1l0.7,0.5v-5.7h-2.9v-1.7h2.3v-1.9h-1.8v-1.7h1.8v-2h3.2v2
			h1.8v1.7h-1.8v1.9h2.2v0.8l1.3-4.5h-0.9v-1.7h7.7v6.4h-3.5l-0.7-1.7h1.3v-3h-0.8l-1.3,4.7h-3v0.7h-1.8v2.2h1.7v1.7h-1.7v3h10.2
			L-350.5,380z M-357.7,377.7v-6.4h7.4v6.4H-357.7z M-353.5,373.1h-1.1v3h1.1V373.1z"/>
		<path d="M-341.3,380l-0.7-1.7h1.9v-7.4h-1.6v4.9h0.4v-4.1h0.7v5.8h-3.9v-5.8h0.7v4.1h0.4v-4.9h-1.7v9.1h-2.8v-15.7h10.5V380
			L-341.3,380L-341.3,380z M-340,366.1h-4.9v3.2h2.2l0.1-0.4h-1.6l-0.6-2.3h1.8l0.5,1.8l0.4-1.8h1.9l-0.5,2.7h0.8L-340,366.1
			L-340,366.1z M-336.7,376.8v-11.2h1.4v11.2H-336.7z M-335.9,380l-0.7-1.7h1.7v-14.2h2.8V380H-335.9z"/>
		<path d="M-326.7,380h-3.2l0.8-3.2h3.2L-326.7,380z M-329.6,376.3v-1.7h6v-0.9h-5.6v-1.6h5.6v-0.8h-5.5v-7h14.4v7h-5.6v0.8h5.6v1.6
			h-5.6v0.9h6.2v1.7H-329.6z M-323.6,366h-2.4v3.8h2.4V366z M-325,380l-0.8-3.2h3.1l0.8,3.2H-325z M-325.3,369.1l-0.5-2.5h1.5
			l0.5,2.5H-325.3z M-321.1,380l-0.8-3.2h3.1l0.8,3.2H-321.1z M-317.8,366h-2.4v3.8h2.4V366z M-318.6,369.1h-1.4l0.5-2.5h1.5
			L-318.6,369.1z M-317.1,380l-0.8-3.2h3.1l0.8,3.2H-317.1z"/>
		<path d="M-305.1,372.1v8h-3l-0.5-1.6h0.8v-0.8h-1v2.5h-2.6v-8h-0.5v-2.9h0.5v-4.9h6.4v4.9h0.4v2.9h-0.5V372.1z M-307.4,366.1h-1.9
			v3.1h0.5v-2.6h1.4V366.1z M-307.4,370.9h-1.9v0.7h1.9V370.9z M-307.8,373.2h-1v0.6h1V373.2z M-307.8,375.4h-1v0.6h1V375.4z
			 M-307.4,368.3h-0.5v0.9h0.5V368.3z M-304.6,380v-1.6h1.2l-0.4-1.1h2.9l0.4,1.1h0.6l0.4-1.1h2.8l-0.4,1.1h1.2v1.6H-304.6z
			 M-304.5,373.4v-1.6h8.6v1.6H-304.5z M-304.4,371.4V365h1.8v-0.8h2v0.8h0.5v-0.8h2v0.8h1.9v6.4H-304.4z M-304.2,377v-3.2h7.9v3.2
			H-304.2z M-302.1,366.7h-0.5v0.8h0.5V366.7z M-302.1,369.1h-0.5v0.8h0.5V369.1z M-299.1,375.2h-2.2v0.5h2.2V375.2z M-300,366.7
			h-0.5v0.8h0.5V366.7z M-300,369.1h-0.5v0.8h0.5V369.1z M-298,366.7h-0.5v0.8h0.5V366.7z M-298,369.1h-0.5v0.8h0.5V369.1z"/>
	</g>
	<g>
		<path class="st1" d="M-401.3,320.3h-1l0.3-10h1L-401.3,320.3z M-397.8,309.4v11.9h-2.8v-11.9h-1.6v-1.7h1.6v-2.3h2.8v2.3h1.6v1.7
			H-397.8z M-397.2,320.3l-0.2-10h1l0.3,10H-397.2z M-389.7,317.2v4.1h-3.3l-0.4-1l-0.3,1h-2.5l0.9-3.5h2.5l-0.5,1.9h0.7v-2.5h-3.4
			v-1.6h9.7v1.6H-389.7z M-388.5,307.4l0,0.8h1.9v4.5h-9.2v-4.5h1.9v-0.8h-2.2v-1.7h9.8v1.7H-388.5z M-395.5,314.9v-1.5h8.7v1.5
			H-395.5z M-392.8,309.8h-0.6v1.4h0.6V309.8z M-390.9,307.4h-0.6v0.8h0.6V307.4z M-390.9,309.8h-0.6v1.4h0.6V309.8z M-389,309.8
			h-0.6v1.4h0.6V309.8z M-388.7,321.4l-0.7-3.5h2.5l0.7,3.5H-388.7z"/>
		<path class="st1" d="M-368.6,321.4h-11.5l-1.7-1.4l-0.2,1.4h-2.5l0.7-5.9h2.4l-0.3,2.5l0.8,0.7v-4h-3.5V313h8.1v1.7h-1.6v1.5h1.6
			v1.6h-1.6v1.9h9.8L-368.6,321.4z M-383.8,312.3v-6.6h7.2v6.6H-383.8z M-379.5,307.4h-1.3v0.8h1.3V307.4z M-379.5,309.8h-1.3v0.8
			h1.3V309.8z M-373.8,319.3h-3l1.4-2.4h3L-373.8,319.3z M-370.7,307.4l-0.2,1h2.2v8.2h-7.1v-8.2h1.7l0.2-1h-2.3v-1.7h7.7v1.7
			H-370.7z M-371.6,310h-1.3v0.7h1.3V310z M-371.6,312.1h-1.3v0.7h1.3V312.1z M-371.6,314.2h-1.3v0.7h1.3V314.2z M-370.9,319.3
			l-1.2-2.4h3l1.2,2.4H-370.9z"/>
	</g>
</g>
</svg>
