<?xml version="1.0" encoding="utf-8"?>
<!-- Generator: Adobe Illustrator 19.0.1, SVG Export Plug-In . SVG Version: 6.00 Build 0)  -->
<svg version="1.1" id="圖層_1" xmlns="http://www.w3.org/2000/svg" xmlns:xlink="http://www.w3.org/1999/xlink" x="0px" y="0px"
	 viewBox="-184.5 165.7 217.7 45.1" style="enable-background:new -184.5 165.7 217.7 45.1;" xml:space="preserve">
<style type="text/css">
	.st0{enable-background:new    ;}
	.st1{fill:#A0A0A0;}
</style>
<g>
	<g class="st0">
		<path class="st1" d="M-183.9,168.6h1.5v-2.4c0-0.3,0.3-0.5,0.8-0.5c0.5,0,0.7,0.2,0.7,0.5v2.4h0.9c0.3,0.1,0.5,0.4,0.5,0.8
			c0,0.6-0.2,0.9-0.6,0.9h-0.8v0.3c0.7,0.9,1.3,1.6,1.6,2.2c0.1,0.1,0.1,0.2,0.1,0.3c0,0.5-0.3,0.7-0.9,0.7c-0.2,0-0.4-0.1-0.5-0.4
			c-0.1-0.2-0.2-0.5-0.3-0.7v7.3c0,0.4-0.2,0.6-0.7,0.6c-0.5,0-0.8-0.2-0.8-0.5v-5.7c-0.3,0.7-0.6,1.3-0.9,1.8
			c-0.1,0.1-0.2,0.1-0.4,0.2c-0.4,0-0.7-0.3-0.8-0.9c0-0.2,0.1-0.4,0.2-0.6c0.9-1.4,1.5-2.9,1.9-4.4v-0.2h-1.4
			c-0.4,0-0.6-0.3-0.6-0.9C-184.4,169-184.3,168.7-183.9,168.6z M-177.4,177.2c0.4,0.1,0.7,0.4,0.8,0.8c0,0.2-0.1,0.4-0.2,0.5
			c-0.4,0.5-1,1-1.9,1.6c-0.4,0.3-0.7,0.5-1,0.5c-0.5-0.1-0.8-0.4-0.8-1.1c0.1-0.1,0.2-0.3,0.5-0.5c0.9-0.5,1.7-1,2.1-1.6
			C-177.7,177.3-177.6,177.2-177.4,177.2z M-179.2,166.2h9.1c0.3,0.1,0.4,0.3,0.4,0.8c0,0.5-0.1,0.8-0.4,0.8h-2.6v0.8h1.8
			c0.6,0.1,1,0.4,1,1.1v2.1c0,0.7-0.3,1.1-1,1.2h-7.4c-0.6-0.1-0.8-0.5-0.8-1.1v-2.4c0.1-0.5,0.3-0.8,0.8-0.8h1.7v-0.8h-2.4
			c-0.3,0-0.5-0.3-0.5-0.8C-179.6,166.5-179.5,166.3-179.2,166.2z M-179.2,175.5h9.2c0.2,0.1,0.4,0.3,0.4,0.7c0,0.5-0.1,0.7-0.4,0.7
			h-3.9v2.5c0,0.8-0.5,1.3-1.5,1.3c-0.4,0-0.8-0.1-1.2-0.2c-0.4-0.2-0.7-0.5-0.7-0.8c0.1-0.5,0.3-0.8,0.6-0.8c0.2,0,0.5,0.1,0.9,0.3
			c0.3,0,0.4-0.1,0.4-0.4v-1.8h-3.7c-0.3,0-0.5-0.3-0.5-0.8C-179.5,175.8-179.4,175.5-179.2,175.5z M-178.7,173.3h8.2
			c0.3,0,0.4,0.3,0.4,0.7c0,0.5-0.1,0.8-0.4,0.8h-8c-0.3,0-0.5-0.3-0.5-0.8C-179.1,173.7-179,173.4-178.7,173.3z M-177.7,169.9
			c-0.1,0-0.2,0.1-0.2,0.2v1c0,0.1,0.1,0.2,0.2,0.2h0.9v-1.5H-177.7z M-174.1,168.5v-0.8h-1.3v0.8H-174.1z M-175.4,169.9v1.5h1.3
			v-1.5H-175.4z M-172.5,177.2c0.2,0,0.3,0.1,0.6,0.2c0.8,0.5,1.5,1,2.2,1.6c0.2,0.1,0.3,0.3,0.3,0.6c0,0.6-0.2,0.9-0.8,0.9
			c-0.2,0-0.3-0.1-0.5-0.2c-0.6-0.6-1.3-1.1-2-1.5c-0.3-0.2-0.5-0.4-0.6-0.7C-173.2,177.6-173,177.3-172.5,177.2z M-172.7,169.9v1.5
			h1.1c0.2,0,0.2-0.1,0.2-0.2v-1.1c0-0.1-0.1-0.2-0.2-0.2H-172.7z"/>
		<path class="st1" d="M-168,172.5h6.6c0.3,0.1,0.5,0.3,0.5,0.8c0,0.5-0.2,0.8-0.5,0.8h-2v1.3h1.9c0.3,0,0.4,0.3,0.4,0.7
			c0,0.5-0.2,0.8-0.5,0.8h-1.8v1.5c0.6,0.2,1.2,0.4,1.8,0.5c0-0.1,0-0.3,0-0.4c0-0.1,0.2-0.3,0.5-0.5c0.8-0.3,1.4-0.7,1.8-1.1h-0.5
			c-0.6,0-0.9-0.4-0.9-1v-6.3c0-0.6,0.3-1,0.9-1h1l0.3-0.8h-2.4c-0.3,0-0.5-0.3-0.5-0.8c0-0.4,0.1-0.6,0.4-0.7h6.6
			c0.3,0.1,0.4,0.3,0.4,0.8c0,0.5-0.1,0.8-0.4,0.8h-2.5l-0.3,0.8h1.7c0.6,0,0.9,0.3,0.9,0.9v6.3c0,0.7-0.3,1.1-0.9,1.1h-0.8
			c0.7,0.4,1.2,0.8,1.8,1.3c0.2,0.1,0.2,0.3,0.2,0.5c0,0.1,0,0.2,0,0.3h0.2c0.2,0,0.3,0.1,0.4,0.3c0,0.1,0.1,0.4,0.1,0.7
			c0,0.4-0.3,0.7-0.8,0.7c-1.1,0-2.3,0-3.7,0c-3.9,0-6.7-0.8-8.2-2.2c-0.1,0.6-0.3,1.1-0.5,1.6c-0.1,0.2-0.3,0.4-0.6,0.4
			c-0.5,0-0.8-0.2-0.8-0.8c0-0.1,0.1-0.2,0.2-0.5c0.4-1.2,0.7-2.7,0.9-4.4c0.1-0.3,0.3-0.4,0.6-0.4c0.3,0,0.4,0.1,0.5,0.1
			c0.2,0.1,0.3,0.3,0.3,0.4c0,0.6-0.1,1.2-0.2,1.7c0.3,0.3,0.6,0.5,1,0.8V174h-2.9c-0.3,0-0.5-0.3-0.5-0.8
			C-168.5,172.8-168.3,172.6-168,172.5z M-166.9,166.1h4.3c0.6,0,0.9,0.3,1,0.9v3.9c0,0.7-0.3,1-0.9,1h-4.3c-0.6,0-0.9-0.4-0.9-1v-4
			C-167.8,166.4-167.5,166.1-166.9,166.1z M-166.4,168.3h3.2v-0.4c0-0.2-0.1-0.3-0.3-0.4h-2.6c-0.2,0-0.3,0.1-0.3,0.3V168.3z
			 M-163.2,170.1v-0.4h-3.2v0.5c0,0.2,0.1,0.3,0.3,0.3h2.6C-163.3,170.5-163.2,170.3-163.2,170.1z M-158.2,176.8
			c0.1,0.1,0.1,0.2,0.2,0.4c0,0.2-0.1,0.3-0.2,0.5c-0.3,0.4-0.9,0.8-1.7,1.3c0,0-0.1,0.1-0.1,0.1c0.4,0,0.7,0.1,1.1,0.1
			c0.9,0,2,0,3.3-0.1c-0.5-0.5-1-0.9-1.5-1.2c-0.3-0.2-0.5-0.4-0.5-0.6c0-0.2,0.1-0.3,0.2-0.4H-158.2z M-159.4,170.8h3.5v-0.3
			c0-0.2-0.1-0.4-0.3-0.4h-2.7c-0.2,0-0.4,0.1-0.4,0.3V170.8z M-159.4,173h3.5v-0.8h-3.5V173z M-155.9,174.8v-0.5h-3.5v0.7
			c0.1,0.2,0.2,0.3,0.3,0.3h2.9C-156,175.3-155.9,175.1-155.9,174.8z"/>
	</g>
	<g class="st0">
		<path d="M-182.8,199.8h1.9l0,0c-0.1-0.1-0.2-0.4-0.2-0.7v-0.3h-2.1c-0.3,0-0.6-0.1-0.7-0.2c-0.2-0.1-0.2-0.4-0.2-0.7
			s0.1-0.6,0.2-0.7c0.1-0.1,0.4-0.2,0.7-0.2h2.1v-0.1c0-0.3,0.1-0.5,0.2-0.7c0.1-0.2,0.4-0.3,0.8-0.3c0.4,0,0.7,0.1,0.9,0.2
			c0.1,0.1,0.2,0.4,0.2,0.8v0.1h3.9v-0.1c0-0.3,0.1-0.5,0.2-0.7c0.1-0.2,0.4-0.3,0.8-0.3c0.4,0,0.7,0.1,0.9,0.2
			c0.1,0.1,0.2,0.4,0.2,0.8v0.1h2.2c0.3,0,0.6,0.1,0.7,0.2c0.1,0.1,0.2,0.3,0.2,0.7c0,0.3-0.1,0.5-0.2,0.6c-0.2,0.2-0.4,0.3-0.8,0.3
			h-2.2v0.2c0,0.3-0.1,0.6-0.2,0.7c0,0-0.1,0.1-0.1,0.1h2.1c0.3,0,0.4,0.1,0.6,0.2c0.1,0.1,0.2,0.3,0.2,0.6c0,0.2,0,0.4-0.1,0.5
			c-0.1,0.2-0.3,0.2-0.6,0.2h-0.8v1h1.4c0.3,0,0.5,0.1,0.7,0.2c0.1,0.1,0.2,0.3,0.2,0.6c0,0.3-0.1,0.5-0.2,0.6
			c-0.2,0.2-0.4,0.3-0.7,0.3h-1.4v1h1c0.3,0,0.5,0.1,0.6,0.2c0.1,0.1,0.2,0.3,0.2,0.6c0,0.2,0,0.4-0.1,0.5c-0.1,0.2-0.4,0.3-0.7,0.3
			h-4.9v0.7h3.6c0.3,0,0.5,0.1,0.6,0.2c0.1,0.1,0.2,0.3,0.2,0.6c0,0.2,0,0.4-0.1,0.6c-0.1,0.2-0.4,0.3-0.7,0.3h-3.6v0.8
			c0,0.4-0.1,0.6-0.3,0.8c-0.2,0.2-0.4,0.3-0.8,0.3c-0.4,0-0.6-0.1-0.8-0.3c-0.2-0.2-0.3-0.4-0.3-0.8V209h-3.6
			c-0.3,0-0.5-0.1-0.6-0.2c-0.1-0.1-0.2-0.3-0.2-0.6c0-0.3,0.1-0.5,0.2-0.6c0.1-0.1,0.3-0.2,0.6-0.2h3.6v-0.7h-4.9
			c-0.3,0-0.5-0.1-0.6-0.2c-0.1-0.1-0.2-0.3-0.2-0.6c0-0.3,0.1-0.5,0.2-0.6c0.1-0.1,0.3-0.2,0.6-0.2h1v-1h-1.4
			c-0.3,0-0.5-0.1-0.7-0.2c-0.1-0.1-0.2-0.3-0.2-0.7c0-0.3,0.1-0.5,0.2-0.6c0.1-0.1,0.4-0.2,0.7-0.2h1.4v-1h-0.9
			c-0.2,0-0.4-0.1-0.6-0.2c-0.1-0.1-0.2-0.3-0.2-0.6c0-0.3,0.1-0.5,0.2-0.6C-183.3,199.9-183.1,199.8-182.8,199.8z M-178.1,202.3v-1
			h-1.9v1H-178.1z M-180,205h1.9v-1h-1.9V205z M-174.8,199.8c-0.1,0-0.1-0.1-0.1-0.1c-0.1-0.1-0.2-0.4-0.2-0.7v-0.2h-3.9v0.3
			c0,0.3-0.1,0.6-0.2,0.7l0,0H-174.8z M-173.9,202.3v-1h-2v1H-173.9z M-175.9,204v1h2v-1H-175.9z"/>
		<path d="M-163.8,199.4h3v-0.6h-4c-0.3,0-0.4,0.1-0.4,0.4v1.9c0,3.6-0.3,6.4-1,8.6c-0.1,0.2-0.2,0.4-0.4,0.5
			c-0.1,0.1-0.3,0.2-0.6,0.2c-0.4,0-0.7-0.1-0.8-0.2c-0.2-0.2-0.3-0.4-0.3-0.7c0-0.1,0-0.3,0.1-0.5c0.4-1.5,0.7-2.9,0.8-4.4
			c0-1.3,0.1-2.4,0.1-3.5v-2.5c0-1,0.6-1.5,1.8-1.5h3.9V197c0-0.3,0.1-0.6,0.4-0.9c0.2-0.2,0.5-0.2,0.9-0.2c0.5,0,0.8,0.1,1,0.2
			c0.3,0.2,0.4,0.5,0.4,0.9v0.1h4.4c0.5,0,0.8,0.3,0.8,0.9c0,0.6-0.3,0.8-0.8,0.9h-4.1v0.6h2.5c1,0,1.5,0.4,1.5,1.3v0.6h0.3
			c0.3,0,0.6,0.1,0.7,0.2c0.1,0.1,0.2,0.4,0.2,0.7c0,0.3,0,0.5-0.1,0.7c-0.1,0.2-0.4,0.3-0.7,0.3h-0.3v0.7c0,0.3-0.1,0.6-0.2,0.8
			c0.2,0,0.3,0.1,0.5,0.2c0.3,0.2,0.4,0.4,0.4,0.8c0,0.2-0.1,0.4-0.2,0.5c-0.4,0.6-1,1.1-1.7,1.6c0.6,0.3,1.2,0.6,1.8,0.9
			c0.3,0.1,0.4,0.4,0.4,0.7c0,0.3-0.1,0.5-0.3,0.7c-0.1,0.2-0.4,0.4-0.7,0.4c-0.3,0-0.7-0.1-1.2-0.3c-0.7-0.3-1.4-0.8-2.2-1.4
			c-0.2-0.2-0.5-0.4-0.7-0.6v0.8c0,0.7-0.1,1.2-0.4,1.5c-0.3,0.3-0.8,0.5-1.5,0.5c-0.5,0-1-0.1-1.5-0.2c-0.3-0.2-0.5-0.4-0.5-0.8
			c0-0.2,0.1-0.4,0.2-0.7c0.1-0.2,0.3-0.3,0.6-0.3c0,0,0.1,0,0.1,0c0.1,0.1,0.3,0.1,0.4,0.1c0.3,0,0.5-0.1,0.5-0.4v-3.2h-2
			c0,0,0.1,0.1,0.1,0.1c0.5,0.6,0.7,1,0.7,1.2c0,0.1,0,0.2,0,0.2c0.1,0.1,0.2,0.1,0.4,0.2c0.2,0.2,0.3,0.4,0.3,0.6
			c0,0.2-0.1,0.4-0.2,0.5c-1.2,1.1-2,1.7-2.4,1.8c-0.1,0.1-0.3,0.1-0.5,0.1c-0.2,0-0.5-0.1-0.7-0.4c-0.2-0.2-0.3-0.4-0.3-0.6
			c0-0.2,0.1-0.4,0.2-0.5c0.4-0.3,0.9-0.7,1.7-1.2c-0.1-0.1-0.2-0.2-0.3-0.4c-0.3-0.4-0.6-0.8-0.8-1.1c-0.1-0.1-0.1-0.2-0.1-0.2
			c0-0.2,0.1-0.4,0.3-0.6c0-0.1-0.1-0.2-0.1-0.4c0-0.4,0.2-0.7,0.6-0.7h3.1V203h-3.5c-0.2,0-0.4-0.1-0.5-0.2
			c-0.1-0.1-0.2-0.3-0.2-0.6c0-0.3,0.1-0.5,0.2-0.6c0.1-0.1,0.3-0.1,0.5-0.1h3.5v-0.6h-3c-0.4,0-0.6-0.3-0.6-0.8
			C-164.4,199.7-164.2,199.5-163.8,199.4z M-158.7,200.9v0.6h1.9v-0.3c0-0.2-0.1-0.3-0.4-0.3H-158.7z M-158.7,203v0.8h1.5
			c0.2,0,0.4-0.1,0.4-0.3V203H-158.7z M-158.7,205.7c0.4,0.4,0.8,0.8,1.2,1.1c0.6-0.4,1.1-0.9,1.6-1.5c0,0,0.1-0.1,0.1-0.1
			c-0.1,0-0.2,0-0.3,0h-2.7V205.7z"/>
		<path d="M-148.4,195.9c0.4,0,0.6,0.1,0.8,0.2c0.2,0.2,0.3,0.4,0.3,0.7v0.5h1.6c0.3,0,0.5,0.1,0.6,0.2c0.2,0.1,0.2,0.3,0.2,0.7
			c0,0.3,0,0.5-0.1,0.6c-0.1,0.2-0.4,0.3-0.7,0.3h-0.1l-0.3,1.8h0.5c0.3,0,0.5,0.1,0.6,0.2c0.2,0.1,0.2,0.3,0.2,0.7
			c0,0.3-0.1,0.5-0.2,0.6c-0.1,0.2-0.4,0.3-0.7,0.3h-1.9v1.1h1.5c0.3,0,0.5,0.1,0.7,0.2c0.2,0.1,0.2,0.3,0.2,0.7
			c0,0.3,0,0.6-0.1,0.7c-0.2,0.2-0.4,0.3-0.8,0.3h-1.5v0.5l0,0c0.2-0.1,0.3-0.2,0.5-0.2c0.2,0,0.4,0.1,0.6,0.2
			c0.2,0.2,0.4,0.5,0.7,0.9c0.3,0.4,0.4,0.7,0.5,0.8c0.6-1.2,0.8-2.5,0.8-3.8V199c0-0.8,0.2-1.4,0.7-1.7c0.2-0.2,0.7-0.3,1.2-0.3
			c1.5-0.2,2.5-0.5,3.1-0.8c0.1,0,0.2,0,0.2,0c0.3,0,0.5,0.1,0.7,0.3c0.2,0.2,0.3,0.4,0.3,0.8c0,0.6-0.2,0.9-0.8,1.1
			c-0.6,0.2-1.6,0.4-3,0.6c-0.3,0-0.5,0.2-0.5,0.5v1.4h3.7c0.4,0,0.6,0.1,0.8,0.2c0.1,0.2,0.2,0.4,0.2,0.8c0,0.4-0.1,0.6-0.2,0.8
			c-0.2,0.2-0.4,0.3-0.8,0.3h-0.4v6.6c0,0.3-0.1,0.6-0.2,0.7c-0.2,0.2-0.4,0.2-0.8,0.2c-0.3,0-0.6-0.1-0.8-0.2
			c-0.2-0.1-0.2-0.4-0.2-0.7V203h-1.3v1.2c0,2.4-0.5,4.3-1.4,5.8c-0.2,0.4-0.7,0.6-1.3,0.6c-0.3-0.1-0.5-0.2-0.6-0.4
			c-0.1-0.2-0.2-0.5-0.2-0.8c0-0.1,0.1-0.3,0.3-0.6c0,0,0,0,0,0c-0.1,0.1-0.3,0.1-0.4,0.1c-0.2,0-0.4-0.1-0.5-0.3
			c-0.3-0.5-0.6-1-1-1.4v2.4c0,0.3-0.1,0.6-0.2,0.7c-0.2,0.2-0.4,0.2-0.7,0.2c-0.3,0-0.6-0.1-0.8-0.2c-0.2-0.1-0.3-0.4-0.3-0.7v-2.3
			c-0.5,1-1,1.7-1.6,2.2c-0.1,0.1-0.3,0.2-0.5,0.2c-0.3,0-0.5-0.1-0.7-0.4c-0.1-0.1-0.2-0.4-0.2-0.7c0-0.1,0.1-0.3,0.2-0.6
			c0.4-0.5,0.9-1,1.4-1.7c0.2-0.2,0.4-0.5,0.5-0.8h-1c-0.3,0-0.5-0.1-0.7-0.2c-0.2-0.1-0.3-0.4-0.3-0.8s0.1-0.6,0.3-0.8
			c0.1-0.1,0.3-0.2,0.7-0.2h1.8v-1.1h-2.1c-0.3,0-0.5-0.1-0.6-0.2c-0.2-0.1-0.2-0.4-0.2-0.7c0-0.4,0.1-0.6,0.2-0.7
			c0.1-0.1,0.3-0.2,0.6-0.2h0.8l-0.3-1.8h-0.2c-0.3,0-0.5-0.1-0.6-0.2c-0.2-0.1-0.2-0.4-0.2-0.7c0-0.4,0.1-0.6,0.2-0.8
			c0.1-0.1,0.3-0.2,0.6-0.2h1.6v-0.5c0-0.3,0.1-0.5,0.3-0.7C-149,196-148.8,195.9-148.4,195.9z M-148.9,201h1.2l0.3-1.8h-1.8
			L-148.9,201z"/>
		<path d="M-135,196.9c0.4,0,0.6,0.1,0.8,0.2c0.2,0.1,0.4,0.4,0.4,0.8c0,0.2,0,0.6-0.1,1c0,0.1,0,0.2-0.1,0.3h0.5v-2.1
			c0-0.3,0.1-0.6,0.3-0.7c0.1-0.2,0.4-0.3,0.7-0.3c0.3,0,0.6,0.1,0.8,0.3c0.2,0.2,0.3,0.4,0.3,0.7v2.1h0.3c0.3,0,0.6,0.1,0.7,0.2
			c0.1,0.1,0.2,0.4,0.2,0.7c0,0.3-0.1,0.5-0.2,0.7c-0.1,0.2-0.4,0.3-0.7,0.3h-0.3v2.2c0.1,0,0.2,0,0.2-0.1c0.3,0,0.5,0.1,0.7,0.3
			c0.1,0.2,0.2,0.4,0.2,0.7c0,0.3-0.1,0.6-0.2,0.8c-0.1,0.2-0.4,0.3-0.7,0.3c-0.1,0-0.1,0-0.2,0.1v4c0,0.3-0.1,0.5-0.2,0.7
			c-0.2,0.2-0.4,0.4-0.8,0.4c-0.3,0-0.6-0.1-0.8-0.4c-0.2-0.2-0.2-0.4-0.2-0.7V206c-0.7,0.2-1.3,0.2-1.8,0.2c-0.4,0-0.6-0.1-0.8-0.3
			c-0.1-0.1-0.2-0.4-0.2-0.8c0-0.4,0.1-0.6,0.3-0.8c0.1-0.1,0.3-0.2,0.7-0.2c0.6-0.1,1.3-0.3,1.9-0.4v-2.7h-0.9
			c-0.2,0.7-0.3,1.2-0.4,1.5c-0.1,0.3-0.4,0.5-0.8,0.5c-0.3,0-0.6-0.1-0.7-0.3c-0.2-0.1-0.3-0.4-0.3-0.7c0-0.1,0-0.3,0.1-0.6
			c0.4-1.3,0.7-2.6,0.9-4.1C-135.5,197-135.3,196.9-135,196.9z M-129.4,197.4h2.4v-0.5c0-0.3,0.1-0.6,0.2-0.8
			c0.1-0.2,0.4-0.2,0.8-0.2c0.4,0,0.7,0.1,0.8,0.2c0.2,0.2,0.2,0.4,0.2,0.8v0.5h2.1c0.3,0,0.6,0.1,0.7,0.2c0.1,0.1,0.2,0.3,0.2,0.7
			c0,0.3-0.1,0.5-0.2,0.6c-0.2,0.2-0.4,0.3-0.8,0.3h-2.1v1.2h1.7c0.3,0,0.6,0.1,0.7,0.2c0.1,0.1,0.2,0.3,0.2,0.7
			c0,0.3-0.1,0.5-0.2,0.6c-0.2,0.2-0.4,0.3-0.8,0.3h-0.2v1.2h1c0.3,0,0.6,0.1,0.7,0.2c0.1,0.1,0.2,0.4,0.2,0.7
			c0,0.3-0.1,0.5-0.2,0.6c-0.2,0.2-0.4,0.3-0.8,0.3h-1v3.6c0,1-0.7,1.6-2.1,1.6c-0.3,0-0.6,0-0.9-0.1c-0.3,0-0.5-0.1-0.7-0.2
			c-0.1-0.1-0.2-0.3-0.3-0.4c-0.1-0.2-0.1-0.5-0.1-0.8c-0.1,0.1-0.3,0.1-0.4,0.1c-0.4,0-0.7-0.2-0.9-0.6c-0.3-0.6-0.7-1.2-1-1.8
			c-0.1-0.1-0.1-0.2-0.1-0.3c0-0.3,0.1-0.5,0.4-0.7c0.2-0.2,0.5-0.2,0.8-0.2c0.4,0,0.6,0.1,0.8,0.4c0.4,0.4,0.7,1,1.1,1.8
			c0.1,0.1,0.1,0.3,0.1,0.4c0,0.1,0,0.1,0,0.2c0,0,0.1,0,0.1,0h0.8c0.3,0,0.4-0.1,0.4-0.2v-2.7h-3.5c-0.3,0-0.6-0.1-0.7-0.2
			c-0.2-0.1-0.2-0.4-0.2-0.7c0-0.4,0.1-0.6,0.2-0.7c0.1-0.1,0.4-0.2,0.7-0.2h3.5v-1.2h-3.5c-0.3,0-0.6-0.1-0.7-0.2
			c-0.1-0.1-0.2-0.4-0.2-0.7s0.1-0.6,0.2-0.7c0.1-0.1,0.4-0.2,0.7-0.2h2v-1.2h-2.4c-0.3,0-0.5-0.1-0.7-0.2c-0.2-0.1-0.2-0.4-0.2-0.7
			c0-0.3,0.1-0.6,0.2-0.7C-129.9,197.4-129.7,197.4-129.4,197.4z"/>
		<path d="M-118.1,196.3h10.1c1.2,0,1.8,0.6,1.8,1.8v10.3c0,1.2-0.6,1.8-1.8,1.8h-10.1c-1.2,0-1.8-0.6-1.8-1.8v-10.3
			C-119.9,196.9-119.3,196.3-118.1,196.3z M-108.5,208.6c0.2,0,0.4-0.1,0.4-0.4v-9.8c0-0.3-0.1-0.4-0.4-0.4h-9
			c-0.2,0-0.4,0.1-0.4,0.4v9.8c0,0.3,0.1,0.4,0.4,0.4H-108.5z M-115.9,201.3h5.6c0.7,0,1.1,0.4,1.1,1.1v3.2c0,0.7-0.4,1.1-1.1,1.1
			h-0.3c0.3,0.2,0.6,0.3,0.8,0.4c0.1,0,0.2,0.1,0.3,0.1c0.3,0,0.4,0.2,0.4,0.4c0,0.2,0,0.3-0.1,0.4c-0.1,0.1-0.2,0.2-0.3,0.3
			c-0.1,0.1-0.3,0.1-0.6,0.1c-0.2,0-0.4-0.1-0.7-0.2c-0.5-0.3-0.9-0.5-1.3-0.8c-0.1-0.1-0.2-0.2-0.2-0.3c0-0.1-0.1-0.2-0.1-0.3h-1.4
			v0.1c0,0.2-0.1,0.3-0.2,0.5c-0.1,0.1-0.3,0.3-0.5,0.4c-0.3,0.2-0.7,0.4-1.1,0.7c-0.2,0.1-0.4,0.2-0.6,0.2c-0.2,0-0.4-0.1-0.6-0.3
			c-0.1-0.1-0.2-0.3-0.2-0.5c0-0.2,0.1-0.3,0.3-0.4c0.4-0.2,0.8-0.4,1.1-0.6h-0.3c-0.7,0-1.1-0.4-1.1-1.1v-3.2
			C-117,201.7-116.6,201.3-115.9,201.3z M-115.6,198.5h5.2c0.6,0,0.9,0.3,0.9,0.9v0.6c0,0.6-0.3,0.9-0.9,0.9h-5.2
			c-0.6,0-0.9-0.3-0.9-0.9v-0.6C-116.5,198.8-116.2,198.5-115.6,198.5z M-115.1,202.9h4v-0.2c0-0.2-0.1-0.2-0.2-0.2h-3.5
			c-0.2,0-0.2,0.1-0.2,0.2V202.9z M-115.1,204.3h4v-0.5h-4V204.3z M-111.3,205.6c0.2,0,0.2-0.1,0.2-0.2v-0.2h-4v0.2
			c0,0.2,0.1,0.2,0.2,0.2H-111.3z M-111.6,199.9c0.1,0,0.2-0.1,0.2-0.2v-0.1c0-0.1-0.1-0.2-0.2-0.2h-2.9c-0.1,0-0.2,0.1-0.2,0.2v0.1
			c0,0.1,0.1,0.2,0.2,0.2H-111.6z"/>
		<path d="M-96.3,197.1h1.2v-0.6c0-0.2,0-0.4,0.1-0.5c0.1-0.1,0.3-0.1,0.5-0.1c0.2,0,0.4,0,0.5,0.1c0.1,0.1,0.2,0.3,0.2,0.5v0.6h0.5
			v-0.6c0-0.2,0-0.4,0.1-0.5c0.1-0.1,0.2-0.1,0.5-0.1c0.2,0,0.4,0,0.5,0.1c0.1,0.1,0.2,0.3,0.2,0.5v0.6h1.2c0.6,0,1,0.3,1,0.9v3.4
			c0,0.6-0.3,1-1,1h-5.5c-0.5,0-0.7-0.2-0.9-0.5v0.5c0,0.3-0.1,0.5-0.3,0.6c-0.1,0.1-0.3,0.2-0.5,0.2c0,0.1,0,0.3,0,0.5v5.4
			c0,0.5-0.1,0.9-0.3,1c-0.2,0.2-0.5,0.3-1,0.3c-0.4,0-0.8-0.1-1.2-0.2c-0.3-0.1-0.5-0.4-0.5-0.7c0-0.6,0.2-0.9,0.6-1c0,0,0,0,0.1,0
			c0.1,0.1,0.2,0.1,0.3,0.1c0.2,0,0.2-0.1,0.2-0.4v-0.8h-2.1v2.1c0,0.3-0.1,0.5-0.3,0.6c-0.1,0.1-0.4,0.2-0.7,0.2s-0.5-0.1-0.7-0.2
			c-0.1-0.2-0.2-0.4-0.2-0.6v-6c0-0.2,0-0.3,0-0.4c-0.2,0-0.4-0.1-0.5-0.2c-0.2-0.2-0.2-0.4-0.2-0.7v-1.1c0-0.6,0.2-0.9,0.8-1v-2.9
			c0-0.8,0.4-1.2,1.2-1.2h3.3c0.8,0,1.2,0.4,1.2,1.2v2.9c0.4,0.1,0.6,0.3,0.7,0.6v-3C-97.2,197.4-96.9,197.1-96.3,197.1z
			 M-102.4,202.4h3.1c0.1,0,0.1,0,0.2,0v-0.6c0-0.1-0.1-0.2-0.3-0.2h-2.8c-0.2,0-0.2,0.1-0.2,0.2V202.4z M-101.8,200.3h0.6V199
			c0-0.4,0.2-0.6,0.6-0.6h1v-0.5c0-0.1-0.1-0.2-0.2-0.2h-1.8c-0.1,0-0.2,0.1-0.2,0.2V200.3z M-101.8,204.3h2.1v-0.4
			c0-0.2-0.1-0.2-0.2-0.2h-1.6c-0.2,0-0.3,0.1-0.3,0.2V204.3z M-101.8,206.3h2.1v-0.7h-2.1V206.3z M-100.1,200.3h0.4v-1h-0.2
			c-0.1,0-0.2,0.1-0.2,0.2V200.3z M-96.8,202.9h6.4c0.3,0,0.4,0.1,0.5,0.2c0.1,0.1,0.1,0.3,0.1,0.5c0,0.2,0,0.4-0.1,0.5
			c-0.1,0.1-0.3,0.2-0.6,0.2h-6.4c-0.2,0-0.4-0.1-0.5-0.2c-0.1-0.1-0.2-0.3-0.2-0.5c0-0.3,0.1-0.4,0.2-0.5
			C-97.2,202.9-97,202.9-96.8,202.9z M-96.3,204.8h5.7c0.5,0,0.8,0.3,0.8,0.8v1.2c0,0.5-0.3,0.8-0.8,0.8h-0.3l-0.3,1.1h1
			c0.3,0,0.5,0.1,0.6,0.2c0.1,0.1,0.2,0.3,0.2,0.6c0,0.2-0.1,0.4-0.2,0.5c-0.1,0.2-0.3,0.2-0.6,0.2h-6.5c-0.2,0-0.4-0.1-0.6-0.2
			c-0.1-0.1-0.2-0.3-0.2-0.6s0.1-0.5,0.2-0.6c0.1-0.1,0.3-0.2,0.6-0.2h1l-0.2-1.1h-0.4c-0.5,0-0.8-0.3-0.8-0.8v-1.2
			C-97.1,205-96.8,204.8-96.3,204.8z M-95.6,199.3h0.5v-1h-0.5V199.3z M-95.1,201.2v-1h-0.5v1H-95.1z M-91.9,206.6
			c0.2,0,0.2-0.1,0.2-0.2v-0.5c0-0.2-0.1-0.2-0.2-0.2h-3c-0.2,0-0.2,0.1-0.2,0.2v0.5c0,0.2,0.1,0.2,0.2,0.2H-91.9z M-93.9,208.7h1.1
			l0.3-1.1h-1.6L-93.9,208.7z M-93.8,198.3v1h0.5v-1H-93.8z M-93.2,201.2v-1h-0.5v1H-93.2z M-91.9,198.3v1h0.5v-1H-91.9z
			 M-91.5,201.2v-1h-0.5v1H-91.5z"/>
		<path d="M-73,204.1c0,1.4-0.4,2.6-1.2,3.6c-0.9,1.1-2,1.6-3.5,1.6h-3.4c-1.3,0-1.9-0.6-1.9-1.7v-7.1c0-1.1,0.6-1.7,1.9-1.7h3.5
			c1.5,0,2.6,0.5,3.5,1.6C-73.4,201.4-73,202.6-73,204.1z M-75.3,204c0-0.9-0.2-1.6-0.6-2.2c-0.5-0.6-1.1-1-2-1h-2.1
			c-0.3,0-0.5,0.1-0.6,0.3c0,0.1-0.1,0.2-0.1,0.4v5.1c0,0.3,0.1,0.5,0.2,0.6c0.1,0,0.2,0.1,0.5,0.1h2.2c0.8,0,1.5-0.3,2-1
			C-75.5,205.6-75.3,204.9-75.3,204z"/>
		<path d="M-62.4,199.8c0,0.3-0.1,0.5-0.3,0.7s-0.5,0.3-0.7,0.3h-5.4c-0.6,0-0.9,0.2-0.9,0.8v2h5.5c0.3,0,0.6,0.1,0.8,0.3
			c0.2,0.2,0.3,0.4,0.3,0.8c0,0.7-0.4,1-1.1,1h-5.5v2.8c0,0.8-0.4,1.2-1.1,1.2c-0.8,0-1.1-0.4-1.1-1.2v-8.2c0-1,0.5-1.5,1.6-1.5h6.9
			c0.3,0,0.6,0.1,0.8,0.3C-62.5,199.3-62.4,199.5-62.4,199.8z"/>
		<path d="M-51.8,208.4c0,0.8-0.3,1.2-1,1.2c-0.4,0-0.8-0.2-1.1-0.6l-5.1-6.5v6c0,0.8-0.4,1.1-1.2,1.1c-0.7,0-1.1-0.4-1.1-1.1v-8.8
			c0-0.8,0.4-1.2,1.1-1.2c0.5,0,0.9,0.2,1.2,0.6l5,6.4v-5.8c0-0.8,0.4-1.2,1.1-1.2c0.8,0,1.2,0.4,1.2,1.2V208.4z"/>
		<path d="M-40.2,199.5c0,0.2-0.1,0.5-0.2,0.7l-3.9,5.2v3.1c0,0.4-0.1,0.6-0.3,0.8c-0.2,0.2-0.5,0.3-0.8,0.3c-0.3,0-0.6-0.1-0.8-0.3
			c-0.2-0.2-0.3-0.5-0.3-0.8v-3.1l-3.9-5.2c-0.2-0.2-0.2-0.4-0.2-0.7c0-0.3,0.1-0.6,0.4-0.8c0.3-0.2,0.6-0.3,0.9-0.3
			c0.3,0,0.6,0.2,0.9,0.5l3.2,4.5l3.2-4.5c0.2-0.3,0.5-0.5,0.9-0.5c0.3,0,0.6,0.1,0.9,0.3C-40.3,199-40.2,199.2-40.2,199.5z"/>
		<path d="M-31.2,208.4c0,0.3-0.1,0.6-0.3,0.8c-0.2,0.2-0.5,0.4-0.9,0.4c-0.6,0-1-0.3-1.1-0.8c-0.5,0.5-1.3,0.8-2.2,0.8
			c-2.3,0-3.5-1-3.5-2.9v-3.4c0-0.8,0.4-1.2,1.1-1.2c0.4,0,0.6,0.1,0.8,0.3c0.2,0.2,0.3,0.5,0.3,0.8v3c0,1,0.5,1.5,1.6,1.5
			c0.4,0,0.8-0.2,1.2-0.5c0.4-0.3,0.6-0.7,0.6-1v-2.9c0-0.8,0.4-1.1,1.1-1.1c0.8,0,1.2,0.4,1.2,1.1V208.4z"/>
		<path d="M-21.2,208.5c0,0.3-0.1,0.6-0.4,0.8c-0.3,0.2-0.6,0.3-0.9,0.3c-0.6,0-1.1-0.2-1.3-0.7c-0.7,0.4-1.6,0.7-2.8,0.7
			c-2.3,0-3.4-0.8-3.4-2.3c0-0.9,0.4-1.5,1.1-1.9c0.6-0.3,1.4-0.5,2.4-0.6c0.8,0,1.6-0.1,2.3-0.1c-0.1-0.5-0.6-0.7-1.7-0.7
			c-0.7,0-1.3,0.1-1.8,0.4c-0.6,0.3-1,0.4-1.2,0.4c-0.2,0-0.4-0.1-0.6-0.2c-0.2-0.2-0.3-0.4-0.3-0.6c0-1.2,1.4-1.7,4.3-1.7
			c0.9,0,1.7,0.2,2.4,0.5c0.8,0.4,1.2,1.1,1.2,2v1.8c0,0.4,0.1,0.8,0.3,1.2C-21.3,208.1-21.2,208.4-21.2,208.5z M-24.1,207.3v-0.8
			c-2.4,0-3.6,0.2-3.6,0.7c0,0.3,0.5,0.5,1.4,0.5C-25.7,207.8-24.9,207.6-24.1,207.3z"/>
		<path d="M-12.1,208.4c0,0.8-0.4,1.2-1.2,1.2c-0.7,0-1.1-0.4-1.1-1.2v-3c0-0.4-0.2-0.8-0.5-1c-0.3-0.3-0.7-0.4-1.2-0.4
			c-0.4,0-0.9,0.2-1.3,0.5c-0.4,0.3-0.6,0.7-0.6,1v2.9c0,0.8-0.4,1.2-1.1,1.2c-0.8,0-1.2-0.4-1.2-1.2v-5.3c0-0.3,0.1-0.5,0.3-0.7
			c0.2-0.2,0.5-0.3,0.9-0.3c0.7,0,1,0.3,1.1,0.9c0.6-0.6,1.3-0.9,2.3-0.9c1.1,0,1.9,0.3,2.5,0.8c0.6,0.6,0.9,1.4,0.9,2.4V208.4z"/>
		<path d="M-0.8,208.5c0,0.3-0.1,0.5-0.3,0.8c-0.2,0.2-0.5,0.3-0.8,0.3c-0.4,0-0.7-0.1-0.9-0.4l-3-3.6l-3,3.6
			c-0.2,0.3-0.5,0.4-0.9,0.4c-0.3,0-0.6-0.1-0.8-0.3s-0.4-0.5-0.4-0.8c0-0.2,0.1-0.5,0.3-0.7l3.3-3.9l-3-3.6
			c-0.2-0.2-0.3-0.5-0.3-0.7c0-0.3,0.1-0.6,0.4-0.8c0.2-0.2,0.5-0.3,0.8-0.3c0.4,0,0.6,0.1,0.9,0.4l2.7,3.2l2.7-3.2
			c0.2-0.3,0.6-0.4,0.9-0.4c0.3,0,0.6,0.1,0.8,0.3c0.2,0.2,0.4,0.5,0.4,0.8c0,0.2-0.1,0.5-0.3,0.7l-3,3.6l3.3,3.9
			C-0.9,208-0.8,208.2-0.8,208.5z"/>
		<path d="M10,206.1c0,1.1-0.3,1.8-1,2.4c-0.6,0.5-1.5,0.8-2.7,0.8H2c-1.2,0-1.9-0.5-1.9-1.6v-7.4c0-0.5,0.2-0.9,0.5-1.2
			c0.3-0.2,0.7-0.4,1.2-0.4h4.2c2.3,0,3.4,0.9,3.4,2.6c0,1-0.4,1.7-1.1,2.2c0.4,0.1,0.8,0.4,1.1,0.9C9.8,205,10,205.5,10,206.1z
			 M7.3,201.8c0-0.6-0.4-1-1.1-1H3.3c-0.6,0-0.9,0.3-0.9,0.8v1.2h3.8C6.9,202.8,7.3,202.5,7.3,201.8z M7.7,206
			c0-0.4-0.1-0.7-0.4-0.9c-0.2-0.2-0.6-0.2-1-0.2H2.4v1.5c0,0.5,0.3,0.8,0.9,0.8h3C7.3,207.2,7.7,206.8,7.7,206z"/>
		<path d="M19.3,205.9c0,1-0.4,1.9-1.2,2.6c-0.8,0.7-1.9,1.1-3,1.1s-2.2-0.4-3-1.1c-0.8-0.7-1.2-1.6-1.2-2.6c0-1,0.4-1.9,1.2-2.6
			c0.8-0.7,1.9-1.1,3-1.1s2.2,0.4,3,1.1C18.9,204,19.3,204.9,19.3,205.9z M17,205.9c0-0.5-0.2-1-0.6-1.3c-0.4-0.4-0.9-0.6-1.4-0.6
			c-0.6,0-1,0.2-1.4,0.6c-0.4,0.4-0.6,0.8-0.6,1.3c0,0.5,0.2,1,0.6,1.3c0.4,0.4,0.9,0.6,1.4,0.6c0.6,0,1-0.2,1.4-0.6
			C16.8,206.9,17,206.4,17,205.9z"/>
		<path d="M23.2,208.4c0,0.8-0.4,1.2-1.1,1.2s-1.1-0.4-1.1-1.2v-8.8c0-0.8,0.4-1.2,1.1-1.2c0.3,0,0.6,0.1,0.8,0.3
			c0.2,0.2,0.3,0.5,0.3,0.9V208.4z"/>
		<path d="M33.2,208.4c0,0.8-0.4,1.2-1.2,1.2c-0.6,0-1-0.3-1.1-0.9c-0.5,0.6-1.3,0.9-2.3,0.9c-1.1,0-2-0.3-2.7-1
			c-0.7-0.7-1-1.6-1-2.8c0-1.1,0.3-2,1-2.7c0.7-0.7,1.6-1,2.7-1c0.9,0,1.7,0.3,2.3,0.8v-3.3c0-0.8,0.4-1.1,1.1-1.1
			c0.4,0,0.6,0.1,0.9,0.3c0.2,0.2,0.3,0.5,0.3,0.8V208.4z M30.9,205.8c0-0.5-0.2-0.9-0.6-1.2c-0.4-0.4-0.8-0.5-1.3-0.5
			c-0.5,0-1,0.2-1.4,0.5s-0.6,0.8-0.6,1.3c0,1.3,0.6,1.9,1.9,1.9c0.5,0,1-0.2,1.4-0.6C30.7,206.8,30.9,206.3,30.9,205.8z"/>
	</g>
</g>
</svg>
